<svg id="svg" version="1.1" xmlns="http://www.w3.org/2000/svg" xmlns:xlink="http://www.w3.org/1999/xlink" width="400" height="337.4301675977653" viewBox="0, 0, 400,337.4301675977653"><g id="svgg"><path id="path0" d="M174.177 11.814 C 173.899 11.994,172.447 12.144,170.951 12.147 C 169.088 12.150,168.024 12.308,167.575 12.647 C 167.215 12.920,166.359 13.148,165.674 13.154 C 164.989 13.160,164.334 13.316,164.219 13.502 C 164.105 13.688,163.412 13.840,162.681 13.840 C 161.949 13.840,161.350 13.992,161.350 14.177 C 161.350 14.363,161.055 14.515,160.695 14.515 C 160.335 14.515,159.946 14.667,159.831 14.852 C 159.716 15.038,159.340 15.190,158.995 15.190 C 158.317 15.190,156.190 16.211,156.006 16.624 C 155.944 16.764,155.450 16.878,154.909 16.878 C 154.367 16.878,153.924 17.030,153.924 17.215 C 153.924 17.401,153.629 17.553,153.269 17.553 C 152.909 17.553,152.520 17.705,152.405 17.890 C 152.290 18.076,151.902 18.228,151.541 18.228 C 151.181 18.228,150.886 18.380,150.886 18.565 C 150.886 18.751,150.582 18.903,150.211 18.903 C 149.836 18.903,149.536 19.128,149.536 19.409 C 149.536 19.724,149.217 19.916,148.692 19.916 C 148.228 19.916,147.848 20.068,147.848 20.253 C 147.848 20.439,147.544 20.591,147.173 20.591 C 146.802 20.591,146.498 20.743,146.498 20.928 C 146.498 21.114,146.194 21.266,145.823 21.266 C 145.451 21.266,145.148 21.418,145.148 21.603 C 145.148 21.789,144.920 21.941,144.641 21.941 C 144.363 21.941,144.135 22.093,144.135 22.278 C 144.135 22.464,143.831 22.616,143.460 22.616 C 143.085 22.616,142.785 22.841,142.785 23.122 C 142.785 23.424,142.474 23.629,142.015 23.629 C 141.592 23.629,141.027 23.932,140.759 24.304 C 140.492 24.675,140.003 24.979,139.672 24.979 C 139.342 24.979,139.072 25.098,139.072 25.244 C 139.072 25.389,138.578 25.798,137.975 26.151 C 137.371 26.504,136.475 27.221,135.983 27.743 C 135.491 28.265,134.874 28.692,134.612 28.692 C 134.072 28.692,133.142 29.501,132.156 30.827 C 131.787 31.324,131.332 31.733,131.144 31.737 C 130.956 31.741,130.346 32.293,129.789 32.963 C 129.232 33.634,128.495 34.428,128.152 34.728 C 126.342 36.310,125.569 37.093,125.560 37.351 C 125.555 37.508,124.872 38.231,124.041 38.958 C 123.211 39.684,122.528 40.520,122.522 40.814 C 122.517 41.109,121.834 41.945,121.003 42.671 C 120.173 43.397,119.494 44.237,119.494 44.537 C 119.494 44.837,119.190 45.302,118.819 45.570 C 118.447 45.837,118.143 46.326,118.143 46.657 C 118.143 46.987,117.992 47.257,117.806 47.257 C 117.620 47.257,117.468 47.469,117.468 47.728 C 117.468 47.986,117.241 48.285,116.962 48.392 C 116.684 48.499,116.456 48.819,116.456 49.103 C 116.456 49.388,116.304 49.620,116.118 49.620 C 115.932 49.620,115.781 49.924,115.781 50.295 C 115.781 50.667,115.629 50.970,115.443 50.970 C 115.257 50.970,115.105 51.198,115.105 51.477 C 115.105 51.755,114.954 51.983,114.768 51.983 C 114.582 51.983,114.430 52.287,114.430 52.658 C 114.430 53.030,114.278 53.333,114.093 53.333 C 113.907 53.333,113.755 53.621,113.755 53.972 C 113.755 54.324,113.527 54.699,113.249 54.806 C 112.970 54.912,112.743 55.308,112.743 55.686 C 112.743 56.063,112.591 56.371,112.405 56.371 C 112.219 56.371,112.068 56.675,112.068 57.046 C 112.068 57.418,111.916 57.722,111.730 57.722 C 111.544 57.722,111.392 58.101,111.392 58.565 C 111.392 59.030,111.241 59.409,111.055 59.409 C 110.869 59.409,110.717 59.713,110.717 60.084 C 110.717 60.456,110.565 60.759,110.380 60.759 C 110.194 60.759,110.042 61.047,110.042 61.398 C 110.042 61.750,109.846 62.113,109.607 62.204 C 109.368 62.296,108.958 63.158,108.696 64.118 C 108.435 65.079,108.099 65.941,107.950 66.033 C 107.801 66.125,107.679 66.647,107.679 67.193 C 107.679 67.739,107.527 68.186,107.342 68.186 C 107.156 68.186,107.004 68.565,107.004 69.030 C 107.004 69.494,106.889 69.873,106.749 69.873 C 106.410 69.873,105.633 72.090,105.418 73.671 C 105.323 74.367,105.110 74.937,104.943 74.937 C 104.777 74.937,104.641 75.468,104.641 76.118 C 104.641 76.768,104.489 77.300,104.304 77.300 C 104.118 77.300,103.966 77.746,103.966 78.292 C 103.966 78.838,103.814 79.379,103.629 79.494 C 103.443 79.608,103.286 80.187,103.280 80.779 C 103.274 81.372,103.047 82.151,102.774 82.512 C 102.501 82.872,102.278 83.518,102.278 83.946 C 102.278 84.375,102.127 84.726,101.941 84.726 C 101.755 84.726,101.603 85.172,101.603 85.718 C 101.603 86.264,101.451 86.805,101.266 86.920 C 101.080 87.035,100.928 87.727,100.928 88.459 C 100.928 89.190,100.776 89.789,100.591 89.789 C 100.405 89.789,100.253 90.473,100.253 91.308 C 100.253 92.143,100.101 92.827,99.916 92.827 C 99.730 92.827,99.573 93.321,99.567 93.924 C 99.561 94.527,99.334 95.316,99.061 95.676 C 98.788 96.037,98.565 96.758,98.565 97.280 C 98.565 97.801,98.414 98.228,98.228 98.228 C 98.042 98.228,97.890 98.826,97.890 99.558 C 97.890 100.290,97.738 100.982,97.553 101.097 C 97.367 101.212,97.215 102.056,97.215 102.974 C 97.215 103.891,97.063 104.641,96.878 104.641 C 96.692 104.641,96.540 105.392,96.540 106.309 C 96.540 107.227,96.388 108.071,96.203 108.186 C 96.017 108.300,95.860 109.183,95.854 110.147 C 95.848 111.149,95.631 112.179,95.348 112.554 C 95.075 112.914,94.852 113.864,94.852 114.664 C 94.852 115.464,94.700 116.118,94.515 116.118 C 94.329 116.118,94.177 116.494,94.177 116.953 C 94.177 117.412,93.791 118.437,93.319 119.231 C 92.846 120.025,92.373 120.941,92.266 121.266 C 92.160 121.591,91.900 121.857,91.689 121.857 C 91.477 121.857,91.089 122.350,90.825 122.954 C 90.562 123.557,90.069 124.296,89.730 124.597 C 89.391 124.897,89.114 125.325,89.114 125.547 C 89.114 125.770,88.582 126.454,87.932 127.067 C 87.283 127.680,86.751 128.315,86.750 128.479 C 86.750 128.642,86.294 129.308,85.738 129.958 C 85.182 130.608,84.727 131.253,84.727 131.392 C 84.726 131.532,84.569 131.646,84.377 131.646 C 84.008 131.646,81.688 133.841,81.688 134.190 C 81.688 134.446,80.788 135.359,80.536 135.359 C 80.434 135.359,79.636 136.042,78.764 136.878 C 77.892 137.713,77.034 138.397,76.857 138.397 C 76.680 138.397,76.289 138.663,75.989 138.990 C 75.689 139.316,75.025 139.797,74.515 140.059 C 74.004 140.322,73.586 140.662,73.586 140.817 C 73.586 140.971,73.278 141.097,72.901 141.097 C 72.524 141.097,72.128 141.325,72.021 141.603 C 71.914 141.882,71.609 142.110,71.342 142.110 C 71.076 142.110,70.532 142.414,70.133 142.785 C 69.735 143.156,69.133 143.460,68.797 143.460 C 68.461 143.460,68.186 143.575,68.186 143.715 C 68.186 143.855,67.692 144.169,67.089 144.412 C 66.485 144.655,65.764 144.997,65.485 145.172 C 65.207 145.346,64.751 145.576,64.473 145.681 C 64.194 145.786,63.702 146.013,63.380 146.185 C 63.058 146.357,62.336 146.498,61.777 146.498 C 61.217 146.498,60.759 146.650,60.759 146.835 C 60.759 147.021,60.304 147.173,59.747 147.173 C 59.190 147.173,58.734 147.325,58.734 147.511 C 58.734 147.696,58.203 147.848,57.553 147.848 C 56.903 147.848,56.371 147.971,56.371 148.121 C 56.371 148.271,55.726 148.537,54.937 148.712 C 53.334 149.067,52.729 150.667,53.794 151.732 C 54.365 152.303,55.359 152.409,55.359 151.899 C 55.359 151.713,56.194 151.561,57.215 151.561 C 58.236 151.561,59.072 151.409,59.072 151.224 C 59.072 151.038,59.605 150.886,60.258 150.886 C 60.910 150.886,61.708 150.751,62.030 150.586 C 64.359 149.396,66.429 148.523,66.925 148.523 C 67.247 148.523,67.511 148.371,67.511 148.186 C 67.511 148.000,67.814 147.848,68.186 147.848 C 68.557 147.848,68.861 147.696,68.861 147.511 C 68.861 147.325,69.165 147.173,69.536 147.173 C 69.907 147.173,70.211 147.052,70.211 146.903 C 70.211 146.755,70.722 146.449,71.346 146.223 C 71.970 145.998,72.919 145.436,73.455 144.974 C 73.992 144.513,74.620 144.136,74.852 144.135 C 75.084 144.135,75.274 143.983,75.274 143.797 C 75.274 143.612,75.502 143.460,75.781 143.460 C 76.059 143.460,76.287 143.308,76.287 143.122 C 76.287 142.937,76.522 142.785,76.809 142.785 C 77.097 142.785,77.684 142.405,78.114 141.941 C 78.544 141.477,79.068 141.097,79.279 141.097 C 79.490 141.097,80.816 139.958,82.227 138.565 C 83.638 137.173,84.864 136.034,84.952 136.034 C 85.190 136.034,86.076 135.103,86.076 134.852 C 86.076 134.454,87.118 133.588,87.335 133.805 C 87.453 133.923,87.370 134.199,87.150 134.419 C 86.931 134.639,86.751 135.092,86.751 135.426 C 86.751 135.760,86.599 136.034,86.414 136.034 C 86.228 136.034,86.076 136.338,86.076 136.709 C 86.076 137.080,85.924 137.384,85.738 137.384 C 85.553 137.384,85.401 137.764,85.401 138.228 C 85.401 138.692,85.287 139.073,85.148 139.074 C 84.808 139.077,83.713 141.028,83.713 141.631 C 83.713 141.894,83.561 142.110,83.376 142.110 C 83.190 142.110,83.038 142.414,83.038 142.785 C 83.038 143.156,82.886 143.460,82.700 143.460 C 82.515 143.460,82.363 143.755,82.363 144.115 C 82.363 144.475,82.211 144.864,82.025 144.979 C 81.840 145.094,81.688 145.470,81.688 145.815 C 81.688 146.494,80.667 148.621,80.253 148.805 C 80.114 148.866,80.000 149.360,80.000 149.902 C 80.000 150.443,79.848 150.886,79.662 150.886 C 79.477 150.886,79.325 151.418,79.325 152.068 C 79.325 152.717,79.173 153.249,78.987 153.249 C 78.802 153.249,78.650 153.932,78.650 154.768 C 78.650 155.603,78.498 156.287,78.312 156.287 C 78.105 156.287,77.975 157.975,77.975 160.675 C 77.975 163.376,78.105 165.063,78.312 165.063 C 78.498 165.063,78.650 165.304,78.650 165.598 C 78.650 166.364,80.807 168.352,82.376 169.031 C 83.677 169.595,84.061 170.209,83.376 170.633 C 83.190 170.748,83.038 171.355,83.038 171.983 C 83.038 172.611,82.886 173.219,82.700 173.333 C 82.515 173.448,82.363 174.065,82.363 174.703 C 82.363 175.342,82.211 175.865,82.025 175.865 C 81.840 175.865,81.688 176.531,81.688 177.345 C 81.688 178.160,81.461 179.261,81.184 179.793 C 80.906 180.324,80.678 181.244,80.677 181.837 C 80.676 182.429,80.523 183.008,80.338 183.122 C 80.152 183.237,80.000 183.704,80.000 184.160 C 80.000 185.386,79.417 186.231,76.709 188.934 C 75.363 190.277,74.262 191.532,74.262 191.722 C 74.262 191.912,74.144 192.068,74.001 192.068 C 73.857 192.068,73.461 192.637,73.120 193.333 C 72.778 194.030,72.364 194.863,72.199 195.185 C 71.782 195.999,71.815 204.128,72.236 204.388 C 72.422 204.503,72.574 205.186,72.574 205.907 C 72.574 206.628,72.726 207.311,72.911 207.426 C 73.097 207.541,73.249 208.139,73.249 208.755 C 73.249 209.371,73.477 210.064,73.755 210.295 C 74.034 210.526,74.262 211.153,74.262 211.687 C 74.262 212.221,74.414 212.658,74.599 212.658 C 74.785 212.658,74.937 213.114,74.937 213.671 C 74.937 214.228,75.089 214.684,75.274 214.684 C 75.460 214.684,75.612 215.063,75.612 215.527 C 75.612 215.992,75.764 216.371,75.949 216.371 C 76.135 216.371,76.287 216.666,76.287 217.026 C 76.287 217.387,76.427 217.768,76.599 217.874 C 76.770 217.980,77.010 218.521,77.132 219.076 C 77.254 219.630,77.493 220.084,77.664 220.084 C 77.835 220.084,77.975 220.379,77.975 220.740 C 77.975 221.100,78.127 221.489,78.312 221.603 C 78.498 221.718,78.650 222.107,78.650 222.467 C 78.650 222.828,78.802 223.122,78.987 223.122 C 79.173 223.122,79.325 223.426,79.325 223.797 C 79.325 224.169,79.453 224.473,79.609 224.473 C 79.766 224.473,80.180 225.004,80.530 225.654 C 80.880 226.304,81.284 226.835,81.427 226.835 C 81.883 226.835,81.708 229.421,81.184 230.426 C 80.906 230.957,80.678 231.877,80.677 232.470 C 80.676 233.062,80.523 233.641,80.338 233.755 C 80.152 233.870,80.000 234.554,80.000 235.274 C 80.000 235.995,79.848 236.679,79.662 236.793 C 79.477 236.908,79.325 237.819,79.325 238.819 C 79.325 239.818,79.173 240.729,78.987 240.844 C 78.802 240.959,78.650 241.946,78.650 243.038 C 78.650 244.130,78.498 245.117,78.312 245.232 C 78.127 245.347,77.975 246.482,77.975 247.756 C 77.975 249.237,77.831 250.118,77.575 250.203 C 77.320 250.289,77.125 251.484,77.033 253.523 C 76.955 255.275,76.755 256.853,76.589 257.030 C 76.423 257.206,76.287 259.361,76.287 261.820 C 76.287 264.435,76.147 266.376,75.949 266.498 C 75.764 266.613,75.612 267.305,75.612 268.037 C 75.612 268.768,75.460 269.367,75.274 269.367 C 75.089 269.367,74.937 269.899,74.937 270.549 C 74.937 271.198,74.785 271.730,74.599 271.730 C 74.414 271.730,74.262 272.034,74.262 272.405 C 74.262 272.776,74.117 273.080,73.939 273.080 C 73.762 273.080,73.517 273.612,73.395 274.262 C 73.274 274.911,73.039 275.443,72.874 275.443 C 72.709 275.443,72.574 275.890,72.574 276.436 C 72.574 276.982,72.422 277.522,72.236 277.637 C 72.051 277.752,71.899 278.292,71.899 278.838 C 71.899 279.384,71.747 279.831,71.561 279.831 C 71.376 279.831,71.224 280.363,71.224 281.013 C 71.224 281.662,71.072 282.194,70.886 282.194 C 70.678 282.194,70.549 283.882,70.549 286.582 C 70.549 289.283,70.678 290.970,70.886 290.970 C 71.072 290.970,71.224 291.645,71.224 292.470 C 71.224 293.294,71.376 294.062,71.561 294.177 C 71.747 294.292,71.899 295.051,71.899 295.865 C 71.899 296.679,72.051 297.438,72.236 297.553 C 72.422 297.667,72.574 298.427,72.574 299.241 C 72.574 300.054,72.726 300.814,72.911 300.928 C 73.126 301.061,73.249 305.256,73.249 312.401 C 73.249 321.963,73.325 323.741,73.755 324.171 C 74.102 324.518,74.262 325.372,74.262 326.876 C 74.262 328.085,74.414 329.168,74.599 329.283 C 74.785 329.397,74.937 330.166,74.937 330.990 C 74.937 331.815,75.089 332.489,75.274 332.489 C 75.460 332.489,75.612 333.021,75.612 333.671 C 75.612 334.321,75.764 334.852,75.949 334.852 C 76.135 334.852,76.287 335.209,76.287 335.644 C 76.287 337.720,66.424 337.553,188.634 337.553 L 299.747 337.553 299.747 336.371 C 299.747 335.722,299.623 335.190,299.472 335.190 C 299.321 335.190,298.989 334.658,298.734 334.008 C 298.479 333.359,298.164 332.827,298.034 332.827 C 297.903 332.827,297.697 332.295,297.575 331.646 C 297.453 330.996,297.208 330.464,297.031 330.464 C 296.854 330.464,296.709 330.008,296.709 329.451 C 296.709 328.895,296.557 328.439,296.371 328.439 C 296.186 328.439,296.034 328.068,296.034 327.615 C 296.034 327.162,295.882 326.697,295.696 326.582 C 295.511 326.468,295.359 326.003,295.359 325.550 C 295.359 325.097,295.207 324.726,295.021 324.726 C 294.835 324.726,294.684 324.346,294.684 323.882 C 294.684 323.418,294.544 323.038,294.373 323.038 C 294.202 323.038,293.962 322.584,293.841 322.029 C 293.719 321.474,293.479 320.934,293.307 320.828 C 293.136 320.722,292.996 320.340,292.996 319.980 C 292.996 319.620,292.882 319.324,292.743 319.322 C 292.603 319.321,292.319 318.979,292.112 318.563 C 290.937 316.209,290.502 315.536,289.924 315.175 C 289.571 314.955,289.283 314.431,289.283 314.012 C 289.283 313.592,289.131 313.249,288.945 313.249 C 288.759 313.249,288.608 313.050,288.608 312.806 C 288.608 312.563,288.304 312.037,287.932 311.639 C 287.561 311.240,287.257 310.763,287.257 310.578 C 287.257 310.393,286.878 309.862,286.414 309.398 C 285.949 308.934,285.570 308.460,285.570 308.346 C 285.570 307.952,283.441 304.977,282.650 304.265 C 282.214 303.872,281.857 303.325,281.857 303.049 C 281.857 302.773,281.401 302.071,280.844 301.488 C 280.287 300.905,279.831 300.306,279.831 300.158 C 279.831 300.009,279.300 299.324,278.650 298.635 C 278.000 297.946,277.468 297.155,277.468 296.877 C 277.468 296.599,277.316 296.371,277.131 296.371 C 276.945 296.371,276.793 296.175,276.793 295.935 C 276.793 295.696,276.262 294.936,275.612 294.247 C 274.962 293.558,274.430 292.767,274.430 292.489 C 274.430 292.211,274.278 291.983,274.093 291.983 C 273.907 291.983,273.755 291.824,273.755 291.630 C 273.755 291.436,273.414 290.912,272.996 290.465 C 271.782 289.167,271.392 288.655,271.392 288.359 C 271.392 288.206,271.089 287.863,270.717 287.595 C 270.346 287.327,270.042 286.907,270.042 286.662 C 270.042 286.416,269.662 285.806,269.198 285.305 C 268.734 284.805,268.354 284.265,268.354 284.105 C 268.354 283.946,267.899 283.389,267.342 282.869 C 266.785 282.349,266.324 281.718,266.318 281.468 C 266.304 280.850,265.500 279.831,265.026 279.831 C 264.814 279.831,264.641 279.527,264.641 279.156 C 264.641 278.785,264.489 278.481,264.304 278.481 C 264.118 278.481,263.966 278.253,263.966 277.975 C 263.966 277.696,263.840 277.468,263.686 277.468 C 263.531 277.468,263.190 277.051,262.927 276.540 C 262.664 276.030,262.357 275.536,262.246 275.443 C 261.824 275.092,260.253 272.022,260.253 271.549 C 260.253 271.277,260.101 271.055,259.916 271.055 C 259.730 271.055,259.578 270.523,259.578 269.873 C 259.578 269.224,259.426 268.692,259.241 268.692 C 259.055 268.692,258.903 268.245,258.903 267.699 C 258.903 267.153,258.751 266.613,258.565 266.498 C 258.380 266.383,258.228 265.785,258.228 265.169 C 258.228 264.553,258.000 263.860,257.722 263.629 C 257.431 263.387,257.215 262.651,257.215 261.900 C 257.215 261.180,257.063 260.591,256.878 260.591 C 256.692 260.591,256.540 259.907,256.540 259.072 C 256.540 258.236,256.388 257.553,256.203 257.553 C 256.017 257.553,255.865 256.869,255.865 256.034 C 255.865 255.198,255.713 254.515,255.527 254.515 C 255.342 254.515,255.190 254.126,255.190 253.650 C 255.190 252.504,254.180 249.451,253.801 249.451 C 253.637 249.451,253.502 248.920,253.502 248.270 C 253.502 247.620,253.350 247.089,253.165 247.089 C 252.979 247.089,252.827 246.794,252.827 246.433 C 252.827 246.073,252.675 245.684,252.489 245.570 C 252.304 245.455,252.152 245.066,252.152 244.706 C 252.152 244.345,252.000 244.051,251.814 244.051 C 251.629 244.051,251.477 243.747,251.477 243.376 C 251.477 243.004,251.325 242.700,251.139 242.700 C 250.954 242.700,250.802 242.496,250.802 242.247 C 250.802 241.997,250.422 241.351,249.958 240.812 C 249.494 240.273,249.115 239.675,249.114 239.484 C 249.114 239.293,248.810 238.917,248.439 238.650 C 247.652 238.083,247.545 237.300,248.254 237.300 C 248.885 237.300,255.190 230.986,255.190 230.353 C 255.190 230.089,255.342 229.873,255.527 229.873 C 255.713 229.873,255.865 229.579,255.865 229.218 C 255.865 228.858,256.017 228.469,256.203 228.354 C 256.388 228.240,256.540 227.851,256.540 227.491 C 256.540 227.130,256.692 226.835,256.878 226.835 C 257.063 226.835,257.215 226.168,257.215 225.353 C 257.215 224.396,257.382 223.806,257.686 223.689 C 258.511 223.372,259.339 212.409,258.604 211.524 C 258.108 210.926,258.033 207.992,258.502 207.523 C 258.723 207.303,258.903 206.545,258.903 205.840 C 258.903 205.134,259.055 204.557,259.241 204.557 C 259.426 204.557,259.578 205.326,259.578 206.267 C 259.578 207.207,259.726 208.254,259.907 208.592 C 260.088 208.931,260.254 212.286,260.276 216.049 C 260.297 219.812,260.393 223.094,260.489 223.344 C 260.979 224.621,263.966 222.994,263.966 221.450 C 263.966 221.070,264.118 220.759,264.304 220.759 C 264.489 220.759,264.641 220.369,264.641 219.892 C 264.641 219.414,264.869 218.796,265.148 218.517 C 265.426 218.239,265.654 217.642,265.654 217.191 C 265.654 216.740,265.806 216.371,265.992 216.371 C 266.186 216.371,266.329 215.309,266.329 213.860 C 266.329 212.478,266.481 211.254,266.667 211.139 C 266.852 211.025,267.004 209.724,267.004 208.250 C 267.004 206.688,266.863 205.570,266.667 205.570 C 266.468 205.570,266.329 204.395,266.329 202.720 C 266.329 201.153,266.177 199.777,265.992 199.662 C 265.806 199.548,265.654 198.850,265.654 198.113 C 265.654 197.232,265.480 196.705,265.148 196.578 C 264.784 196.438,264.641 195.870,264.641 194.563 C 264.641 193.562,264.489 192.743,264.304 192.743 C 264.118 192.743,263.966 192.220,263.966 191.581 C 263.966 190.942,263.814 190.326,263.629 190.211 C 263.443 190.096,263.291 189.641,263.291 189.198 C 263.291 188.756,263.139 188.300,262.954 188.186 C 262.545 187.933,262.505 187.342,262.897 187.342 C 263.051 187.342,263.388 187.759,263.646 188.270 C 263.904 188.781,264.613 189.674,265.222 190.256 C 265.831 190.838,266.329 191.470,266.329 191.659 C 266.329 192.356,267.818 194.768,268.248 194.768 C 268.492 194.768,268.692 195.063,268.692 195.423 C 268.692 195.783,268.844 196.172,269.030 196.287 C 269.215 196.402,269.367 196.790,269.367 197.151 C 269.367 197.511,269.519 197.806,269.705 197.806 C 269.890 197.806,270.042 198.110,270.042 198.481 C 270.042 198.852,270.194 199.156,270.380 199.156 C 270.565 199.156,270.717 199.361,270.717 199.611 C 270.717 200.287,271.732 202.194,272.092 202.194 C 272.264 202.194,272.405 202.726,272.405 203.376 C 272.405 204.025,272.557 204.557,272.743 204.557 C 272.928 204.557,273.080 205.156,273.080 205.887 C 273.080 206.619,273.232 207.311,273.418 207.426 C 273.606 207.543,273.755 209.117,273.755 210.990 C 273.755 213.002,273.620 214.346,273.418 214.346 C 273.218 214.346,273.080 215.584,273.080 217.384 C 273.080 219.184,272.943 220.422,272.743 220.422 C 272.557 220.422,272.405 221.165,272.405 222.074 C 272.405 223.230,272.253 223.783,271.899 223.920 C 271.620 224.026,271.392 224.413,271.392 224.780 C 271.392 225.146,271.241 225.539,271.055 225.654 C 270.869 225.769,270.717 226.157,270.717 226.518 C 270.717 226.878,270.565 227.173,270.380 227.173 C 270.194 227.173,270.042 227.401,270.042 227.679 C 270.042 227.958,270.194 228.186,270.380 228.186 C 270.565 228.186,270.717 228.414,270.717 228.692 C 270.717 229.883,272.899 229.285,274.103 227.764 C 274.728 226.975,275.452 226.199,275.713 226.040 C 275.973 225.881,276.437 225.444,276.743 225.070 C 277.049 224.695,277.641 224.034,278.059 223.602 C 278.477 223.169,278.819 222.597,278.819 222.330 C 278.819 222.063,279.046 221.757,279.325 221.650 C 279.691 221.510,279.831 221.687,279.831 222.289 C 279.831 222.747,279.691 223.122,279.520 223.122 C 279.350 223.122,279.110 223.576,278.988 224.131 C 278.866 224.686,278.626 225.227,278.455 225.333 C 278.284 225.438,278.143 225.820,278.143 226.180 C 278.143 226.541,277.992 226.835,277.806 226.835 C 277.036 226.835,277.438 229.147,278.228 229.259 C 279.627 229.458,281.181 229.140,281.181 228.655 C 281.181 228.397,281.333 228.186,281.519 228.186 C 281.705 228.186,281.857 227.915,281.857 227.585 C 281.857 227.255,282.168 226.761,282.548 226.488 C 283.284 225.959,284.219 224.331,284.219 223.577 C 284.219 223.327,284.333 223.121,284.473 223.120 C 284.815 223.116,285.570 221.447,285.570 220.692 C 285.570 220.358,285.722 220.084,285.907 220.084 C 286.093 220.084,286.245 219.647,286.245 219.113 C 286.245 218.579,286.473 217.953,286.751 217.722 C 287.030 217.490,287.257 216.797,287.257 216.181 C 287.257 215.565,287.409 214.967,287.595 214.852 C 287.781 214.738,287.932 214.436,287.932 214.182 C 287.932 213.928,289.072 212.573,290.464 211.172 C 291.857 209.771,292.996 208.469,292.996 208.281 C 292.996 208.092,293.311 207.575,293.696 207.132 C 294.526 206.178,296.034 203.282,296.034 202.643 C 296.034 202.396,296.186 202.194,296.371 202.194 C 296.557 202.194,296.714 201.928,296.720 201.603 C 296.726 201.278,296.953 200.718,297.226 200.357 C 297.499 199.997,297.722 199.427,297.722 199.092 C 297.722 198.756,297.873 198.481,298.059 198.481 C 298.245 198.481,298.397 197.882,298.397 197.151 C 298.397 196.419,298.549 195.727,298.734 195.612 C 298.920 195.497,299.072 194.577,299.072 193.567 C 299.072 192.556,299.224 191.730,299.409 191.730 C 299.624 191.730,299.747 188.980,299.747 184.155 C 299.747 179.469,299.618 176.500,299.409 176.371 C 299.224 176.257,299.072 175.184,299.072 173.989 C 299.072 172.764,298.924 171.814,298.734 171.814 C 298.549 171.814,298.397 171.281,298.397 170.628 C 298.397 169.976,298.270 169.179,298.116 168.856 C 297.962 168.534,297.582 167.764,297.272 167.146 C 296.962 166.527,296.709 165.654,296.709 165.205 C 296.709 164.756,296.557 164.388,296.371 164.388 C 296.186 164.388,296.034 163.857,296.034 163.207 C 296.034 162.557,295.882 162.025,295.696 162.025 C 295.511 162.025,295.359 161.722,295.359 161.350 C 295.359 160.979,295.207 160.675,295.021 160.675 C 294.835 160.675,294.684 160.390,294.684 160.041 C 294.684 159.693,294.456 159.218,294.177 158.987 C 293.899 158.756,293.671 158.358,293.671 158.102 C 293.671 157.846,293.519 157.637,293.333 157.637 C 293.148 157.637,292.996 157.333,292.996 156.962 C 292.996 156.591,292.844 156.287,292.658 156.287 C 292.447 156.287,292.321 154.268,292.321 150.906 C 292.321 147.683,292.185 145.441,291.983 145.316 C 291.797 145.201,291.646 143.688,291.646 141.941 C 291.646 140.194,291.494 138.680,291.308 138.565 C 291.122 138.451,290.970 137.615,290.970 136.709 C 290.970 135.803,290.819 134.967,290.633 134.852 C 290.447 134.738,290.295 134.121,290.295 133.482 C 290.295 132.843,290.447 132.321,290.633 132.321 C 290.819 132.321,290.970 132.591,290.970 132.921 C 290.970 133.252,291.274 133.741,291.646 134.008 C 292.017 134.276,292.321 134.754,292.321 135.071 C 292.321 135.388,292.700 135.946,293.165 136.311 C 293.629 136.676,294.008 137.219,294.008 137.517 C 294.008 137.815,294.136 138.059,294.293 138.059 C 294.449 138.059,294.929 138.743,295.359 139.578 C 295.788 140.414,296.233 141.097,296.348 141.097 C 296.462 141.097,296.842 141.629,297.192 142.278 C 297.542 142.928,297.956 143.460,298.112 143.460 C 298.269 143.460,298.397 143.730,298.397 144.061 C 298.397 144.391,298.700 144.880,299.072 145.148 C 299.443 145.415,299.747 145.894,299.747 146.210 C 299.747 146.527,300.127 147.085,300.591 147.450 C 301.055 147.815,301.435 148.349,301.435 148.636 C 301.435 148.923,301.586 149.252,301.772 149.367 C 301.958 149.482,302.110 149.871,302.110 150.231 C 302.110 150.591,302.236 150.886,302.391 150.886 C 302.546 150.886,303.110 151.722,303.644 152.743 C 304.178 153.764,304.735 154.599,304.881 154.599 C 305.028 154.599,305.148 154.903,305.148 155.274 C 305.148 155.646,305.300 155.949,305.485 155.949 C 305.671 155.949,305.823 156.329,305.823 156.793 C 305.823 157.257,305.975 157.637,306.160 157.637 C 306.346 157.637,306.498 157.941,306.498 158.312 C 306.498 158.684,306.650 158.987,306.835 158.987 C 307.021 158.987,307.173 159.273,307.173 159.621 C 307.173 159.970,307.401 160.444,307.679 160.675 C 307.958 160.906,308.186 161.456,308.186 161.898 C 308.186 162.339,308.338 162.700,308.523 162.700 C 308.709 162.700,308.861 163.232,308.861 163.882 C 308.861 164.532,309.013 165.063,309.198 165.063 C 309.384 165.063,309.536 165.662,309.536 166.394 C 309.536 167.125,309.688 167.818,309.873 167.932 C 310.059 168.047,310.211 168.740,310.211 169.471 C 310.211 170.203,310.369 170.802,310.562 170.802 C 311.326 170.802,310.622 186.373,309.836 186.858 C 309.671 186.961,309.536 187.491,309.536 188.037 C 309.536 188.583,309.384 189.030,309.198 189.030 C 309.013 189.030,308.861 189.485,308.861 190.042 C 308.861 190.599,308.709 191.055,308.523 191.055 C 308.338 191.055,308.186 191.351,308.186 191.713 C 308.186 192.075,307.975 192.493,307.717 192.641 C 307.459 192.790,306.941 193.460,306.567 194.131 C 305.171 196.632,304.946 196.942,303.486 198.368 C 301.215 200.588,303.089 203.004,305.407 200.844 C 305.806 200.473,306.254 200.169,306.403 200.169 C 306.816 200.169,310.211 196.045,310.211 195.542 C 310.211 195.372,310.484 194.938,310.819 194.578 C 311.153 194.219,311.717 193.430,312.073 192.827 C 312.428 192.224,312.839 191.730,312.984 191.730 C 313.130 191.730,313.249 191.426,313.249 191.055 C 313.249 190.684,313.401 190.380,313.586 190.380 C 313.772 190.380,313.924 190.085,313.924 189.725 C 313.924 189.364,314.076 188.975,314.262 188.861 C 314.447 188.746,314.599 188.374,314.599 188.033 C 314.599 187.693,314.827 187.327,315.105 187.220 C 315.384 187.113,315.612 186.726,315.612 186.360 C 315.612 185.993,315.764 185.600,315.949 185.485 C 316.135 185.370,316.287 184.763,316.287 184.135 C 316.287 183.507,316.439 182.900,316.624 182.785 C 316.828 182.659,316.962 180.313,316.962 176.878 C 316.962 173.443,316.828 171.096,316.624 170.970 C 316.439 170.856,316.287 169.859,316.287 168.756 C 316.287 167.653,316.155 166.751,315.994 166.751 C 315.833 166.751,315.615 166.109,315.509 165.324 C 315.404 164.539,315.156 163.842,314.958 163.777 C 314.761 163.711,314.599 163.138,314.599 162.504 C 314.599 161.869,314.447 161.350,314.262 161.350 C 314.076 161.350,313.924 160.819,313.924 160.169 C 313.924 159.519,313.772 158.987,313.586 158.987 C 313.401 158.987,313.249 158.530,313.249 157.970 C 313.249 157.411,313.110 156.689,312.940 156.367 C 312.322 155.196,311.561 153.307,311.561 152.945 C 311.561 152.741,311.409 152.574,311.224 152.574 C 311.038 152.574,310.886 152.194,310.886 151.730 C 310.886 151.266,310.734 150.886,310.549 150.886 C 310.363 150.886,310.211 150.582,310.211 150.211 C 310.211 149.840,310.059 149.536,309.873 149.536 C 309.688 149.536,309.536 149.331,309.536 149.081 C 309.536 148.405,308.521 146.498,308.161 146.498 C 307.989 146.498,307.848 146.203,307.848 145.843 C 307.848 145.482,307.696 145.094,307.511 144.979 C 307.325 144.864,307.173 144.475,307.173 144.115 C 307.173 143.755,307.021 143.460,306.835 143.460 C 306.650 143.460,306.498 143.156,306.498 142.785 C 306.498 142.414,306.346 142.110,306.160 142.110 C 305.975 142.110,305.823 141.894,305.823 141.631 C 305.823 141.028,304.728 139.077,304.388 139.074 C 304.249 139.073,304.135 138.768,304.135 138.397 C 304.135 138.025,303.983 137.722,303.797 137.722 C 303.612 137.722,303.460 137.494,303.460 137.215 C 303.460 136.937,303.308 136.709,303.122 136.709 C 302.937 136.709,302.785 136.405,302.785 136.034 C 302.785 135.662,302.633 135.359,302.447 135.359 C 302.262 135.359,302.110 135.066,302.110 134.708 C 302.110 134.350,301.730 133.759,301.266 133.394 C 300.802 133.029,300.422 132.486,300.422 132.188 C 300.422 131.890,300.270 131.646,300.084 131.646 C 299.899 131.646,299.747 131.370,299.747 131.034 C 299.747 130.698,299.443 130.097,299.072 129.698 C 298.700 129.299,298.397 128.808,298.397 128.607 C 298.397 128.405,298.017 127.831,297.553 127.330 C 297.089 126.830,296.709 126.229,296.709 125.995 C 296.709 125.761,296.557 125.570,296.371 125.570 C 296.186 125.570,296.034 125.335,296.034 125.049 C 296.034 124.763,295.730 124.203,295.359 123.804 C 294.987 123.406,294.684 122.830,294.684 122.525 C 294.684 122.220,294.304 121.767,293.840 121.519 C 293.310 121.236,292.996 120.774,292.996 120.281 C 292.996 119.848,292.882 119.491,292.743 119.488 C 292.603 119.486,292.110 118.708,291.646 117.760 C 291.181 116.813,290.460 115.768,290.042 115.438 C 289.624 115.109,289.283 114.596,289.283 114.297 C 289.283 113.999,289.155 113.755,288.998 113.755 C 288.842 113.755,288.362 113.072,287.932 112.236 C 287.503 111.401,286.947 110.717,286.698 110.717 C 286.449 110.717,286.245 110.494,286.245 110.221 C 286.245 109.948,285.941 109.184,285.570 108.523 C 285.198 107.862,284.895 107.098,284.895 106.825 C 284.895 106.552,284.743 106.329,284.557 106.329 C 284.371 106.329,284.219 105.655,284.219 104.830 C 284.219 104.006,284.068 103.237,283.882 103.122 C 283.696 103.008,283.544 102.082,283.544 101.067 C 283.544 99.736,283.403 99.165,283.038 99.025 C 282.694 98.893,282.532 98.355,282.532 97.348 C 282.532 96.532,282.380 95.865,282.194 95.865 C 282.008 95.865,281.857 95.266,281.857 94.535 C 281.857 93.803,281.705 93.111,281.519 92.996 C 281.333 92.881,281.181 92.349,281.181 91.814 C 281.181 91.279,281.030 90.748,280.844 90.633 C 280.658 90.518,280.506 89.978,280.506 89.432 C 280.506 88.886,280.354 88.439,280.169 88.439 C 279.983 88.439,279.831 88.070,279.831 87.619 C 279.831 87.168,279.603 86.571,279.325 86.293 C 279.046 86.014,278.819 85.396,278.819 84.919 C 278.819 84.441,278.667 84.051,278.481 84.051 C 278.295 84.051,278.143 83.669,278.143 83.202 C 278.143 82.736,277.968 82.014,277.753 81.599 C 276.957 80.058,276.793 79.662,276.793 79.274 C 276.793 78.641,275.678 76.287,275.378 76.287 C 275.228 76.287,275.105 75.831,275.105 75.274 C 275.105 74.717,274.954 74.262,274.768 74.262 C 274.582 74.262,274.430 73.882,274.430 73.418 C 274.430 72.954,274.278 72.574,274.093 72.574 C 273.907 72.574,273.755 72.310,273.755 71.988 C 273.755 71.335,272.041 67.743,271.646 67.567 C 271.506 67.505,271.392 67.163,271.392 66.807 C 271.392 66.451,271.241 66.160,271.055 66.160 C 270.869 66.160,270.717 65.866,270.717 65.505 C 270.717 65.145,270.565 64.756,270.380 64.641 C 270.194 64.527,270.042 64.138,270.042 63.778 C 270.042 63.417,269.890 63.122,269.705 63.122 C 269.519 63.122,269.367 62.917,269.367 62.665 C 269.367 62.414,268.987 61.799,268.523 61.298 C 268.059 60.797,267.679 60.167,267.679 59.898 C 267.679 59.629,267.527 59.409,267.342 59.409 C 267.156 59.409,267.004 59.030,267.004 58.565 C 267.004 58.101,266.852 57.722,266.667 57.722 C 266.481 57.722,266.329 57.454,266.329 57.127 C 266.329 56.799,265.949 56.246,265.485 55.898 C 265.021 55.549,264.641 54.982,264.641 54.636 C 264.641 54.291,264.489 54.008,264.304 54.008 C 264.118 54.008,263.966 53.705,263.966 53.333 C 263.966 52.962,263.814 52.658,263.629 52.658 C 263.443 52.658,263.291 52.430,263.291 52.152 C 263.291 51.873,263.139 51.646,262.954 51.646 C 262.768 51.646,262.616 51.342,262.616 50.970 C 262.616 50.599,262.464 50.295,262.278 50.295 C 262.093 50.295,261.941 50.063,261.941 49.778 C 261.941 49.494,261.713 49.174,261.435 49.067 C 261.156 48.960,260.928 48.661,260.928 48.403 C 260.928 48.144,260.776 47.932,260.591 47.932 C 260.405 47.932,260.253 47.662,260.253 47.332 C 260.253 47.002,259.949 46.512,259.578 46.245 C 259.207 45.977,258.903 45.552,258.903 45.300 C 258.903 45.048,258.304 44.248,257.571 43.523 C 256.838 42.797,255.996 41.692,255.699 41.066 C 255.402 40.441,254.820 39.747,254.406 39.526 C 253.991 39.304,253.469 38.712,253.244 38.211 C 252.757 37.122,251.352 35.443,250.927 35.443 C 250.761 35.443,250.322 35.035,249.954 34.536 C 249.286 33.633,247.752 32.051,246.543 31.019 C 246.193 30.720,245.663 30.189,245.365 29.837 C 244.589 28.924,243.425 28.017,243.028 28.017 C 242.842 28.017,242.034 27.333,241.234 26.498 C 240.433 25.662,239.558 24.979,239.288 24.979 C 239.019 24.979,238.580 24.675,238.312 24.304 C 238.045 23.932,237.701 23.629,237.548 23.629 C 237.286 23.629,236.870 23.329,235.793 22.363 C 235.534 22.131,235.153 21.941,234.947 21.941 C 234.740 21.941,234.245 21.637,233.846 21.266 C 233.448 20.895,232.846 20.591,232.510 20.591 C 232.174 20.591,231.899 20.439,231.899 20.253 C 231.899 20.068,231.611 19.916,231.260 19.916 C 230.908 19.916,230.533 19.688,230.426 19.409 C 230.320 19.131,229.924 18.903,229.546 18.903 C 229.169 18.903,228.861 18.751,228.861 18.565 C 228.861 18.380,228.557 18.228,228.186 18.228 C 227.814 18.228,227.511 18.076,227.511 17.890 C 227.511 17.705,227.207 17.553,226.835 17.553 C 226.464 17.553,226.160 17.401,226.160 17.215 C 226.160 17.030,225.781 16.878,225.316 16.878 C 224.852 16.878,224.473 16.726,224.473 16.540 C 224.473 16.354,224.263 16.203,224.008 16.203 C 223.752 16.203,223.377 16.004,223.176 15.760 C 222.974 15.517,222.034 15.108,221.088 14.850 C 220.141 14.592,219.291 14.259,219.199 14.110 C 219.107 13.961,218.433 13.840,217.702 13.840 C 216.970 13.840,216.371 13.688,216.371 13.502 C 216.371 13.316,215.781 13.165,215.060 13.165 C 214.338 13.165,213.313 12.938,212.781 12.660 C 212.206 12.360,210.899 12.155,209.556 12.154 C 208.314 12.153,207.203 12.000,207.089 11.814 C 206.804 11.354,189.705 11.354,189.705 11.814 C 189.705 12.000,189.032 12.152,188.210 12.152 C 187.331 12.152,186.506 12.361,186.209 12.658 C 185.603 13.264,184.414 13.326,184.226 12.763 C 184.146 12.523,183.149 12.304,181.751 12.221 C 180.463 12.144,179.265 11.945,179.089 11.779 C 178.659 11.374,174.816 11.402,174.177 11.814 M53.080 56.876 C 52.848 57.140,52.658 57.787,52.658 58.315 C 52.658 58.843,52.468 59.464,52.236 59.696 C 51.926 60.005,51.786 62.447,51.709 68.922 C 51.587 79.058,51.716 78.650,48.632 78.650 C 47.490 78.650,46.582 78.799,46.582 78.987 C 46.582 79.173,45.756 79.325,44.746 79.325 C 43.736 79.325,42.815 79.477,42.700 79.662 C 42.586 79.848,41.703 80.003,40.740 80.006 C 36.441 80.020,36.566 83.789,40.928 85.685 C 41.624 85.988,42.194 86.351,42.194 86.493 C 42.194 86.635,42.489 86.751,42.849 86.751 C 43.210 86.751,43.598 86.903,43.713 87.089 C 43.828 87.274,44.368 87.426,44.914 87.426 C 45.460 87.426,45.907 87.571,45.907 87.748 C 45.907 87.925,46.477 88.317,47.173 88.620 C 47.869 88.923,48.703 89.310,49.025 89.480 C 49.347 89.650,49.917 89.789,50.291 89.789 C 50.958 89.789,50.970 89.989,50.970 100.908 C 50.970 107.024,51.103 112.109,51.264 112.209 C 51.426 112.309,51.650 112.850,51.762 113.411 C 52.240 115.798,58.397 113.095,58.397 110.498 C 58.397 110.247,58.549 110.042,58.734 110.042 C 58.920 110.042,59.072 109.814,59.072 109.536 C 59.072 109.257,59.241 109.030,59.448 109.030 C 59.968 109.030,62.023 106.735,62.531 105.586 C 62.761 105.067,63.071 104.641,63.220 104.641 C 63.542 104.641,65.148 103.080,65.148 102.767 C 65.148 102.647,65.575 102.147,66.097 101.654 C 66.619 101.162,67.335 100.266,67.689 99.662 C 68.400 98.448,70.288 98.074,70.671 99.072 C 70.777 99.350,71.164 99.578,71.531 99.578 C 71.897 99.578,72.290 99.730,72.405 99.916 C 72.520 100.101,72.984 100.253,73.438 100.253 C 73.891 100.253,74.262 100.405,74.262 100.591 C 74.262 100.776,74.565 100.928,74.937 100.928 C 75.308 100.928,75.612 101.080,75.612 101.266 C 75.612 101.451,75.916 101.603,76.287 101.603 C 76.658 101.603,76.962 101.752,76.962 101.934 C 76.962 102.117,77.342 102.361,77.806 102.477 C 78.270 102.594,78.650 102.825,78.650 102.990 C 78.650 103.156,78.945 103.291,79.305 103.291 C 79.665 103.291,80.054 103.443,80.169 103.629 C 80.284 103.814,80.672 103.966,81.033 103.966 C 81.393 103.966,81.688 104.118,81.688 104.304 C 81.688 104.502,82.869 104.641,84.557 104.641 L 87.426 104.641 87.426 102.859 C 87.426 101.465,87.279 100.972,86.751 100.591 C 86.380 100.323,86.076 99.933,86.076 99.725 C 86.076 99.516,85.245 98.488,84.229 97.439 C 83.214 96.390,82.163 95.114,81.895 94.602 C 81.627 94.090,81.091 93.447,80.704 93.174 C 80.317 92.901,80.000 92.485,80.000 92.250 C 80.000 91.849,79.420 91.020,78.363 89.911 C 77.874 89.397,78.093 88.938,79.409 87.724 C 79.734 87.424,80.000 87.033,80.000 86.857 C 80.000 86.680,82.051 84.444,84.557 81.888 C 87.063 79.331,89.114 77.026,89.114 76.764 C 89.114 76.501,89.266 76.287,89.451 76.287 C 90.051 76.287,89.822 73.932,89.154 73.214 C 88.568 72.585,88.216 72.545,84.681 72.700 C 77.075 73.033,71.407 73.541,71.288 73.901 C 70.810 75.335,65.889 72.831,65.832 71.125 C 65.827 70.978,65.519 70.532,65.148 70.133 C 64.776 69.735,64.473 69.199,64.473 68.942 C 64.473 68.388,63.659 67.511,63.146 67.511 C 62.948 67.511,62.781 67.245,62.777 66.920 C 62.773 66.595,62.473 65.949,62.110 65.485 C 61.747 65.021,61.446 64.451,61.442 64.219 C 61.438 63.987,61.283 63.797,61.097 63.797 C 60.911 63.797,60.759 63.592,60.759 63.340 C 60.759 63.089,60.380 62.474,59.916 61.973 C 59.451 61.472,59.072 60.876,59.072 60.648 C 59.072 60.420,58.768 60.014,58.397 59.747 C 58.025 59.479,57.722 59.011,57.722 58.706 C 57.722 56.997,54.197 55.608,53.080 56.876 M55.286 59.325 C 56.043 60.406,58.734 64.871,58.734 65.046 C 58.734 65.141,60.253 67.495,62.110 70.277 C 63.966 73.060,65.485 75.454,65.485 75.599 C 65.485 75.873,64.027 76.284,60.591 76.980 C 59.477 77.205,57.765 77.609,56.787 77.877 C 55.808 78.145,54.853 78.312,54.664 78.249 C 54.406 78.163,54.141 62.762,54.333 58.987 C 54.356 58.539,54.860 58.717,55.286 59.325 M87.089 75.592 C 87.089 75.766,85.409 77.703,83.356 79.895 C 81.304 82.088,78.911 84.747,78.040 85.805 C 75.989 88.295,76.064 88.318,73.547 84.473 C 72.362 82.662,71.276 81.030,71.133 80.844 C 70.485 80.001,68.872 77.447,68.867 77.256 C 68.861 77.038,74.464 76.144,78.987 75.642 C 82.575 75.244,87.089 75.216,87.089 75.592 M70.433 83.093 C 72.446 86.094,74.219 88.761,74.374 89.021 C 74.575 89.358,73.786 90.373,71.595 92.594 L 68.535 95.696 67.432 95.065 C 64.802 93.559,59.373 90.972,56.310 89.765 C 53.733 88.749,53.821 88.948,54.008 84.538 C 54.206 79.913,53.724 80.407,59.241 79.169 C 61.468 78.670,63.671 78.137,64.135 77.985 C 66.478 77.219,66.508 77.243,70.433 83.093 M52.248 84.304 C 52.351 88.020,52.121 88.406,50.375 87.439 C 50.053 87.261,48.574 86.572,47.089 85.909 C 42.509 83.865,41.194 83.215,41.187 82.994 C 41.179 82.709,43.944 82.025,45.104 82.025 C 45.612 82.025,46.494 81.884,47.065 81.711 C 52.139 80.173,52.133 80.170,52.248 84.304 M169.845 84.659 C 170.441 89.316,170.547 89.753,174.051 101.941 C 175.204 105.953,176.191 108.977,177.187 111.553 C 178.464 114.856,178.446 115.567,177.117 114.415 C 176.892 114.220,175.703 113.347,174.474 112.474 C 165.805 106.317,165.649 106.103,166.279 101.261 C 166.533 99.314,166.910 96.278,167.118 94.515 C 168.320 84.317,168.475 83.272,168.869 82.777 C 169.374 82.141,169.571 82.522,169.845 84.659 M56.628 91.855 C 57.508 92.249,59.909 93.389,61.965 94.387 C 64.020 95.386,65.862 96.203,66.059 96.203 C 67.781 96.203,67.219 97.303,63.592 101.026 C 60.063 104.650,57.512 107.522,55.696 109.917 C 55.232 110.529,54.684 111.036,54.478 111.043 C 53.938 111.060,53.572 102.118,53.866 96.083 C 54.135 90.547,54.038 90.696,56.628 91.855 M76.773 92.236 C 77.242 92.840,78.355 94.321,79.245 95.527 C 80.135 96.734,81.664 98.765,82.642 100.041 C 84.953 103.056,84.864 103.074,79.587 100.666 C 72.477 97.422,71.225 96.878,70.876 96.878 C 70.150 96.878,70.656 96.036,72.820 93.647 C 75.400 90.798,75.600 90.727,76.773 92.236 M239.347 107.101 L 241.142 113.442 240.247 114.337 C 239.571 115.013,239.316 115.113,239.206 114.747 C 239.055 114.245,237.888 107.818,237.248 103.966 C 237.048 102.759,236.750 101.332,236.585 100.794 C 236.421 100.255,236.295 99.268,236.305 98.599 L 236.322 97.384 236.937 99.072 C 237.274 100.000,238.359 103.613,239.347 107.101 M166.751 107.667 C 166.751 107.805,167.659 108.556,168.768 109.334 C 169.877 110.112,170.978 110.931,171.215 111.155 C 171.452 111.378,172.253 112.009,172.996 112.556 C 173.738 113.103,174.422 113.647,174.515 113.765 C 174.608 113.882,175.853 114.763,177.283 115.723 C 179.946 117.509,180.247 117.823,181.951 120.591 C 183.038 122.356,183.966 122.706,183.966 121.350 C 183.966 120.303,184.257 120.299,186.256 121.319 C 188.733 122.583,189.975 124.037,189.255 124.832 C 188.631 125.521,188.814 125.907,189.765 125.907 C 190.108 125.907,190.653 126.039,190.975 126.200 C 192.010 126.718,194.905 127.679,195.949 127.851 L 196.962 128.019 196.184 127.175 C 195.032 125.925,195.933 125.770,198.759 126.731 C 201.435 127.641,202.620 127.405,201.228 126.238 C 200.790 125.870,200.562 125.562,200.722 125.553 C 200.882 125.544,203.139 125.374,205.738 125.175 C 208.338 124.977,211.110 124.825,211.899 124.839 C 213.510 124.866,213.711 124.314,212.986 121.854 C 211.630 117.257,209.931 107.594,210.396 107.129 C 210.526 106.998,210.633 107.089,210.633 107.331 C 210.633 109.451,215.427 119.935,218.009 123.460 C 220.080 126.288,220.966 126.658,220.630 124.557 C 220.388 123.042,220.776 122.803,221.591 123.966 C 222.087 124.673,222.341 124.720,225.239 124.639 L 228.354 124.551 227.381 125.421 C 225.776 126.854,226.748 127.166,229.047 125.955 C 230.921 124.969,231.118 124.936,234.232 125.102 C 236.012 125.197,238.152 125.147,238.987 124.989 L 240.506 124.703 240.475 123.027 C 240.457 122.105,240.270 120.446,240.059 119.340 C 239.738 117.659,239.758 117.204,240.183 116.555 C 240.897 115.466,241.908 115.546,242.112 116.709 C 242.355 118.094,244.760 126.320,245.129 127.026 C 245.753 128.224,246.414 127.031,246.414 124.704 C 246.414 121.879,246.813 121.766,247.720 124.336 C 248.130 125.497,248.764 126.938,249.129 127.539 L 249.794 128.632 252.829 128.402 C 254.557 128.272,255.867 128.303,255.869 128.475 C 255.880 129.186,254.709 134.030,254.002 136.203 C 253.579 137.502,253.050 139.249,252.826 140.084 C 252.602 140.920,251.897 143.177,251.258 145.101 C 249.989 148.924,249.090 153.086,248.294 158.819 C 246.694 170.357,242.459 177.268,232.340 184.856 C 229.151 187.248,223.796 190.717,223.295 190.717 C 223.214 190.717,221.748 191.558,220.036 192.585 C 211.737 197.564,206.839 199.433,204.488 198.516 C 204.062 198.350,203.030 198.028,202.194 197.802 C 201.359 197.575,200.295 197.272,199.831 197.127 C 199.367 196.982,197.848 196.523,196.456 196.108 C 190.938 194.460,189.473 193.948,184.135 191.795 C 177.906 189.284,173.101 186.635,169.789 183.887 C 167.152 181.698,164.787 179.163,164.579 178.300 C 164.457 177.796,164.224 176.852,164.061 176.203 C 163.054 172.195,162.677 170.531,161.920 166.751 C 160.647 160.395,158.984 149.222,158.991 147.075 C 158.995 146.037,159.034 146.069,159.919 147.830 C 160.428 148.840,161.034 149.727,161.266 149.799 C 161.785 149.960,161.827 148.798,161.321 148.291 C 160.278 147.248,160.538 142.679,161.730 141.121 C 163.426 138.902,163.541 139.010,163.577 142.869 C 163.628 148.212,165.598 152.436,168.905 154.293 C 169.670 154.722,170.810 155.422,171.440 155.849 C 172.069 156.275,172.944 156.624,173.385 156.624 C 173.826 156.624,174.497 156.814,174.876 157.046 C 175.457 157.402,175.617 157.376,175.900 156.878 C 176.321 156.138,177.076 156.113,177.351 156.830 C 177.519 157.266,177.810 157.321,178.822 157.109 C 179.516 156.963,180.486 156.863,180.977 156.886 C 181.694 156.921,181.837 156.804,181.703 156.293 C 181.601 155.904,181.935 155.155,182.561 154.368 C 186.093 149.931,187.363 141.623,185.224 136.949 C 184.675 135.750,184.494 135.014,184.729 134.935 C 185.609 134.642,191.634 135.797,195.033 136.910 C 197.725 137.792,198.442 136.755,196.456 134.852 C 195.252 133.699,195.157 132.594,196.203 131.896 C 198.957 130.055,190.309 127.708,181.948 128.027 C 174.290 128.319,172.176 128.906,165.550 132.580 C 164.439 133.195,160.344 137.696,159.732 138.973 C 158.564 141.412,158.135 140.747,157.835 136.034 C 157.734 134.456,157.555 132.610,157.437 131.932 L 157.222 130.700 159.688 129.485 C 161.044 128.817,162.618 128.268,163.186 128.265 C 165.157 128.255,165.103 128.537,165.198 117.748 C 165.247 112.277,165.393 107.628,165.523 107.417 C 165.768 107.020,166.751 107.220,166.751 107.667 M181.913 113.080 C 182.058 113.080,182.457 113.726,182.802 114.515 C 183.146 115.304,183.863 116.600,184.396 117.396 C 184.929 118.191,185.313 118.997,185.250 119.186 C 185.033 119.839,182.684 117.653,182.317 116.456 C 181.673 114.355,181.269 112.586,181.314 112.068 C 181.338 111.789,181.424 111.903,181.504 112.321 C 181.585 112.738,181.769 113.080,181.913 113.080 M169.490 137.067 C 169.858 137.264,170.302 137.802,170.478 138.264 C 170.679 138.793,171.015 139.066,171.390 139.003 C 171.787 138.936,172.019 139.154,172.091 139.664 C 172.217 140.551,171.361 141.026,170.670 140.452 C 170.309 140.153,169.950 140.329,169.020 141.259 C 166.846 143.432,165.091 141.618,166.580 138.738 C 167.412 137.129,168.471 136.521,169.490 137.067 M232.782 138.019 C 231.008 138.461,230.271 138.833,229.662 139.594 C 228.595 140.927,228.581 141.815,229.642 140.818 C 230.072 140.415,230.649 140.084,230.925 140.084 C 231.201 140.084,231.570 139.952,231.747 139.791 C 231.923 139.630,232.827 139.223,233.755 138.886 C 237.732 137.443,237.157 136.931,232.782 138.019 M243.207 141.113 C 242.278 141.257,240.472 141.389,239.193 141.405 C 233.910 141.472,229.815 143.793,226.723 148.473 C 224.692 151.547,224.786 151.631,228.341 149.919 C 232.438 147.944,237.956 146.955,244.008 147.109 C 247.159 147.189,247.171 147.186,246.934 146.422 C 246.350 144.535,246.342 144.141,246.881 143.934 C 247.205 143.810,247.426 143.338,247.426 142.769 C 247.426 142.242,247.594 141.708,247.800 141.581 C 248.953 140.869,246.427 140.611,243.207 141.113 M92.504 151.837 C 92.047 151.990,92.033 158.199,92.489 158.481 C 93.416 159.054,92.577 162.025,91.489 162.025 C 91.010 162.025,89.433 163.025,88.774 163.746 C 88.352 164.207,88.194 164.225,87.846 163.853 C 87.341 163.313,87.268 158.987,87.764 158.987 C 87.949 158.987,88.101 158.320,88.101 157.504 C 88.101 156.498,88.264 155.959,88.608 155.827 C 88.886 155.720,89.114 155.257,89.114 154.798 C 89.114 154.339,89.266 153.870,89.451 153.755 C 89.637 153.641,89.789 153.100,89.789 152.554 C 89.789 152.008,89.941 151.561,90.127 151.561 C 90.312 151.561,90.464 151.105,90.464 150.549 C 90.464 149.992,90.616 149.536,90.802 149.536 C 90.987 149.536,91.139 149.156,91.139 148.692 C 91.139 148.228,91.267 147.848,91.423 147.848 C 91.578 147.848,91.920 147.430,92.182 146.920 C 92.632 146.042,92.664 146.149,92.758 148.856 C 92.819 150.633,92.723 151.765,92.504 151.837 M181.670 147.050 C 184.480 148.998,181.390 155.437,177.553 155.627 C 173.475 155.829,173.262 155.763,171.112 153.614 C 168.697 151.198,168.516 150.175,170.181 148.345 C 171.480 146.918,171.635 146.908,172.710 148.186 C 174.271 150.040,177.614 149.469,178.560 147.186 C 179.094 145.898,179.952 145.860,181.670 147.050 M218.966 158.868 C 218.632 159.202,218.680 160.602,219.033 160.820 C 219.466 161.088,220.160 160.134,220.028 159.453 C 219.905 158.818,219.332 158.502,218.966 158.868 M292.321 164.369 C 292.321 165.074,292.398 165.279,293.445 167.369 C 293.755 167.988,294.008 168.709,294.008 168.973 C 294.008 169.236,294.160 169.451,294.346 169.451 C 294.532 169.451,294.684 170.287,294.684 171.308 C 294.684 172.329,294.835 173.165,295.021 173.165 C 295.207 173.165,295.359 173.611,295.359 174.157 C 295.359 174.703,295.511 175.244,295.696 175.359 C 295.882 175.473,296.034 176.698,296.034 178.079 C 296.034 179.460,296.158 180.591,296.309 180.591 C 296.741 180.591,296.735 185.702,296.301 186.903 C 296.000 187.734,296.006 188.194,296.326 188.895 C 296.615 189.531,296.634 189.914,296.387 190.161 C 296.193 190.356,296.034 191.007,296.034 191.609 C 296.034 192.210,295.882 192.797,295.696 192.911 C 295.511 193.026,295.359 193.871,295.359 194.788 C 295.359 195.705,295.207 196.456,295.021 196.456 C 294.835 196.456,294.684 196.902,294.684 197.448 C 294.684 197.994,294.532 198.535,294.346 198.650 C 294.160 198.765,294.008 199.153,294.008 199.514 C 294.008 199.874,293.868 200.169,293.696 200.169 C 293.356 200.169,292.321 202.059,292.321 202.678 C 292.321 202.887,292.017 203.277,291.646 203.544 C 291.274 203.812,290.970 204.301,290.970 204.631 C 290.970 204.962,290.819 205.232,290.633 205.232 C 290.447 205.232,290.295 205.460,290.295 205.738 C 290.295 206.017,290.154 206.245,289.981 206.245 C 289.807 206.245,289.569 206.549,289.451 206.920 C 288.851 208.813,288.608 207.069,288.608 200.864 C 288.608 196.740,288.477 194.052,288.270 193.924 C 288.084 193.809,287.932 192.366,287.932 190.717 C 287.932 189.068,287.781 187.625,287.595 187.511 C 286.693 186.953,287.415 175.527,288.352 175.527 C 288.493 175.527,288.608 174.996,288.608 174.346 C 288.608 173.696,288.759 173.165,288.945 173.165 C 289.131 173.165,289.283 172.646,289.283 172.011 C 289.283 171.377,289.454 170.801,289.663 170.731 C 289.872 170.661,290.120 169.810,290.213 168.839 C 290.306 167.869,290.515 166.993,290.677 166.893 C 290.838 166.793,290.970 165.910,290.970 164.931 C 290.970 163.952,291.064 163.056,291.179 162.942 C 291.519 162.602,292.321 163.605,292.321 164.369 M207.257 171.469 C 203.164 171.680,203.004 171.717,200.338 173.080 C 193.602 176.525,194.779 186.922,202.196 189.504 C 206.486 190.998,210.321 189.606,214.620 184.996 C 216.437 183.048,219.255 176.466,219.007 174.751 C 218.679 172.487,213.822 171.130,207.257 171.469 M214.550 173.518 C 215.458 173.860,216.112 177.024,215.734 179.241 C 215.178 182.492,212.000 186.565,208.990 187.886 C 208.315 188.181,207.445 188.573,207.055 188.756 C 201.185 191.514,194.767 181.793,198.617 175.975 C 199.544 174.574,199.749 174.426,201.688 173.758 C 203.805 173.028,212.804 172.860,214.550 173.518 M171.253 186.625 C 176.376 190.114,180.440 192.166,186.329 194.238 C 188.278 194.924,190.633 195.774,191.561 196.126 C 192.489 196.478,194.312 197.085,195.612 197.476 C 200.270 198.878,200.153 198.604,197.461 201.810 C 194.862 204.906,192.735 208.382,192.493 209.929 C 192.234 211.583,193.069 210.851,194.937 207.786 C 196.414 205.363,196.965 205.086,197.497 206.498 C 197.689 207.008,198.438 208.623,199.163 210.085 C 200.777 213.344,200.250 215.194,196.490 219.461 C 195.728 220.325,195.105 221.180,195.105 221.361 C 195.105 223.239,193.152 222.356,187.854 218.081 C 184.632 215.482,175.865 205.739,175.865 204.758 C 175.865 204.622,175.498 204.028,175.050 203.437 C 173.858 201.864,171.065 196.910,170.163 194.768 C 168.900 191.768,168.393 190.597,168.000 189.772 C 167.405 188.519,167.868 184.979,168.628 184.979 C 168.742 184.979,169.923 185.720,171.253 186.625 M155.639 198.157 C 157.702 199.210,157.954 200.954,157.444 210.691 C 156.920 220.694,157.907 227.678,160.632 233.249 L 162.530 237.131 162.451 241.606 C 162.386 245.212,162.214 246.590,161.565 248.695 C 161.121 250.132,160.578 252.371,160.359 253.671 C 159.135 260.910,158.549 262.471,157.722 260.690 C 157.152 259.463,157.183 259.138,158.011 257.735 C 158.545 256.831,158.667 256.233,158.501 255.344 C 158.312 254.341,158.436 253.967,159.308 252.910 C 160.995 250.862,160.411 248.205,157.805 246.076 C 157.464 245.797,156.057 244.155,154.679 242.427 C 151.458 238.386,148.473 236.202,147.500 237.175 C 147.079 237.596,147.472 238.032,149.030 238.872 C 149.938 239.362,151.044 240.533,152.412 242.454 C 153.530 244.024,155.315 246.263,156.379 247.430 C 158.342 249.585,158.674 250.508,157.963 251.837 C 157.461 252.775,156.968 252.649,155.443 251.192 C 153.706 249.532,152.896 249.114,151.415 249.114 C 149.809 249.114,149.771 250.013,151.365 250.312 C 152.708 250.564,156.962 255.001,156.962 256.150 C 156.962 256.522,156.354 257.421,155.612 258.149 C 154.143 259.589,153.861 260.591,154.925 260.591 C 156.440 260.591,157.138 264.902,156.029 267.408 C 155.232 269.210,153.321 271.421,151.690 272.430 C 150.779 272.993,150.553 273.336,150.625 274.041 C 150.712 274.885,150.643 274.931,149.424 274.834 C 148.713 274.778,147.422 274.960,146.555 275.238 C 141.472 276.872,138.059 275.218,138.059 271.121 C 138.059 270.292,136.206 268.380,134.637 267.589 C 130.646 265.577,130.076 264.355,131.167 260.146 C 132.039 256.782,131.680 255.577,129.293 253.847 C 125.645 251.204,125.897 247.610,130.088 242.538 C 132.917 239.113,133.071 239.049,140.680 238.098 C 147.809 237.207,146.636 236.273,139.143 236.876 C 135.113 237.200,135.191 237.227,134.902 235.372 C 134.712 234.158,134.780 233.896,135.366 233.582 C 136.938 232.741,132.282 230.563,124.523 228.508 C 120.305 227.391,117.479 223.968,119.981 223.008 C 120.235 222.910,120.550 222.344,120.680 221.749 C 121.659 217.291,129.682 214.567,134.769 216.965 C 141.805 220.283,145.822 225.260,145.345 230.067 C 145.109 232.445,145.323 232.844,146.329 231.899 L 147.055 231.217 148.464 233.119 C 149.239 234.166,149.873 235.163,149.873 235.337 C 149.873 235.510,150.025 235.558,150.211 235.443 C 150.772 235.097,150.600 234.277,149.520 232.153 C 148.550 230.244,148.513 230.029,148.861 228.352 C 149.254 226.459,148.983 222.918,148.022 217.384 C 146.393 208.002,148.312 200.165,152.743 198.110 C 154.389 197.346,154.037 197.340,155.639 198.157 M203.300 218.082 C 206.788 225.413,207.096 230.814,204.340 236.354 C 201.508 242.048,197.527 247.095,194.534 248.784 C 192.255 250.070,192.355 250.176,192.261 246.352 C 192.152 241.898,190.014 235.974,186.819 231.272 C 185.916 229.944,186.004 229.536,187.193 229.536 C 188.473 229.536,188.166 228.732,186.582 227.941 C 184.959 227.130,181.122 224.166,181.372 223.916 C 181.462 223.826,183.108 224.511,185.030 225.439 C 189.923 227.801,193.123 228.642,197.300 228.663 C 204.577 228.701,207.195 227.394,202.194 226.221 C 200.009 225.708,195.443 223.520,195.443 222.986 C 195.443 222.737,196.284 221.590,197.311 220.439 C 198.339 219.287,199.645 217.521,200.213 216.514 C 201.534 214.173,201.410 214.111,203.300 218.082 M192.236 229.536 C 192.102 229.754,192.143 230.084,192.329 230.270 C 192.554 230.495,192.748 230.475,192.911 230.211 C 193.046 229.993,193.004 229.663,192.819 229.477 C 192.594 229.252,192.400 229.272,192.236 229.536 M229.264 239.894 C 230.487 241.066,230.477 241.152,228.741 244.458 C 227.932 245.998,227.073 247.865,226.831 248.608 C 226.589 249.350,225.931 250.945,225.368 252.152 C 224.546 253.914,224.295 255.011,224.093 257.722 C 223.955 259.578,223.737 262.178,223.609 263.498 C 223.449 265.144,223.495 265.974,223.755 266.134 C 224.254 266.443,224.242 267.775,223.736 268.281 C 223.516 268.501,223.455 268.797,223.599 268.940 C 223.744 269.082,224.646 268.350,225.602 267.313 C 227.756 264.978,228.546 264.641,231.870 264.641 C 235.778 264.641,240.515 266.803,243.550 269.970 C 248.046 274.663,248.328 285.811,243.873 282.749 C 243.506 282.497,242.295 282.208,241.181 282.107 C 238.818 281.891,236.561 281.187,233.811 279.807 C 230.581 278.187,230.215 278.404,232.396 280.648 C 233.647 281.935,233.874 282.361,233.719 283.135 C 233.561 283.923,233.799 284.336,235.247 285.784 C 237.518 288.054,237.437 290.927,235.019 293.971 C 233.441 295.955,233.425 296.019,233.249 300.649 C 233.056 305.740,232.961 305.931,229.536 308.107 C 226.694 309.912,225.536 311.174,224.325 313.788 C 220.381 322.294,213.992 321.632,206.685 311.960 C 205.607 310.534,204.642 309.291,204.539 309.198 C 203.904 308.623,203.214 306.413,203.410 305.583 C 203.935 303.364,207.526 300.724,208.737 301.666 C 213.482 305.355,215.247 306.498,216.201 306.498 C 217.085 306.498,216.755 305.946,215.274 304.946 C 208.406 300.306,206.245 298.319,206.245 296.644 C 206.245 295.077,207.781 292.571,209.387 291.520 C 210.852 290.561,211.207 290.544,213.840 291.306 C 217.831 292.461,220.892 292.440,218.701 291.273 C 218.069 290.936,217.142 290.655,216.640 290.647 C 216.139 290.639,215.379 290.500,214.953 290.339 C 212.364 289.356,211.621 289.238,210.445 289.627 C 207.412 290.628,206.573 287.118,209.228 284.536 C 212.996 280.871,215.640 277.090,213.714 278.121 C 212.815 278.602,207.936 284.105,207.934 284.641 C 207.933 284.781,207.795 284.895,207.627 284.895 C 207.148 284.895,207.577 276.831,208.157 274.941 C 208.441 274.016,209.475 272.117,210.454 270.722 C 213.279 266.697,214.684 262.265,214.684 257.375 C 214.684 250.041,216.008 246.107,219.743 242.342 C 223.048 239.012,227.223 237.939,229.264 239.894 M302.785 240.318 C 302.785 240.678,302.633 241.067,302.447 241.181 C 302.249 241.304,302.105 243.363,302.099 246.180 C 302.092 249.421,301.955 251.139,301.677 251.491 C 301.191 252.106,299.031 253.165,298.261 253.165 C 297.964 253.165,297.722 253.316,297.722 253.502 C 297.722 253.688,297.190 253.840,296.540 253.840 C 295.890 253.840,295.359 253.992,295.359 254.177 C 295.359 254.363,294.637 254.515,293.755 254.515 C 291.795 254.516,290.295 255.604,290.295 257.025 C 290.295 258.032,290.979 258.903,291.770 258.903 C 292.051 258.903,292.375 259.055,292.489 259.241 C 292.604 259.426,293.107 259.583,293.606 259.589 C 294.106 259.595,294.810 259.823,295.170 260.095 C 295.530 260.368,296.100 260.591,296.436 260.591 C 296.772 260.591,297.046 260.743,297.046 260.928 C 297.046 261.114,297.502 261.266,298.059 261.266 C 298.616 261.266,299.072 261.418,299.072 261.603 C 299.072 261.789,299.338 261.941,299.662 261.941 C 299.987 261.942,300.671 262.301,301.181 262.740 L 302.110 263.538 302.110 268.984 C 302.110 272.390,302.236 274.430,302.447 274.430 C 302.633 274.430,302.785 274.745,302.785 275.130 C 302.785 276.949,305.743 277.522,306.580 275.865 C 307.323 274.395,307.982 273.313,308.439 272.816 C 308.671 272.563,308.861 272.173,308.861 271.949 C 308.861 271.725,309.165 271.322,309.536 271.055 C 309.907 270.787,310.211 270.298,310.211 269.968 C 310.211 269.637,310.327 269.367,310.468 269.367 C 310.610 269.367,310.876 269.025,311.060 268.608 C 311.411 267.808,313.996 267.650,314.751 268.381 C 314.927 268.552,315.497 268.692,316.017 268.692 C 316.537 268.692,316.962 268.844,316.962 269.030 C 316.962 269.215,317.494 269.367,318.143 269.367 C 318.793 269.367,319.325 269.519,319.325 269.705 C 319.325 269.890,319.629 270.042,320.000 270.042 C 320.371 270.042,320.675 270.194,320.675 270.380 C 320.675 270.565,321.055 270.717,321.519 270.717 C 321.983 270.717,322.363 270.859,322.363 271.032 C 322.363 271.488,323.600 271.811,324.388 271.561 C 325.064 271.347,325.459 268.017,324.808 268.017 C 324.668 268.017,324.335 267.523,324.069 266.920 C 323.521 265.676,322.917 264.979,322.387 264.979 C 322.188 264.979,322.025 264.704,322.025 264.367 C 322.025 264.031,321.722 263.430,321.350 263.031 C 320.979 262.633,320.675 262.073,320.675 261.786 C 320.675 261.500,320.523 261.266,320.338 261.266 C 320.152 261.266,320.000 261.031,320.000 260.743 C 320.000 260.456,319.588 259.839,319.085 259.373 C 318.506 258.837,318.304 258.439,318.535 258.292 C 318.737 258.164,319.330 257.262,319.854 256.287 C 320.379 255.312,320.930 254.515,321.079 254.515 C 321.228 254.515,321.350 254.287,321.350 254.008 C 321.350 253.730,321.502 253.502,321.688 253.502 C 321.873 253.502,322.025 253.198,322.025 252.827 C 322.025 252.456,322.166 252.152,322.338 252.152 C 323.202 252.152,324.024 248.968,323.508 247.623 C 323.276 247.017,320.000 246.834,320.000 247.426 C 320.000 247.612,319.165 247.764,318.143 247.764 C 317.122 247.764,316.287 247.916,316.287 248.101 C 316.287 248.287,315.536 248.439,314.619 248.439 C 313.702 248.439,312.866 248.576,312.762 248.745 C 312.481 249.199,310.892 248.358,310.889 247.754 C 310.887 247.470,310.582 247.019,310.211 246.751 C 309.840 246.483,309.536 246.005,309.536 245.688 C 309.536 245.372,309.156 244.814,308.692 244.448 C 308.228 244.083,307.848 243.541,307.848 243.243 C 307.848 242.944,307.696 242.700,307.511 242.700 C 307.325 242.700,307.173 242.473,307.173 242.194 C 307.173 241.916,307.058 241.688,306.918 241.688 C 306.778 241.688,306.461 241.232,306.214 240.675 C 305.648 239.396,302.785 239.098,302.785 240.318 M306.038 245.148 C 306.532 245.937,307.028 246.658,307.139 246.751 C 307.251 246.844,307.833 247.625,308.433 248.486 C 309.692 250.292,309.632 250.399,306.879 251.277 C 304.547 252.020,304.158 251.861,304.326 250.233 C 304.398 249.525,304.550 247.768,304.663 246.329 C 304.902 243.271,304.876 243.293,306.038 245.148 M321.013 249.967 C 321.013 250.066,320.206 251.323,319.221 252.762 C 318.235 254.201,317.329 255.640,317.206 255.959 C 316.817 256.974,316.161 256.585,314.515 254.358 C 312.166 251.182,312.086 251.302,317.046 250.598 C 317.835 250.486,318.625 250.259,318.802 250.092 C 319.142 249.771,321.013 249.665,321.013 249.967 M138.059 251.651 C 137.224 251.899,136.084 252.238,135.527 252.404 C 134.970 252.571,134.515 252.924,134.515 253.189 C 134.515 254.066,136.856 253.621,140.506 252.049 C 142.619 251.139,140.786 250.841,138.059 251.651 M311.347 252.661 C 311.443 252.913,312.372 254.268,313.411 255.672 C 315.576 258.600,315.612 258.238,312.782 262.019 C 310.783 264.691,310.882 264.676,307.173 262.848 L 304.304 261.435 304.207 257.920 C 304.093 253.788,303.978 253.961,307.601 252.807 C 310.461 251.896,311.045 251.874,311.347 252.661 M302.447 257.496 C 302.447 260.642,302.365 260.763,300.794 259.943 C 299.039 259.026,297.049 258.170,296.054 257.904 C 294.495 257.487,295.137 256.834,298.059 255.867 C 302.536 254.386,302.447 254.353,302.447 257.496 M316.766 260.458 C 317.059 260.571,317.300 260.816,317.300 261.002 C 317.300 261.189,318.297 262.782,319.517 264.543 C 322.040 268.188,322.045 268.362,319.590 267.421 C 318.609 267.045,316.694 266.404,315.335 265.996 C 312.532 265.155,312.556 265.283,314.658 262.337 C 316.342 259.976,316.091 260.199,316.766 260.458 M149.198 261.468 C 148.363 261.946,146.540 262.951,145.148 263.702 C 141.460 265.689,140.363 266.383,140.573 266.593 C 140.676 266.696,141.178 266.582,141.688 266.341 C 142.199 266.099,142.920 265.778,143.291 265.627 C 145.730 264.638,150.806 262.150,151.303 261.701 C 152.780 260.364,151.396 260.211,149.198 261.468 M306.756 264.641 C 307.524 265.013,308.294 265.316,308.466 265.316 C 309.785 265.316,309.557 266.391,307.640 269.213 C 304.517 273.810,304.597 273.841,304.374 267.932 C 304.204 263.434,304.218 263.415,306.756 264.641 M220.543 267.344 C 219.112 267.661,217.046 268.972,217.046 269.563 C 217.046 270.251,217.697 270.140,219.241 269.190 C 219.983 268.732,220.848 268.357,221.162 268.356 C 221.842 268.354,222.306 267.726,221.895 267.365 C 221.734 267.224,221.126 267.214,220.543 267.344 M221.302 272.264 C 221.177 272.590,221.212 272.992,221.379 273.159 C 221.779 273.559,222.129 272.646,221.788 272.093 C 221.597 271.783,221.469 271.828,221.302 272.264 M216.888 277.451 C 216.779 277.628,217.264 277.876,217.965 278.003 C 219.589 278.297,222.270 279.276,225.468 280.743 C 227.138 281.509,228.253 281.828,228.788 281.694 L 229.592 281.492 228.805 280.881 C 226.530 279.117,217.470 276.510,216.888 277.451 M206.781 291.612 C 206.486 291.938,206.245 292.392,206.245 292.620 C 206.245 292.849,206.081 292.934,205.880 292.810 C 205.473 292.558,205.748 291.062,206.331 290.360 C 206.632 289.997,206.757 290.017,207.009 290.467 C 207.222 290.847,207.151 291.203,206.781 291.612 M223.194 293.418 C 223.368 293.993,226.129 295.341,227.634 295.585 C 229.588 295.903,229.406 294.513,227.426 294.000 C 226.637 293.795,225.460 293.486,224.810 293.314 C 223.257 292.901,223.042 292.915,223.194 293.418 M218.383 307.822 C 218.834 308.665,219.711 309.536,220.108 309.536 C 220.739 309.536,220.398 308.554,219.533 307.873 C 218.419 306.997,217.929 306.975,218.383 307.822 " stroke="none" fill="#614947" fill-rule="evenodd"></path><path id="path1" d="M54.333 58.987 C 54.141 62.762,54.406 78.163,54.664 78.249 C 54.853 78.312,55.808 78.145,56.787 77.877 C 57.765 77.609,59.477 77.205,60.591 76.980 C 64.027 76.284,65.485 75.873,65.485 75.599 C 65.485 75.454,63.966 73.060,62.110 70.277 C 60.253 67.495,58.734 65.141,58.734 65.046 C 58.734 64.871,56.043 60.406,55.286 59.325 C 54.860 58.717,54.356 58.539,54.333 58.987 M78.987 75.642 C 74.464 76.144,68.861 77.038,68.867 77.256 C 68.872 77.447,70.485 80.001,71.133 80.844 C 71.276 81.030,72.362 82.662,73.547 84.473 C 76.064 88.318,75.989 88.295,78.040 85.805 C 78.911 84.747,81.304 82.088,83.356 79.895 C 85.409 77.703,87.089 75.766,87.089 75.592 C 87.089 75.216,82.575 75.244,78.987 75.642 M64.135 77.985 C 63.671 78.137,61.468 78.670,59.241 79.169 C 53.724 80.407,54.206 79.913,54.008 84.538 C 53.821 88.948,53.733 88.749,56.310 89.765 C 59.373 90.972,64.802 93.559,67.432 95.065 L 68.535 95.696 71.595 92.594 C 73.786 90.373,74.575 89.358,74.374 89.021 C 74.219 88.761,72.446 86.094,70.433 83.093 C 66.508 77.243,66.478 77.219,64.135 77.985 M49.451 81.073 C 48.709 81.251,47.635 81.538,47.065 81.711 C 46.494 81.884,45.612 82.025,45.104 82.025 C 43.944 82.025,41.179 82.709,41.187 82.994 C 41.194 83.215,42.509 83.865,47.089 85.909 C 48.574 86.572,50.053 87.261,50.375 87.439 C 52.121 88.406,52.351 88.020,52.248 84.304 C 52.140 80.417,52.147 80.425,49.451 81.073 M168.869 82.777 C 168.475 83.272,168.320 84.317,167.118 94.515 C 166.910 96.278,166.533 99.314,166.279 101.261 C 165.649 106.103,165.805 106.317,174.474 112.474 C 175.703 113.347,176.892 114.220,177.117 114.415 C 178.446 115.567,178.464 114.856,177.187 111.553 C 176.191 108.977,175.204 105.953,174.051 101.941 C 170.547 89.753,170.441 89.316,169.845 84.659 C 169.571 82.522,169.374 82.141,168.869 82.777 M53.866 96.083 C 53.572 102.118,53.938 111.060,54.478 111.043 C 54.684 111.036,55.232 110.529,55.696 109.917 C 57.512 107.522,60.063 104.650,63.592 101.026 C 67.219 97.303,67.781 96.203,66.059 96.203 C 65.862 96.203,64.020 95.386,61.965 94.387 C 53.325 90.190,54.161 90.015,53.866 96.083 M72.820 93.647 C 70.656 96.036,70.150 96.878,70.876 96.878 C 71.225 96.878,72.477 97.422,79.587 100.666 C 84.864 103.074,84.953 103.056,82.642 100.041 C 81.664 98.765,80.135 96.734,79.245 95.527 C 75.315 90.201,75.809 90.346,72.820 93.647 M236.305 98.599 C 236.295 99.268,236.421 100.255,236.585 100.794 C 236.750 101.332,237.048 102.759,237.248 103.966 C 237.888 107.818,239.055 114.245,239.206 114.747 C 239.316 115.113,239.571 115.013,240.247 114.337 L 241.142 113.442 239.347 107.101 C 238.359 103.613,237.274 100.000,236.937 99.072 L 236.322 97.384 236.305 98.599 M165.523 107.417 C 165.393 107.628,165.247 112.277,165.198 117.748 C 165.103 128.537,165.157 128.255,163.186 128.265 C 162.618 128.268,161.044 128.817,159.688 129.485 L 157.222 130.700 157.437 131.932 C 157.555 132.610,157.734 134.456,157.835 136.034 C 158.135 140.747,158.564 141.412,159.732 138.973 C 160.344 137.696,164.439 133.195,165.550 132.580 C 172.176 128.906,174.290 128.319,181.948 128.027 C 190.309 127.708,198.957 130.055,196.203 131.896 C 195.157 132.594,195.252 133.699,196.456 134.852 C 198.442 136.755,197.725 137.792,195.033 136.910 C 191.634 135.797,185.609 134.642,184.729 134.935 C 184.494 135.014,184.675 135.750,185.224 136.949 C 187.363 141.623,186.093 149.931,182.561 154.368 C 181.935 155.155,181.601 155.904,181.703 156.293 C 181.837 156.804,181.694 156.921,180.977 156.886 C 180.486 156.863,179.516 156.963,178.822 157.109 C 177.810 157.321,177.519 157.266,177.351 156.830 C 177.076 156.113,176.321 156.138,175.900 156.878 C 175.617 157.376,175.457 157.402,174.876 157.046 C 174.497 156.814,173.826 156.624,173.385 156.624 C 172.944 156.624,172.069 156.275,171.440 155.849 C 170.810 155.422,169.670 154.722,168.905 154.293 C 165.598 152.436,163.628 148.212,163.577 142.869 C 163.541 139.010,163.426 138.902,161.730 141.121 C 160.538 142.679,160.278 147.248,161.321 148.291 C 161.827 148.798,161.785 149.960,161.266 149.799 C 161.034 149.727,160.428 148.840,159.919 147.830 C 159.034 146.069,158.995 146.037,158.991 147.075 C 158.984 149.222,160.647 160.395,161.920 166.751 C 162.677 170.531,163.054 172.195,164.061 176.203 C 164.224 176.852,164.457 177.796,164.579 178.300 C 164.787 179.163,167.152 181.698,169.789 183.887 C 173.101 186.635,177.906 189.284,184.135 191.795 C 189.473 193.948,190.938 194.460,196.456 196.108 C 197.848 196.523,199.367 196.982,199.831 197.127 C 200.295 197.272,201.359 197.575,202.194 197.802 C 203.030 198.028,204.062 198.350,204.488 198.516 C 206.839 199.433,211.737 197.564,220.036 192.585 C 221.748 191.558,223.214 190.717,223.295 190.717 C 223.796 190.717,229.151 187.248,232.340 184.856 C 242.459 177.268,246.694 170.357,248.294 158.819 C 249.090 153.086,249.989 148.924,251.258 145.101 C 251.897 143.177,252.602 140.920,252.826 140.084 C 253.050 139.249,253.579 137.502,254.002 136.203 C 254.709 134.030,255.880 129.186,255.869 128.475 C 255.867 128.303,254.557 128.272,252.829 128.402 L 249.794 128.632 249.129 127.539 C 248.764 126.938,248.130 125.497,247.720 124.336 C 246.813 121.766,246.414 121.879,246.414 124.704 C 246.414 127.031,245.753 128.224,245.129 127.026 C 244.760 126.320,242.355 118.094,242.112 116.709 C 241.908 115.546,240.897 115.466,240.183 116.555 C 239.758 117.204,239.738 117.659,240.059 119.340 C 240.270 120.446,240.457 122.105,240.475 123.027 L 240.506 124.703 238.987 124.989 C 238.152 125.147,236.012 125.197,234.232 125.102 C 231.118 124.936,230.921 124.969,229.047 125.955 C 226.748 127.166,225.776 126.854,227.381 125.421 L 228.354 124.551 225.239 124.639 C 222.341 124.720,222.087 124.673,221.591 123.966 C 220.776 122.803,220.388 123.042,220.630 124.557 C 220.966 126.658,220.080 126.288,218.009 123.460 C 215.427 119.935,210.633 109.451,210.633 107.331 C 210.633 107.089,210.526 106.998,210.396 107.129 C 209.931 107.594,211.630 117.257,212.986 121.854 C 213.711 124.314,213.510 124.866,211.899 124.839 C 211.110 124.825,208.338 124.977,205.738 125.175 C 203.139 125.374,200.882 125.544,200.722 125.553 C 200.562 125.562,200.790 125.870,201.228 126.238 C 202.620 127.405,201.435 127.641,198.759 126.731 C 195.933 125.770,195.032 125.925,196.184 127.175 L 196.962 128.019 195.949 127.851 C 194.905 127.679,192.010 126.718,190.975 126.200 C 190.653 126.039,190.108 125.907,189.765 125.907 C 188.814 125.907,188.631 125.521,189.255 124.832 C 189.975 124.037,188.733 122.583,186.256 121.319 C 184.257 120.299,183.966 120.303,183.966 121.350 C 183.966 122.706,183.038 122.356,181.951 120.591 C 180.247 117.823,179.946 117.509,177.283 115.723 C 175.853 114.763,174.608 113.882,174.515 113.765 C 174.422 113.647,173.738 113.103,172.996 112.556 C 172.253 112.009,171.452 111.378,171.215 111.155 C 170.978 110.931,169.877 110.112,168.768 109.334 C 167.659 108.556,166.751 107.805,166.751 107.667 C 166.751 107.220,165.768 107.020,165.523 107.417 M181.314 112.068 C 181.269 112.586,181.673 114.355,182.317 116.456 C 182.684 117.653,185.033 119.839,185.250 119.186 C 185.313 118.997,184.929 118.191,184.396 117.396 C 183.863 116.600,183.146 115.304,182.802 114.515 C 182.457 113.726,182.058 113.080,181.913 113.080 C 181.769 113.080,181.585 112.738,181.504 112.321 C 181.424 111.903,181.338 111.789,181.314 112.068 M167.837 137.236 C 166.250 138.347,165.581 140.892,166.606 141.917 C 167.368 142.678,167.688 142.591,169.020 141.259 C 169.950 140.329,170.309 140.153,170.670 140.452 C 171.361 141.026,172.217 140.551,172.091 139.664 C 172.019 139.154,171.787 138.936,171.390 139.003 C 171.015 139.066,170.679 138.793,170.478 138.264 C 170.302 137.802,169.858 137.264,169.490 137.067 C 168.651 136.618,168.731 136.610,167.837 137.236 M236.109 137.829 C 235.743 138.073,234.684 138.549,233.755 138.886 C 232.827 139.223,231.923 139.630,231.747 139.791 C 231.570 139.952,231.201 140.084,230.925 140.084 C 230.649 140.084,230.072 140.415,229.642 140.818 C 228.581 141.815,228.595 140.927,229.662 139.594 C 230.447 138.613,233.676 137.491,235.940 137.413 C 236.741 137.385,236.748 137.402,236.109 137.829 M247.715 141.060 C 248.035 141.262,248.060 141.420,247.800 141.581 C 247.594 141.708,247.426 142.242,247.426 142.769 C 247.426 143.338,247.205 143.810,246.881 143.934 C 246.342 144.141,246.350 144.535,246.934 146.422 C 247.171 147.186,247.159 147.189,244.008 147.109 C 237.956 146.955,232.438 147.944,228.341 149.919 C 224.786 151.631,224.692 151.547,226.723 148.473 C 229.815 143.793,233.910 141.472,239.193 141.405 C 240.472 141.389,242.278 141.257,243.207 141.113 C 245.592 140.741,247.183 140.723,247.715 141.060 M178.560 147.186 C 177.614 149.469,174.271 150.040,172.710 148.186 C 171.635 146.908,171.480 146.918,170.181 148.345 C 168.516 150.175,168.697 151.198,171.112 153.614 C 173.262 155.763,173.475 155.829,177.553 155.627 C 181.390 155.437,184.480 148.998,181.670 147.050 C 179.952 145.860,179.094 145.898,178.560 147.186 M220.028 159.453 C 220.160 160.134,219.466 161.088,219.033 160.820 C 218.680 160.602,218.632 159.202,218.966 158.868 C 219.332 158.502,219.905 158.818,220.028 159.453 M215.121 172.065 C 219.137 173.336,219.553 174.217,218.094 178.351 C 216.390 183.180,215.352 184.719,211.983 187.408 C 203.312 194.330,192.366 186.180,197.027 176.272 C 197.916 174.382,199.303 173.323,202.700 171.943 C 204.678 171.140,212.439 171.215,215.121 172.065 M206.076 173.202 C 203.038 173.388,201.916 173.601,200.112 174.336 C 197.843 175.261,196.641 181.146,198.132 184.035 C 200.166 187.974,204.189 190.103,207.055 188.756 C 207.445 188.573,208.315 188.181,208.990 187.886 C 213.480 185.916,216.493 180.408,215.627 175.754 C 215.131 173.089,213.788 172.731,206.076 173.202 M168.063 185.907 C 167.578 187.160,167.551 188.827,168.000 189.772 C 168.393 190.597,168.900 191.768,170.163 194.768 C 171.065 196.910,173.858 201.864,175.050 203.437 C 175.498 204.028,175.865 204.622,175.865 204.758 C 175.865 205.739,184.632 215.482,187.854 218.081 C 193.152 222.356,195.105 223.239,195.105 221.361 C 195.105 221.180,195.728 220.325,196.490 219.461 C 200.250 215.194,200.777 213.344,199.163 210.085 C 198.438 208.623,197.689 207.008,197.497 206.498 C 196.965 205.086,196.414 205.363,194.937 207.786 C 193.069 210.851,192.234 211.583,192.493 209.929 C 192.735 208.382,194.862 204.906,197.461 201.810 C 200.153 198.604,200.270 198.878,195.612 197.476 C 194.312 197.085,192.489 196.478,191.561 196.126 C 190.633 195.774,188.278 194.924,186.329 194.238 C 180.440 192.166,176.376 190.114,171.253 186.625 C 168.417 184.694,168.523 184.718,168.063 185.907 M152.743 198.110 C 148.312 200.165,146.393 208.002,148.022 217.384 C 148.983 222.918,149.254 226.459,148.861 228.352 C 148.513 230.029,148.550 230.244,149.520 232.153 C 150.600 234.277,150.772 235.097,150.211 235.443 C 150.025 235.558,149.873 235.510,149.873 235.337 C 149.873 235.163,149.239 234.166,148.464 233.119 L 147.055 231.217 146.329 231.899 C 145.323 232.844,145.109 232.445,145.345 230.067 C 145.822 225.260,141.805 220.283,134.769 216.965 C 129.682 214.567,121.659 217.291,120.680 221.749 C 120.550 222.344,120.235 222.910,119.981 223.008 C 117.479 223.968,120.305 227.391,124.523 228.508 C 132.282 230.563,136.938 232.741,135.366 233.582 C 134.780 233.896,134.712 234.158,134.902 235.372 C 135.191 237.227,135.113 237.200,139.143 236.876 C 146.636 236.273,147.809 237.207,140.680 238.098 C 133.071 239.049,132.917 239.113,130.088 242.538 C 125.897 247.610,125.645 251.204,129.293 253.847 C 131.680 255.577,132.039 256.782,131.167 260.146 C 130.076 264.355,130.646 265.577,134.637 267.589 C 136.206 268.380,138.059 270.292,138.059 271.121 C 138.059 275.218,141.472 276.872,146.555 275.238 C 147.422 274.960,148.713 274.778,149.424 274.834 C 150.643 274.931,150.712 274.885,150.625 274.041 C 150.553 273.336,150.779 272.993,151.690 272.430 C 153.321 271.421,155.232 269.210,156.029 267.408 C 157.138 264.902,156.440 260.591,154.925 260.591 C 153.861 260.591,154.143 259.589,155.612 258.149 C 156.354 257.421,156.962 256.522,156.962 256.150 C 156.962 255.001,152.708 250.564,151.365 250.312 C 149.771 250.013,149.809 249.114,151.415 249.114 C 152.896 249.114,153.706 249.532,155.443 251.192 C 156.968 252.649,157.461 252.775,157.963 251.837 C 158.674 250.508,158.342 249.585,156.379 247.430 C 155.315 246.263,153.530 244.024,152.412 242.454 C 151.044 240.533,149.938 239.362,149.030 238.872 C 147.472 238.032,147.079 237.596,147.500 237.175 C 148.473 236.202,151.458 238.386,154.679 242.427 C 156.057 244.155,157.464 245.797,157.805 246.076 C 160.411 248.205,160.995 250.862,159.308 252.910 C 158.436 253.967,158.312 254.341,158.501 255.344 C 158.667 256.233,158.545 256.831,158.011 257.735 C 157.183 259.138,157.152 259.463,157.722 260.690 C 158.549 262.471,159.135 260.910,160.359 253.671 C 160.578 252.371,161.121 250.132,161.565 248.695 C 162.214 246.590,162.386 245.212,162.451 241.606 L 162.530 237.131 160.632 233.249 C 157.907 227.678,156.920 220.694,157.444 210.691 C 157.954 200.954,157.702 199.210,155.639 198.157 C 154.037 197.340,154.389 197.346,152.743 198.110 M200.213 216.514 C 199.645 217.521,198.339 219.287,197.311 220.439 C 196.284 221.590,195.443 222.737,195.443 222.986 C 195.443 223.520,200.009 225.708,202.194 226.221 C 207.195 227.394,204.577 228.701,197.300 228.663 C 193.123 228.642,189.923 227.801,185.030 225.439 C 183.108 224.511,181.462 223.826,181.372 223.916 C 181.122 224.166,184.959 227.130,186.582 227.941 C 188.166 228.732,188.473 229.536,187.193 229.536 C 186.004 229.536,185.916 229.944,186.819 231.272 C 190.014 235.974,192.152 241.898,192.261 246.352 C 192.355 250.176,192.255 250.070,194.534 248.784 C 197.527 247.095,201.508 242.048,204.340 236.354 C 207.096 230.814,206.788 225.413,203.300 218.082 C 201.410 214.111,201.534 214.173,200.213 216.514 M192.911 230.211 C 192.748 230.475,192.554 230.495,192.329 230.270 C 192.143 230.084,192.102 229.754,192.236 229.536 C 192.400 229.272,192.594 229.252,192.819 229.477 C 193.004 229.663,193.046 229.993,192.911 230.211 M223.629 239.578 C 218.175 241.353,214.684 248.300,214.684 257.375 C 214.684 262.265,213.279 266.697,210.454 270.722 C 209.475 272.117,208.441 274.016,208.157 274.941 C 207.577 276.831,207.148 284.895,207.627 284.895 C 207.795 284.895,207.933 284.781,207.934 284.641 C 207.936 284.105,212.815 278.602,213.714 278.121 C 215.640 277.090,212.996 280.871,209.228 284.536 C 206.573 287.118,207.412 290.628,210.445 289.627 C 211.621 289.238,212.364 289.356,214.953 290.339 C 215.379 290.500,216.139 290.639,216.640 290.647 C 217.142 290.655,218.069 290.936,218.701 291.273 C 220.892 292.440,217.831 292.461,213.840 291.306 C 211.207 290.544,210.852 290.561,209.387 291.520 C 207.781 292.571,206.245 295.077,206.245 296.644 C 206.245 298.319,208.406 300.306,215.274 304.946 C 216.755 305.946,217.085 306.498,216.201 306.498 C 215.247 306.498,213.482 305.355,208.737 301.666 C 207.526 300.724,203.935 303.364,203.410 305.583 C 203.214 306.413,203.904 308.623,204.539 309.198 C 204.642 309.291,205.607 310.534,206.685 311.960 C 213.992 321.632,220.381 322.294,224.325 313.788 C 225.536 311.174,226.694 309.912,229.536 308.107 C 232.961 305.931,233.056 305.740,233.249 300.649 C 233.425 296.019,233.441 295.955,235.019 293.971 C 237.437 290.927,237.518 288.054,235.247 285.784 C 233.799 284.336,233.561 283.923,233.719 283.135 C 233.874 282.361,233.647 281.935,232.396 280.648 C 230.215 278.404,230.581 278.187,233.811 279.807 C 236.561 281.187,238.818 281.891,241.181 282.107 C 242.295 282.208,243.506 282.497,243.873 282.749 C 248.328 285.811,248.046 274.663,243.550 269.970 C 240.515 266.803,235.778 264.641,231.870 264.641 C 228.546 264.641,227.756 264.978,225.602 267.313 C 224.646 268.350,223.744 269.082,223.599 268.940 C 223.455 268.797,223.516 268.501,223.736 268.281 C 224.242 267.775,224.254 266.443,223.755 266.134 C 223.495 265.974,223.449 265.144,223.609 263.498 C 223.737 262.178,223.955 259.578,224.093 257.722 C 224.295 255.011,224.546 253.914,225.368 252.152 C 225.931 250.945,226.589 249.350,226.831 248.608 C 227.073 247.865,227.932 245.998,228.741 244.458 C 230.477 241.152,230.487 241.066,229.264 239.894 C 228.137 238.814,226.294 238.711,223.629 239.578 M304.663 246.329 C 304.550 247.768,304.398 249.525,304.326 250.233 C 304.158 251.861,304.547 252.020,306.879 251.277 C 309.632 250.399,309.692 250.292,308.433 248.486 C 307.833 247.625,307.251 246.844,307.139 246.751 C 307.028 246.658,306.532 245.937,306.038 245.148 C 304.876 243.293,304.902 243.271,304.663 246.329 M318.802 250.092 C 318.625 250.259,317.835 250.486,317.046 250.598 C 312.086 251.302,312.166 251.182,314.515 254.358 C 316.161 256.585,316.817 256.974,317.206 255.959 C 317.329 255.640,318.235 254.201,319.221 252.762 C 320.206 251.323,321.013 250.066,321.013 249.967 C 321.013 249.665,319.142 249.771,318.802 250.092 M141.435 251.394 C 141.435 251.881,137.290 253.460,135.696 253.581 C 134.191 253.695,134.069 252.840,135.527 252.404 C 136.084 252.238,137.224 251.899,138.059 251.651 C 139.780 251.140,141.435 251.014,141.435 251.394 M307.601 252.807 C 303.978 253.961,304.093 253.788,304.207 257.920 L 304.304 261.435 307.173 262.848 C 310.882 264.676,310.783 264.691,312.782 262.019 C 315.612 258.238,315.576 258.600,313.411 255.672 C 312.372 254.268,311.443 252.913,311.347 252.661 C 311.045 251.874,310.461 251.896,307.601 252.807 M298.059 255.867 C 295.137 256.834,294.495 257.487,296.054 257.904 C 297.049 258.170,299.039 259.026,300.794 259.943 C 302.365 260.763,302.447 260.642,302.447 257.496 C 302.447 254.353,302.536 254.386,298.059 255.867 M314.658 262.337 C 312.556 265.283,312.532 265.155,315.335 265.996 C 316.694 266.404,318.609 267.045,319.590 267.421 C 322.045 268.362,322.040 268.188,319.517 264.543 C 318.297 262.782,317.300 261.189,317.300 261.002 C 317.300 260.736,316.449 260.184,316.175 260.271 C 316.144 260.281,315.461 261.211,314.658 262.337 M151.899 260.876 C 151.899 261.567,148.018 263.710,143.291 265.627 C 142.920 265.778,142.199 266.099,141.688 266.341 C 141.178 266.582,140.676 266.696,140.573 266.593 C 140.363 266.383,141.460 265.689,145.148 263.702 C 146.540 262.951,148.363 261.946,149.198 261.468 C 150.718 260.598,151.899 260.340,151.899 260.876 M304.374 267.932 C 304.597 273.841,304.517 273.810,307.640 269.213 C 309.557 266.391,309.785 265.316,308.466 265.316 C 308.294 265.316,307.524 265.013,306.756 264.641 C 304.218 263.415,304.204 263.434,304.374 267.932 M221.959 267.987 C 221.834 268.189,221.475 268.355,221.162 268.356 C 220.848 268.357,219.983 268.732,219.241 269.190 C 217.697 270.140,217.046 270.251,217.046 269.563 C 217.046 268.972,219.112 267.661,220.543 267.344 C 221.677 267.092,222.329 267.388,221.959 267.987 M221.865 272.988 C 221.757 273.269,221.559 273.339,221.379 273.159 C 221.212 272.992,221.177 272.590,221.302 272.264 C 221.469 271.828,221.597 271.783,221.788 272.093 C 221.931 272.324,221.965 272.726,221.865 272.988 M220.542 277.667 C 223.377 278.400,227.847 280.139,228.805 280.881 L 229.592 281.492 228.788 281.694 C 228.253 281.828,227.138 281.509,225.468 280.743 C 222.270 279.276,219.589 278.297,217.965 278.003 C 217.264 277.876,216.779 277.628,216.888 277.451 C 217.171 276.994,218.167 277.053,220.542 277.667 M206.331 290.360 C 205.748 291.062,205.473 292.558,205.880 292.810 C 206.081 292.934,206.245 292.849,206.245 292.620 C 206.245 292.392,206.486 291.938,206.781 291.612 C 207.151 291.203,207.222 290.847,207.009 290.467 C 206.757 290.017,206.632 289.997,206.331 290.360 M224.810 293.314 C 225.460 293.486,226.637 293.795,227.426 294.000 C 228.538 294.288,228.861 294.531,228.861 295.078 C 228.861 295.976,227.197 295.783,224.864 294.613 C 222.516 293.436,222.485 292.696,224.810 293.314 M219.533 307.873 C 220.398 308.554,220.739 309.536,220.108 309.536 C 219.711 309.536,218.834 308.665,218.383 307.822 C 217.929 306.975,218.419 306.997,219.533 307.873 " stroke="none" fill="#fae7ef" fill-rule="evenodd"></path></g></svg>