<svg width="289" height="327" viewBox="0 0 289 327" fill="none" xmlns="http://www.w3.org/2000/svg">
<path fill-rule="evenodd" clip-rule="evenodd" d="M137.177 0.813994C136.899 0.993994 135.447 1.14399 133.951 1.14699C132.088 1.14999 131.024 1.30799 130.575 1.64699C130.215 1.91999 129.359 2.14799 128.674 2.15399C127.989 2.15999 127.334 2.31599 127.219 2.50199C127.105 2.68799 126.412 2.83999 125.681 2.83999C124.949 2.83999 124.35 2.99199 124.35 3.17699C124.35 3.36299 124.055 3.51499 123.695 3.51499C123.335 3.51499 122.946 3.66699 122.831 3.85199C122.716 4.03799 122.34 4.18999 121.995 4.18999C121.317 4.18999 119.19 5.21099 119.006 5.62399C118.944 5.76399 118.45 5.87799 117.909 5.87799C117.367 5.87799 116.924 6.02999 116.924 6.21499C116.924 6.40099 116.629 6.55299 116.269 6.55299C115.909 6.55299 115.52 6.70499 115.405 6.88999C115.29 7.07599 114.902 7.22799 114.541 7.22799C114.181 7.22799 113.886 7.37999 113.886 7.56499C113.886 7.75099 113.582 7.90299 113.211 7.90299C112.836 7.90299 112.536 8.12799 112.536 8.40899C112.536 8.72399 112.217 8.91599 111.692 8.91599C111.228 8.91599 110.848 9.06799 110.848 9.25299C110.848 9.43899 110.544 9.59099 110.173 9.59099C109.802 9.59099 109.498 9.74299 109.498 9.92799C109.498 10.114 109.194 10.266 108.823 10.266C108.451 10.266 108.148 10.418 108.148 10.603C108.148 10.789 107.92 10.941 107.641 10.941C107.363 10.941 107.135 11.093 107.135 11.278C107.135 11.464 106.831 11.616 106.46 11.616C106.085 11.616 105.785 11.841 105.785 12.122C105.785 12.424 105.474 12.629 105.015 12.629C104.592 12.629 104.027 12.932 103.759 13.304C103.492 13.675 103.003 13.979 102.672 13.979C102.342 13.979 102.072 14.098 102.072 14.244C102.072 14.389 101.578 14.798 100.975 15.151C100.371 15.504 99.475 16.221 98.983 16.743C98.491 17.265 97.874 17.692 97.612 17.692C97.072 17.692 96.142 18.501 95.156 19.827C94.787 20.324 94.332 20.733 94.144 20.737C93.956 20.741 93.346 21.293 92.789 21.963C92.232 22.634 91.495 23.428 91.152 23.728C89.342 25.31 88.569 26.093 88.56 26.351C88.555 26.508 87.872 27.231 87.041 27.958C86.211 28.684 85.528 29.52 85.522 29.814C85.517 30.109 84.834 30.945 84.003 31.671C83.173 32.397 82.494 33.237 82.494 33.537C82.494 33.837 82.19 34.302 81.819 34.57C81.447 34.837 81.143 35.326 81.143 35.657C81.143 35.987 80.992 36.257 80.806 36.257C80.62 36.257 80.468 36.469 80.468 36.728C80.468 36.986 80.241 37.285 79.962 37.392C79.684 37.499 79.456 37.819 79.456 38.103C79.456 38.388 79.304 38.62 79.118 38.62C78.932 38.62 78.781 38.924 78.781 39.295C78.781 39.667 78.629 39.97 78.443 39.97C78.257 39.97 78.105 40.198 78.105 40.477C78.105 40.755 77.954 40.983 77.768 40.983C77.582 40.983 77.43 41.287 77.43 41.658C77.43 42.03 77.278 42.333 77.093 42.333C76.907 42.333 76.755 42.621 76.755 42.972C76.755 43.324 76.527 43.699 76.249 43.806C75.97 43.912 75.743 44.308 75.743 44.686C75.743 45.063 75.591 45.371 75.405 45.371C75.219 45.371 75.068 45.675 75.068 46.046C75.068 46.418 74.916 46.722 74.73 46.722C74.544 46.722 74.392 47.101 74.392 47.565C74.392 48.03 74.241 48.409 74.055 48.409C73.869 48.409 73.717 48.713 73.717 49.084C73.717 49.456 73.565 49.759 73.38 49.759C73.194 49.759 73.042 50.047 73.042 50.398C73.042 50.75 72.846 51.113 72.607 51.204C72.368 51.296 71.958 52.158 71.696 53.118C71.435 54.079 71.099 54.941 70.95 55.033C70.801 55.125 70.679 55.647 70.679 56.193C70.679 56.739 70.527 57.186 70.342 57.186C70.156 57.186 70.004 57.565 70.004 58.03C70.004 58.494 69.889 58.873 69.749 58.873C69.41 58.873 68.633 61.09 68.418 62.671C68.323 63.367 68.11 63.937 67.943 63.937C67.777 63.937 67.641 64.468 67.641 65.118C67.641 65.768 67.489 66.3 67.304 66.3C67.118 66.3 66.966 66.746 66.966 67.292C66.966 67.838 66.814 68.379 66.629 68.494C66.443 68.608 66.286 69.187 66.28 69.779C66.274 70.372 66.047 71.151 65.774 71.512C65.501 71.872 65.278 72.518 65.278 72.946C65.278 73.375 65.127 73.726 64.941 73.726C64.755 73.726 64.603 74.172 64.603 74.718C64.603 75.264 64.451 75.805 64.266 75.92C64.08 76.035 63.928 76.727 63.928 77.459C63.928 78.19 63.776 78.789 63.591 78.789C63.405 78.789 63.253 79.473 63.253 80.308C63.253 81.143 63.101 81.827 62.916 81.827C62.73 81.827 62.573 82.321 62.567 82.924C62.561 83.527 62.334 84.316 62.061 84.676C61.788 85.037 61.565 85.758 61.565 86.28C61.565 86.801 61.414 87.228 61.228 87.228C61.042 87.228 60.89 87.826 60.89 88.558C60.89 89.29 60.738 89.982 60.553 90.097C60.367 90.212 60.215 91.056 60.215 91.974C60.215 92.891 60.063 93.641 59.878 93.641C59.692 93.641 59.54 94.392 59.54 95.309C59.54 96.227 59.388 97.071 59.203 97.186C59.017 97.3 58.86 98.183 58.854 99.147C58.848 100.149 58.631 101.179 58.348 101.554C58.075 101.914 57.852 102.864 57.852 103.664C57.852 104.464 57.7 105.118 57.515 105.118C57.329 105.118 57.177 105.494 57.177 105.953C57.177 106.412 56.791 107.437 56.319 108.231C55.846 109.025 55.373 109.941 55.266 110.266C55.16 110.591 54.9 110.857 54.689 110.857C54.477 110.857 54.089 111.35 53.825 111.954C53.562 112.557 53.069 113.296 52.73 113.597C52.391 113.897 52.114 114.325 52.114 114.547C52.114 114.77 51.582 115.454 50.932 116.067C50.283 116.68 49.751 117.315 49.75 117.479C49.75 117.642 49.294 118.308 48.738 118.958C48.182 119.608 47.727 120.253 47.727 120.392C47.726 120.532 47.569 120.646 47.377 120.646C47.008 120.646 44.688 122.841 44.688 123.19C44.688 123.446 43.788 124.359 43.536 124.359C43.434 124.359 42.636 125.042 41.764 125.878C40.892 126.713 40.034 127.397 39.857 127.397C39.68 127.397 39.289 127.663 38.989 127.99C38.689 128.316 38.025 128.797 37.515 129.059C37.004 129.322 36.586 129.662 36.586 129.817C36.586 129.971 36.278 130.097 35.901 130.097C35.524 130.097 35.128 130.325 35.021 130.603C34.914 130.882 34.609 131.11 34.342 131.11C34.076 131.11 33.532 131.414 33.133 131.785C32.735 132.156 32.133 132.46 31.797 132.46C31.461 132.46 31.186 132.575 31.186 132.715C31.186 132.855 30.692 133.169 30.089 133.412C29.485 133.655 28.764 133.997 28.485 134.172C28.207 134.346 27.751 134.576 27.473 134.681C27.194 134.786 26.702 135.013 26.38 135.185C26.058 135.357 25.336 135.498 24.777 135.498C24.217 135.498 23.759 135.65 23.759 135.835C23.759 136.021 23.304 136.173 22.747 136.173C22.19 136.173 21.734 136.325 21.734 136.511C21.734 136.696 21.203 136.848 20.553 136.848C19.903 136.848 19.371 136.971 19.371 137.121C19.371 137.271 18.726 137.537 17.937 137.712C16.334 138.067 15.729 139.667 16.794 140.732C17.365 141.303 18.359 141.409 18.359 140.899C18.359 140.713 19.194 140.561 20.215 140.561C21.236 140.561 22.072 140.409 22.072 140.224C22.072 140.038 22.605 139.886 23.258 139.886C23.91 139.886 24.708 139.751 25.03 139.586C27.359 138.396 29.429 137.523 29.925 137.523C30.247 137.523 30.511 137.371 30.511 137.186C30.511 137 30.814 136.848 31.186 136.848C31.557 136.848 31.861 136.696 31.861 136.511C31.861 136.325 32.165 136.173 32.536 136.173C32.907 136.173 33.211 136.052 33.211 135.903C33.211 135.755 33.722 135.449 34.346 135.223C34.97 134.998 35.919 134.436 36.455 133.974C36.992 133.513 37.62 133.136 37.852 133.135C38.084 133.135 38.274 132.983 38.274 132.797C38.274 132.612 38.502 132.46 38.781 132.46C39.059 132.46 39.287 132.308 39.287 132.122C39.287 131.937 39.522 131.785 39.809 131.785C40.097 131.785 40.684 131.405 41.114 130.941C41.544 130.477 42.068 130.097 42.279 130.097C42.49 130.097 43.816 128.958 45.227 127.565C46.638 126.173 47.864 125.034 47.952 125.034C48.19 125.034 49.076 124.103 49.076 123.852C49.076 123.454 50.118 122.588 50.335 122.805C50.453 122.923 50.37 123.199 50.15 123.419C49.931 123.639 49.751 124.092 49.751 124.426C49.751 124.76 49.599 125.034 49.414 125.034C49.228 125.034 49.076 125.338 49.076 125.709C49.076 126.08 48.924 126.384 48.738 126.384C48.553 126.384 48.401 126.764 48.401 127.228C48.401 127.692 48.287 128.073 48.148 128.074C47.808 128.077 46.713 130.028 46.713 130.631C46.713 130.894 46.561 131.11 46.376 131.11C46.19 131.11 46.038 131.414 46.038 131.785C46.038 132.156 45.886 132.46 45.7 132.46C45.515 132.46 45.363 132.755 45.363 133.115C45.363 133.475 45.211 133.864 45.025 133.979C44.84 134.094 44.688 134.47 44.688 134.815C44.688 135.494 43.667 137.621 43.253 137.805C43.114 137.866 43 138.36 43 138.902C43 139.443 42.848 139.886 42.662 139.886C42.477 139.886 42.325 140.418 42.325 141.068C42.325 141.717 42.173 142.249 41.987 142.249C41.802 142.249 41.65 142.932 41.65 143.768C41.65 144.603 41.498 145.287 41.312 145.287C41.105 145.287 40.975 146.975 40.975 149.675C40.975 152.376 41.105 154.063 41.312 154.063C41.498 154.063 41.65 154.304 41.65 154.598C41.65 155.364 43.807 157.352 45.376 158.031C46.677 158.595 47.061 159.209 46.376 159.633C46.19 159.748 46.038 160.355 46.038 160.983C46.038 161.611 45.886 162.219 45.7 162.333C45.515 162.448 45.363 163.065 45.363 163.703C45.363 164.342 45.211 164.865 45.025 164.865C44.84 164.865 44.688 165.531 44.688 166.345C44.688 167.16 44.461 168.261 44.184 168.793C43.906 169.324 43.678 170.244 43.677 170.837C43.676 171.429 43.523 172.008 43.338 172.122C43.152 172.237 43 172.704 43 173.16C43 174.386 42.417 175.231 39.709 177.934C38.363 179.277 37.262 180.532 37.262 180.722C37.262 180.912 37.144 181.068 37.001 181.068C36.857 181.068 36.461 181.637 36.12 182.333C35.778 183.03 35.364 183.863 35.199 184.185C34.782 184.999 34.815 193.128 35.236 193.388C35.422 193.503 35.574 194.186 35.574 194.907C35.574 195.628 35.726 196.311 35.911 196.426C36.097 196.541 36.249 197.139 36.249 197.755C36.249 198.371 36.477 199.064 36.755 199.295C37.034 199.526 37.262 200.153 37.262 200.687C37.262 201.221 37.414 201.658 37.599 201.658C37.785 201.658 37.937 202.114 37.937 202.671C37.937 203.228 38.089 203.684 38.274 203.684C38.46 203.684 38.612 204.063 38.612 204.527C38.612 204.992 38.764 205.371 38.949 205.371C39.135 205.371 39.287 205.666 39.287 206.026C39.287 206.387 39.427 206.768 39.599 206.874C39.77 206.98 40.01 207.521 40.132 208.076C40.254 208.63 40.493 209.084 40.664 209.084C40.835 209.084 40.975 209.379 40.975 209.74C40.975 210.1 41.127 210.489 41.312 210.603C41.498 210.718 41.65 211.107 41.65 211.467C41.65 211.828 41.802 212.122 41.987 212.122C42.173 212.122 42.325 212.426 42.325 212.797C42.325 213.169 42.453 213.473 42.609 213.473C42.766 213.473 43.18 214.004 43.53 214.654C43.88 215.304 44.284 215.835 44.427 215.835C44.883 215.835 44.708 218.421 44.184 219.426C43.906 219.957 43.678 220.877 43.677 221.47C43.676 222.062 43.523 222.641 43.338 222.755C43.152 222.87 43 223.554 43 224.274C43 224.995 42.848 225.679 42.662 225.793C42.477 225.908 42.325 226.819 42.325 227.819C42.325 228.818 42.173 229.729 41.987 229.844C41.802 229.959 41.65 230.946 41.65 232.038C41.65 233.13 41.498 234.117 41.312 234.232C41.127 234.347 40.975 235.482 40.975 236.756C40.975 238.237 40.831 239.118 40.575 239.203C40.32 239.289 40.125 240.484 40.033 242.523C39.955 244.275 39.755 245.853 39.589 246.03C39.423 246.206 39.287 248.361 39.287 250.82C39.287 253.435 39.147 255.376 38.949 255.498C38.764 255.613 38.612 256.305 38.612 257.037C38.612 257.768 38.46 258.367 38.274 258.367C38.089 258.367 37.937 258.899 37.937 259.549C37.937 260.198 37.785 260.73 37.599 260.73C37.414 260.73 37.262 261.034 37.262 261.405C37.262 261.776 37.117 262.08 36.939 262.08C36.762 262.08 36.517 262.612 36.395 263.262C36.274 263.911 36.039 264.443 35.874 264.443C35.709 264.443 35.574 264.89 35.574 265.436C35.574 265.982 35.422 266.522 35.236 266.637C35.051 266.752 34.899 267.292 34.899 267.838C34.899 268.384 34.747 268.831 34.561 268.831C34.376 268.831 34.224 269.363 34.224 270.013C34.224 270.662 34.072 271.194 33.886 271.194C33.678 271.194 33.549 272.882 33.549 275.582C33.549 278.283 33.678 279.97 33.886 279.97C34.072 279.97 34.224 280.645 34.224 281.47C34.224 282.294 34.376 283.062 34.561 283.177C34.747 283.292 34.899 284.051 34.899 284.865C34.899 285.679 35.051 286.438 35.236 286.553C35.422 286.667 35.574 287.427 35.574 288.241C35.574 289.054 35.726 289.814 35.911 289.928C36.126 290.061 36.249 294.256 36.249 301.401C36.249 310.963 36.325 312.741 36.755 313.171C37.102 313.518 37.262 314.372 37.262 315.876C37.262 317.085 37.414 318.168 37.599 318.283C37.785 318.397 37.937 319.166 37.937 319.99C37.937 320.815 38.089 321.489 38.274 321.489C38.46 321.489 38.612 322.021 38.612 322.671C38.612 323.321 38.764 323.852 38.949 323.852C39.135 323.852 39.287 324.209 39.287 324.644C39.287 326.72 29.424 326.553 151.634 326.553H262.747V325.371C262.747 324.722 262.623 324.19 262.472 324.19C262.321 324.19 261.989 323.658 261.734 323.008C261.479 322.359 261.164 321.827 261.034 321.827C260.903 321.827 260.697 321.295 260.575 320.646C260.453 319.996 260.208 319.464 260.031 319.464C259.854 319.464 259.709 319.008 259.709 318.451C259.709 317.895 259.557 317.439 259.371 317.439C259.186 317.439 259.034 317.068 259.034 316.615C259.034 316.162 258.882 315.697 258.696 315.582C258.511 315.468 258.359 315.003 258.359 314.55C258.359 314.097 258.207 313.726 258.021 313.726C257.835 313.726 257.684 313.346 257.684 312.882C257.684 312.418 257.544 312.038 257.373 312.038C257.202 312.038 256.962 311.584 256.841 311.029C256.719 310.474 256.479 309.934 256.307 309.828C256.136 309.722 255.996 309.34 255.996 308.98C255.996 308.62 255.882 308.324 255.743 308.322C255.603 308.321 255.319 307.979 255.112 307.563C253.937 305.209 253.502 304.536 252.924 304.175C252.571 303.955 252.283 303.431 252.283 303.012C252.283 302.592 252.131 302.249 251.945 302.249C251.759 302.249 251.608 302.05 251.608 301.806C251.608 301.563 251.304 301.037 250.932 300.639C250.561 300.24 250.257 299.763 250.257 299.578C250.257 299.393 249.878 298.862 249.414 298.398C248.949 297.934 248.57 297.46 248.57 297.346C248.57 296.952 246.441 293.977 245.65 293.265C245.214 292.872 244.857 292.325 244.857 292.049C244.857 291.773 244.401 291.071 243.844 290.488C243.287 289.905 242.831 289.306 242.831 289.158C242.831 289.009 242.3 288.324 241.65 287.635C241 286.946 240.468 286.155 240.468 285.877C240.468 285.599 240.316 285.371 240.131 285.371C239.945 285.371 239.793 285.175 239.793 284.935C239.793 284.696 239.262 283.936 238.612 283.247C237.962 282.558 237.43 281.767 237.43 281.489C237.43 281.211 237.278 280.983 237.093 280.983C236.907 280.983 236.755 280.824 236.755 280.63C236.755 280.436 236.414 279.912 235.996 279.465C234.782 278.167 234.392 277.655 234.392 277.359C234.392 277.206 234.089 276.863 233.717 276.595C233.346 276.327 233.042 275.907 233.042 275.662C233.042 275.416 232.662 274.806 232.198 274.305C231.734 273.805 231.354 273.265 231.354 273.105C231.354 272.946 230.899 272.389 230.342 271.869C229.785 271.349 229.324 270.718 229.318 270.468C229.304 269.85 228.5 268.831 228.026 268.831C227.814 268.831 227.641 268.527 227.641 268.156C227.641 267.785 227.489 267.481 227.304 267.481C227.118 267.481 226.966 267.253 226.966 266.975C226.966 266.696 226.84 266.468 226.686 266.468C226.531 266.468 226.19 266.051 225.927 265.54C225.664 265.03 225.357 264.536 225.246 264.443C224.824 264.092 223.253 261.022 223.253 260.549C223.253 260.277 223.101 260.055 222.916 260.055C222.73 260.055 222.578 259.523 222.578 258.873C222.578 258.224 222.426 257.692 222.241 257.692C222.055 257.692 221.903 257.245 221.903 256.699C221.903 256.153 221.751 255.613 221.565 255.498C221.38 255.383 221.228 254.785 221.228 254.169C221.228 253.553 221 252.86 220.722 252.629C220.431 252.387 220.215 251.651 220.215 250.9C220.215 250.18 220.063 249.591 219.878 249.591C219.692 249.591 219.54 248.907 219.54 248.072C219.54 247.236 219.388 246.553 219.203 246.553C219.017 246.553 218.865 245.869 218.865 245.034C218.865 244.198 218.713 243.515 218.527 243.515C218.342 243.515 218.19 243.126 218.19 242.65C218.19 241.504 217.18 238.451 216.801 238.451C216.637 238.451 216.502 237.92 216.502 237.27C216.502 236.62 216.35 236.089 216.165 236.089C215.979 236.089 215.827 235.794 215.827 235.433C215.827 235.073 215.675 234.684 215.489 234.57C215.304 234.455 215.152 234.066 215.152 233.706C215.152 233.345 215 233.051 214.814 233.051C214.629 233.051 214.477 232.747 214.477 232.376C214.477 232.004 214.325 231.7 214.139 231.7C213.954 231.7 213.802 231.496 213.802 231.247C213.802 230.997 213.422 230.351 212.958 229.812C212.494 229.273 212.115 228.675 212.114 228.484C212.114 228.293 211.81 227.917 211.439 227.65C210.652 227.083 210.545 226.3 211.254 226.3C211.885 226.3 218.19 219.986 218.19 219.353C218.19 219.089 218.342 218.873 218.527 218.873C218.713 218.873 218.865 218.579 218.865 218.218C218.865 217.858 219.017 217.469 219.203 217.354C219.388 217.24 219.54 216.851 219.54 216.491C219.54 216.13 219.692 215.835 219.878 215.835C220.063 215.835 220.215 215.168 220.215 214.353C220.215 213.396 220.382 212.806 220.686 212.689C221.511 212.372 222.339 201.409 221.604 200.524C221.108 199.926 221.033 196.992 221.502 196.523C221.723 196.303 221.903 195.545 221.903 194.84C221.903 194.134 222.055 193.557 222.241 193.557C222.426 193.557 222.578 194.326 222.578 195.267C222.578 196.207 222.726 197.254 222.907 197.592C223.088 197.931 223.254 201.286 223.276 205.049C223.297 208.812 223.393 212.094 223.489 212.344C223.979 213.621 226.966 211.994 226.966 210.45C226.966 210.07 227.118 209.759 227.304 209.759C227.489 209.759 227.641 209.369 227.641 208.892C227.641 208.414 227.869 207.796 228.148 207.517C228.426 207.239 228.654 206.642 228.654 206.191C228.654 205.74 228.806 205.371 228.992 205.371C229.186 205.371 229.329 204.309 229.329 202.86C229.329 201.478 229.481 200.254 229.667 200.139C229.852 200.025 230.004 198.724 230.004 197.25C230.004 195.688 229.863 194.57 229.667 194.57C229.468 194.57 229.329 193.395 229.329 191.72C229.329 190.153 229.177 188.777 228.992 188.662C228.806 188.548 228.654 187.85 228.654 187.113C228.654 186.232 228.48 185.705 228.148 185.578C227.784 185.438 227.641 184.87 227.641 183.563C227.641 182.562 227.489 181.743 227.304 181.743C227.118 181.743 226.966 181.22 226.966 180.581C226.966 179.942 226.814 179.326 226.629 179.211C226.443 179.096 226.291 178.641 226.291 178.198C226.291 177.756 226.139 177.3 225.954 177.186C225.545 176.933 225.505 176.342 225.897 176.342C226.051 176.342 226.388 176.759 226.646 177.27C226.904 177.781 227.613 178.674 228.222 179.256C228.831 179.838 229.329 180.47 229.329 180.659C229.329 181.356 230.818 183.768 231.248 183.768C231.492 183.768 231.692 184.063 231.692 184.423C231.692 184.783 231.844 185.172 232.03 185.287C232.215 185.402 232.367 185.79 232.367 186.151C232.367 186.511 232.519 186.806 232.705 186.806C232.89 186.806 233.042 187.11 233.042 187.481C233.042 187.852 233.194 188.156 233.38 188.156C233.565 188.156 233.717 188.361 233.717 188.611C233.717 189.287 234.732 191.194 235.092 191.194C235.264 191.194 235.405 191.726 235.405 192.376C235.405 193.025 235.557 193.557 235.743 193.557C235.928 193.557 236.08 194.156 236.08 194.887C236.08 195.619 236.232 196.311 236.418 196.426C236.606 196.543 236.755 198.117 236.755 199.99C236.755 202.002 236.62 203.346 236.418 203.346C236.218 203.346 236.08 204.584 236.08 206.384C236.08 208.184 235.943 209.422 235.743 209.422C235.557 209.422 235.405 210.165 235.405 211.074C235.405 212.23 235.253 212.783 234.899 212.92C234.62 213.026 234.392 213.413 234.392 213.78C234.392 214.146 234.241 214.539 234.055 214.654C233.869 214.769 233.717 215.157 233.717 215.518C233.717 215.878 233.565 216.173 233.38 216.173C233.194 216.173 233.042 216.401 233.042 216.679C233.042 216.958 233.194 217.186 233.38 217.186C233.565 217.186 233.717 217.414 233.717 217.692C233.717 218.883 235.899 218.285 237.103 216.764C237.728 215.975 238.452 215.199 238.713 215.04C238.973 214.881 239.437 214.444 239.743 214.07C240.049 213.695 240.641 213.034 241.059 212.602C241.477 212.169 241.819 211.597 241.819 211.33C241.819 211.063 242.046 210.757 242.325 210.65C242.691 210.51 242.831 210.687 242.831 211.289C242.831 211.747 242.691 212.122 242.52 212.122C242.35 212.122 242.11 212.576 241.988 213.131C241.866 213.686 241.626 214.227 241.455 214.333C241.284 214.438 241.143 214.82 241.143 215.18C241.143 215.541 240.992 215.835 240.806 215.835C240.036 215.835 240.438 218.147 241.228 218.259C242.627 218.458 244.181 218.14 244.181 217.655C244.181 217.397 244.333 217.186 244.519 217.186C244.705 217.186 244.857 216.915 244.857 216.585C244.857 216.255 245.168 215.761 245.548 215.488C246.284 214.959 247.219 213.331 247.219 212.577C247.219 212.327 247.333 212.121 247.473 212.12C247.815 212.116 248.57 210.447 248.57 209.692C248.57 209.358 248.722 209.084 248.907 209.084C249.093 209.084 249.245 208.647 249.245 208.113C249.245 207.579 249.473 206.953 249.751 206.722C250.03 206.49 250.257 205.797 250.257 205.181C250.257 204.565 250.409 203.967 250.595 203.852C250.781 203.738 250.932 203.436 250.932 203.182C250.932 202.928 252.072 201.573 253.464 200.172C254.857 198.771 255.996 197.469 255.996 197.281C255.996 197.092 256.311 196.575 256.696 196.132C257.526 195.178 259.034 192.282 259.034 191.643C259.034 191.396 259.186 191.194 259.371 191.194C259.557 191.194 259.714 190.928 259.72 190.603C259.726 190.278 259.953 189.718 260.226 189.357C260.499 188.997 260.722 188.427 260.722 188.092C260.722 187.756 260.873 187.481 261.059 187.481C261.245 187.481 261.397 186.882 261.397 186.151C261.397 185.419 261.549 184.727 261.734 184.612C261.92 184.497 262.072 183.577 262.072 182.567C262.072 181.556 262.224 180.73 262.409 180.73C262.624 180.73 262.747 177.98 262.747 173.155C262.747 168.469 262.618 165.5 262.409 165.371C262.224 165.257 262.072 164.184 262.072 162.989C262.072 161.764 261.924 160.814 261.734 160.814C261.549 160.814 261.397 160.281 261.397 159.628C261.397 158.976 261.27 158.179 261.116 157.856C260.962 157.534 260.582 156.764 260.272 156.146C259.962 155.527 259.709 154.654 259.709 154.205C259.709 153.756 259.557 153.388 259.371 153.388C259.186 153.388 259.034 152.857 259.034 152.207C259.034 151.557 258.882 151.025 258.696 151.025C258.511 151.025 258.359 150.722 258.359 150.35C258.359 149.979 258.207 149.675 258.021 149.675C257.835 149.675 257.684 149.39 257.684 149.041C257.684 148.693 257.456 148.218 257.177 147.987C256.899 147.756 256.671 147.358 256.671 147.102C256.671 146.846 256.519 146.637 256.333 146.637C256.148 146.637 255.996 146.333 255.996 145.962C255.996 145.591 255.844 145.287 255.658 145.287C255.447 145.287 255.321 143.268 255.321 139.906C255.321 136.683 255.185 134.441 254.983 134.316C254.797 134.201 254.646 132.688 254.646 130.941C254.646 129.194 254.494 127.68 254.308 127.565C254.122 127.451 253.97 126.615 253.97 125.709C253.97 124.803 253.819 123.967 253.633 123.852C253.447 123.738 253.295 123.121 253.295 122.482C253.295 121.843 253.447 121.321 253.633 121.321C253.819 121.321 253.97 121.591 253.97 121.921C253.97 122.252 254.274 122.741 254.646 123.008C255.017 123.276 255.321 123.754 255.321 124.071C255.321 124.388 255.7 124.946 256.165 125.311C256.629 125.676 257.008 126.219 257.008 126.517C257.008 126.815 257.136 127.059 257.293 127.059C257.449 127.059 257.929 127.743 258.359 128.578C258.788 129.414 259.233 130.097 259.348 130.097C259.462 130.097 259.842 130.629 260.192 131.278C260.542 131.928 260.956 132.46 261.112 132.46C261.269 132.46 261.397 132.73 261.397 133.061C261.397 133.391 261.7 133.88 262.072 134.148C262.443 134.415 262.747 134.894 262.747 135.21C262.747 135.527 263.127 136.085 263.591 136.45C264.055 136.815 264.435 137.349 264.435 137.636C264.435 137.923 264.586 138.252 264.772 138.367C264.958 138.482 265.11 138.871 265.11 139.231C265.11 139.591 265.236 139.886 265.391 139.886C265.546 139.886 266.11 140.722 266.644 141.743C267.178 142.764 267.735 143.599 267.881 143.599C268.028 143.599 268.148 143.903 268.148 144.274C268.148 144.646 268.3 144.949 268.485 144.949C268.671 144.949 268.823 145.329 268.823 145.793C268.823 146.257 268.975 146.637 269.16 146.637C269.346 146.637 269.498 146.941 269.498 147.312C269.498 147.684 269.65 147.987 269.835 147.987C270.021 147.987 270.173 148.273 270.173 148.621C270.173 148.97 270.401 149.444 270.679 149.675C270.958 149.906 271.186 150.456 271.186 150.898C271.186 151.339 271.338 151.7 271.523 151.7C271.709 151.7 271.861 152.232 271.861 152.882C271.861 153.532 272.013 154.063 272.198 154.063C272.384 154.063 272.536 154.662 272.536 155.394C272.536 156.125 272.688 156.818 272.873 156.932C273.059 157.047 273.211 157.74 273.211 158.471C273.211 159.203 273.369 159.802 273.562 159.802C274.326 159.802 273.622 175.373 272.836 175.858C272.671 175.961 272.536 176.491 272.536 177.037C272.536 177.583 272.384 178.03 272.198 178.03C272.013 178.03 271.861 178.485 271.861 179.042C271.861 179.599 271.709 180.055 271.523 180.055C271.338 180.055 271.186 180.351 271.186 180.713C271.186 181.075 270.975 181.493 270.717 181.641C270.459 181.79 269.941 182.46 269.567 183.131C268.171 185.632 267.946 185.942 266.486 187.368C264.215 189.588 266.089 192.004 268.407 189.844C268.806 189.473 269.254 189.169 269.403 189.169C269.816 189.169 273.211 185.045 273.211 184.542C273.211 184.372 273.484 183.938 273.819 183.578C274.153 183.219 274.717 182.43 275.073 181.827C275.428 181.224 275.839 180.73 275.984 180.73C276.13 180.73 276.249 180.426 276.249 180.055C276.249 179.684 276.401 179.38 276.586 179.38C276.772 179.38 276.924 179.085 276.924 178.725C276.924 178.364 277.076 177.975 277.262 177.861C277.447 177.746 277.599 177.374 277.599 177.033C277.599 176.693 277.827 176.327 278.105 176.22C278.384 176.113 278.612 175.726 278.612 175.36C278.612 174.993 278.764 174.6 278.949 174.485C279.135 174.37 279.287 173.763 279.287 173.135C279.287 172.507 279.439 171.9 279.624 171.785C279.828 171.659 279.962 169.313 279.962 165.878C279.962 162.443 279.828 160.096 279.624 159.97C279.439 159.856 279.287 158.859 279.287 157.756C279.287 156.653 279.155 155.751 278.994 155.751C278.833 155.751 278.615 155.109 278.509 154.324C278.404 153.539 278.156 152.842 277.958 152.777C277.761 152.711 277.599 152.138 277.599 151.504C277.599 150.869 277.447 150.35 277.262 150.35C277.076 150.35 276.924 149.819 276.924 149.169C276.924 148.519 276.772 147.987 276.586 147.987C276.401 147.987 276.249 147.53 276.249 146.97C276.249 146.411 276.11 145.689 275.94 145.367C275.322 144.196 274.561 142.307 274.561 141.945C274.561 141.741 274.409 141.574 274.224 141.574C274.038 141.574 273.886 141.194 273.886 140.73C273.886 140.266 273.734 139.886 273.549 139.886C273.363 139.886 273.211 139.582 273.211 139.211C273.211 138.84 273.059 138.536 272.873 138.536C272.688 138.536 272.536 138.331 272.536 138.081C272.536 137.405 271.521 135.498 271.161 135.498C270.989 135.498 270.848 135.203 270.848 134.843C270.848 134.482 270.696 134.094 270.511 133.979C270.325 133.864 270.173 133.475 270.173 133.115C270.173 132.755 270.021 132.46 269.835 132.46C269.65 132.46 269.498 132.156 269.498 131.785C269.498 131.414 269.346 131.11 269.16 131.11C268.975 131.11 268.823 130.894 268.823 130.631C268.823 130.028 267.728 128.077 267.388 128.074C267.249 128.073 267.135 127.768 267.135 127.397C267.135 127.025 266.983 126.722 266.797 126.722C266.612 126.722 266.46 126.494 266.46 126.215C266.46 125.937 266.308 125.709 266.122 125.709C265.937 125.709 265.785 125.405 265.785 125.034C265.785 124.662 265.633 124.359 265.447 124.359C265.262 124.359 265.11 124.066 265.11 123.708C265.11 123.35 264.73 122.759 264.266 122.394C263.802 122.029 263.422 121.486 263.422 121.188C263.422 120.89 263.27 120.646 263.084 120.646C262.899 120.646 262.747 120.37 262.747 120.034C262.747 119.698 262.443 119.097 262.072 118.698C261.7 118.299 261.397 117.808 261.397 117.607C261.397 117.405 261.017 116.831 260.553 116.33C260.089 115.83 259.709 115.229 259.709 114.995C259.709 114.761 259.557 114.57 259.371 114.57C259.186 114.57 259.034 114.335 259.034 114.049C259.034 113.763 258.73 113.203 258.359 112.804C257.987 112.406 257.684 111.83 257.684 111.525C257.684 111.22 257.304 110.767 256.84 110.519C256.31 110.236 255.996 109.774 255.996 109.281C255.996 108.848 255.882 108.491 255.743 108.488C255.603 108.486 255.11 107.708 254.646 106.76C254.181 105.813 253.46 104.768 253.042 104.438C252.624 104.109 252.283 103.596 252.283 103.297C252.283 102.999 252.155 102.755 251.998 102.755C251.842 102.755 251.362 102.072 250.932 101.236C250.503 100.401 249.947 99.717 249.698 99.717C249.449 99.717 249.245 99.494 249.245 99.221C249.245 98.948 248.941 98.184 248.57 97.523C248.198 96.862 247.895 96.098 247.895 95.825C247.895 95.552 247.743 95.329 247.557 95.329C247.371 95.329 247.219 94.655 247.219 93.83C247.219 93.006 247.068 92.237 246.882 92.122C246.696 92.008 246.544 91.082 246.544 90.067C246.544 88.736 246.403 88.165 246.038 88.025C245.694 87.893 245.532 87.355 245.532 86.348C245.532 85.532 245.38 84.865 245.194 84.865C245.008 84.865 244.857 84.266 244.857 83.535C244.857 82.803 244.705 82.111 244.519 81.996C244.333 81.881 244.181 81.349 244.181 80.814C244.181 80.279 244.03 79.748 243.844 79.633C243.658 79.518 243.506 78.978 243.506 78.432C243.506 77.886 243.354 77.439 243.169 77.439C242.983 77.439 242.831 77.07 242.831 76.619C242.831 76.168 242.603 75.571 242.325 75.293C242.046 75.014 241.819 74.396 241.819 73.919C241.819 73.441 241.667 73.051 241.481 73.051C241.295 73.051 241.143 72.669 241.143 72.202C241.143 71.736 240.968 71.014 240.753 70.599C239.957 69.058 239.793 68.662 239.793 68.274C239.793 67.641 238.678 65.287 238.378 65.287C238.228 65.287 238.105 64.831 238.105 64.274C238.105 63.717 237.954 63.262 237.768 63.262C237.582 63.262 237.43 62.882 237.43 62.418C237.43 61.954 237.278 61.574 237.093 61.574C236.907 61.574 236.755 61.31 236.755 60.988C236.755 60.335 235.041 56.743 234.646 56.567C234.506 56.505 234.392 56.163 234.392 55.807C234.392 55.451 234.241 55.16 234.055 55.16C233.869 55.16 233.717 54.866 233.717 54.505C233.717 54.145 233.565 53.756 233.38 53.641C233.194 53.527 233.042 53.138 233.042 52.778C233.042 52.417 232.89 52.122 232.705 52.122C232.519 52.122 232.367 51.917 232.367 51.665C232.367 51.414 231.987 50.799 231.523 50.298C231.059 49.797 230.679 49.167 230.679 48.898C230.679 48.629 230.527 48.409 230.342 48.409C230.156 48.409 230.004 48.03 230.004 47.565C230.004 47.101 229.852 46.722 229.667 46.722C229.481 46.722 229.329 46.454 229.329 46.127C229.329 45.799 228.949 45.246 228.485 44.898C228.021 44.549 227.641 43.982 227.641 43.636C227.641 43.291 227.489 43.008 227.304 43.008C227.118 43.008 226.966 42.705 226.966 42.333C226.966 41.962 226.814 41.658 226.629 41.658C226.443 41.658 226.291 41.43 226.291 41.152C226.291 40.873 226.139 40.646 225.954 40.646C225.768 40.646 225.616 40.342 225.616 39.97C225.616 39.599 225.464 39.295 225.278 39.295C225.093 39.295 224.941 39.063 224.941 38.778C224.941 38.494 224.713 38.174 224.435 38.067C224.156 37.96 223.928 37.661 223.928 37.403C223.928 37.144 223.776 36.932 223.591 36.932C223.405 36.932 223.253 36.662 223.253 36.332C223.253 36.002 222.949 35.512 222.578 35.245C222.207 34.977 221.903 34.552 221.903 34.3C221.903 34.048 221.304 33.248 220.571 32.523C219.838 31.797 218.996 30.692 218.699 30.066C218.402 29.441 217.82 28.747 217.406 28.526C216.991 28.304 216.469 27.712 216.244 27.211C215.757 26.122 214.352 24.443 213.927 24.443C213.761 24.443 213.322 24.035 212.954 23.536C212.286 22.633 210.752 21.051 209.543 20.019C209.193 19.72 208.663 19.189 208.365 18.837C207.589 17.924 206.425 17.017 206.028 17.017C205.842 17.017 205.034 16.333 204.234 15.498C203.433 14.662 202.558 13.979 202.288 13.979C202.019 13.979 201.58 13.675 201.312 13.304C201.045 12.932 200.701 12.629 200.548 12.629C200.286 12.629 199.87 12.329 198.793 11.363C198.534 11.131 198.153 10.941 197.947 10.941C197.74 10.941 197.245 10.637 196.846 10.266C196.448 9.895 195.846 9.59099 195.51 9.59099C195.174 9.59099 194.899 9.43899 194.899 9.25299C194.899 9.06799 194.611 8.91599 194.26 8.91599C193.908 8.91599 193.533 8.68799 193.426 8.40899C193.32 8.13099 192.924 7.90299 192.546 7.90299C192.169 7.90299 191.861 7.75099 191.861 7.56499C191.861 7.37999 191.557 7.22799 191.186 7.22799C190.814 7.22799 190.511 7.07599 190.511 6.88999C190.511 6.70499 190.207 6.55299 189.835 6.55299C189.464 6.55299 189.16 6.40099 189.16 6.21499C189.16 6.02999 188.781 5.87799 188.316 5.87799C187.852 5.87799 187.473 5.72599 187.473 5.53999C187.473 5.35399 187.263 5.20299 187.008 5.20299C186.752 5.20299 186.377 5.00399 186.176 4.75999C185.974 4.51699 185.034 4.10799 184.088 3.84999C183.141 3.59199 182.291 3.25899 182.199 3.10999C182.107 2.96099 181.433 2.83999 180.702 2.83999C179.97 2.83999 179.371 2.68799 179.371 2.50199C179.371 2.31599 178.781 2.16499 178.06 2.16499C177.338 2.16499 176.313 1.93799 175.781 1.65999C175.206 1.35999 173.899 1.15499 172.556 1.15399C171.314 1.15299 170.203 0.999994 170.089 0.813994C169.804 0.353994 152.705 0.353994 152.705 0.813994C152.705 0.999994 152.032 1.15199 151.21 1.15199C150.331 1.15199 149.506 1.36099 149.209 1.65799C148.603 2.26399 147.414 2.32599 147.226 1.76299C147.146 1.52299 146.149 1.30399 144.751 1.22099C143.463 1.14399 142.265 0.944994 142.089 0.778994C141.659 0.373994 137.816 0.401994 137.177 0.813994ZM16.08 45.876C15.848 46.14 15.658 46.787 15.658 47.315C15.658 47.843 15.468 48.464 15.236 48.696C14.926 49.005 14.786 51.447 14.709 57.922C14.587 68.058 14.716 67.65 11.632 67.65C10.49 67.65 9.582 67.799 9.582 67.987C9.582 68.173 8.756 68.325 7.746 68.325C6.736 68.325 5.815 68.477 5.7 68.662C5.586 68.848 4.703 69.003 3.74 69.006C-0.558997 69.02 -0.433997 72.789 3.928 74.685C4.624 74.988 5.194 75.351 5.194 75.493C5.194 75.635 5.489 75.751 5.849 75.751C6.21 75.751 6.598 75.903 6.713 76.089C6.828 76.274 7.368 76.426 7.914 76.426C8.46 76.426 8.907 76.571 8.907 76.748C8.907 76.925 9.477 77.317 10.173 77.62C10.869 77.923 11.703 78.31 12.025 78.48C12.347 78.65 12.917 78.789 13.291 78.789C13.958 78.789 13.97 78.989 13.97 89.908C13.97 96.024 14.103 101.109 14.264 101.209C14.426 101.309 14.65 101.85 14.762 102.411C15.24 104.798 21.397 102.095 21.397 99.498C21.397 99.247 21.549 99.042 21.734 99.042C21.92 99.042 22.072 98.814 22.072 98.536C22.072 98.257 22.241 98.03 22.448 98.03C22.968 98.03 25.023 95.735 25.531 94.586C25.761 94.067 26.071 93.641 26.22 93.641C26.542 93.641 28.148 92.08 28.148 91.767C28.148 91.647 28.575 91.147 29.097 90.654C29.619 90.162 30.335 89.266 30.689 88.662C31.4 87.448 33.288 87.074 33.671 88.072C33.777 88.35 34.164 88.578 34.531 88.578C34.897 88.578 35.29 88.73 35.405 88.916C35.52 89.101 35.984 89.253 36.438 89.253C36.891 89.253 37.262 89.405 37.262 89.591C37.262 89.776 37.565 89.928 37.937 89.928C38.308 89.928 38.612 90.08 38.612 90.266C38.612 90.451 38.916 90.603 39.287 90.603C39.658 90.603 39.962 90.752 39.962 90.934C39.962 91.117 40.342 91.361 40.806 91.477C41.27 91.594 41.65 91.825 41.65 91.99C41.65 92.156 41.945 92.291 42.305 92.291C42.665 92.291 43.054 92.443 43.169 92.629C43.284 92.814 43.672 92.966 44.033 92.966C44.393 92.966 44.688 93.118 44.688 93.304C44.688 93.502 45.869 93.641 47.557 93.641H50.426V91.859C50.426 90.465 50.279 89.972 49.751 89.591C49.38 89.323 49.076 88.933 49.076 88.725C49.076 88.516 48.245 87.488 47.229 86.439C46.214 85.39 45.163 84.114 44.895 83.602C44.627 83.09 44.091 82.447 43.704 82.174C43.317 81.901 43 81.485 43 81.25C43 80.849 42.42 80.02 41.363 78.911C40.874 78.397 41.093 77.938 42.409 76.724C42.734 76.424 43 76.033 43 75.857C43 75.68 45.051 73.444 47.557 70.888C50.063 68.331 52.114 66.026 52.114 65.764C52.114 65.501 52.266 65.287 52.451 65.287C53.051 65.287 52.822 62.932 52.154 62.214C51.568 61.585 51.216 61.545 47.681 61.7C40.075 62.033 34.407 62.541 34.288 62.901C33.81 64.335 28.889 61.831 28.832 60.125C28.827 59.978 28.519 59.532 28.148 59.133C27.776 58.735 27.473 58.199 27.473 57.942C27.473 57.388 26.659 56.511 26.146 56.511C25.948 56.511 25.781 56.245 25.777 55.92C25.773 55.595 25.473 54.949 25.11 54.485C24.747 54.021 24.446 53.451 24.442 53.219C24.438 52.987 24.283 52.797 24.097 52.797C23.911 52.797 23.759 52.592 23.759 52.34C23.759 52.089 23.38 51.474 22.916 50.973C22.451 50.472 22.072 49.876 22.072 49.648C22.072 49.42 21.768 49.014 21.397 48.747C21.025 48.479 20.722 48.011 20.722 47.706C20.722 45.997 17.197 44.608 16.08 45.876ZM18.286 48.325C19.043 49.406 21.734 53.871 21.734 54.046C21.734 54.141 23.253 56.495 25.11 59.277C26.966 62.06 28.485 64.454 28.485 64.599C28.485 64.873 27.027 65.284 23.591 65.98C22.477 66.205 20.765 66.609 19.787 66.877C18.808 67.145 17.853 67.312 17.664 67.249C17.406 67.163 17.141 51.762 17.333 47.987C17.356 47.539 17.86 47.717 18.286 48.325ZM50.089 64.592C50.089 64.766 48.409 66.703 46.356 68.895C44.304 71.088 41.911 73.747 41.04 74.805C38.989 77.295 39.064 77.318 36.547 73.473C35.362 71.662 34.276 70.03 34.133 69.844C33.485 69.001 31.872 66.447 31.867 66.256C31.861 66.038 37.464 65.144 41.987 64.642C45.575 64.244 50.089 64.216 50.089 64.592ZM33.433 72.093C35.446 75.094 37.219 77.761 37.374 78.021C37.575 78.358 36.786 79.373 34.595 81.594L31.535 84.696L30.432 84.065C27.802 82.559 22.373 79.972 19.31 78.765C16.733 77.749 16.821 77.948 17.008 73.538C17.206 68.913 16.724 69.407 22.241 68.169C24.468 67.67 26.671 67.137 27.135 66.985C29.478 66.219 29.508 66.243 33.433 72.093ZM15.248 73.304C15.351 77.02 15.121 77.406 13.375 76.439C13.053 76.261 11.574 75.572 10.089 74.909C5.509 72.865 4.194 72.215 4.187 71.994C4.179 71.709 6.944 71.025 8.104 71.025C8.612 71.025 9.494 70.884 10.065 70.711C15.139 69.173 15.133 69.17 15.248 73.304ZM132.845 73.659C133.441 78.316 133.547 78.753 137.051 90.941C138.204 94.953 139.191 97.977 140.187 100.553C141.464 103.856 141.446 104.567 140.117 103.415C139.892 103.22 138.703 102.347 137.474 101.474C128.805 95.317 128.649 95.103 129.279 90.261C129.533 88.314 129.91 85.278 130.118 83.515C131.32 73.317 131.475 72.272 131.869 71.777C132.374 71.141 132.571 71.522 132.845 73.659ZM19.628 80.855C20.508 81.249 22.909 82.389 24.965 83.387C27.02 84.386 28.862 85.203 29.059 85.203C30.781 85.203 30.219 86.303 26.592 90.026C23.063 93.65 20.512 96.522 18.696 98.917C18.232 99.529 17.684 100.036 17.478 100.043C16.938 100.06 16.572 91.118 16.866 85.083C17.135 79.547 17.038 79.696 19.628 80.855ZM39.773 81.236C40.242 81.84 41.355 83.321 42.245 84.527C43.135 85.734 44.664 87.765 45.642 89.041C47.953 92.056 47.864 92.074 42.587 89.666C35.477 86.422 34.225 85.878 33.876 85.878C33.15 85.878 33.656 85.036 35.82 82.647C38.4 79.798 38.6 79.727 39.773 81.236ZM202.347 96.101L204.142 102.442L203.247 103.337C202.571 104.013 202.316 104.113 202.206 103.747C202.055 103.245 200.888 96.818 200.248 92.966C200.048 91.759 199.75 90.332 199.585 89.794C199.421 89.255 199.295 88.268 199.305 87.599L199.322 86.384L199.937 88.072C200.274 89 201.359 92.613 202.347 96.101ZM129.751 96.667C129.751 96.805 130.659 97.556 131.768 98.334C132.877 99.112 133.978 99.931 134.215 100.155C134.452 100.378 135.253 101.009 135.996 101.556C136.738 102.103 137.422 102.647 137.515 102.765C137.608 102.882 138.853 103.763 140.283 104.723C142.946 106.509 143.247 106.823 144.951 109.591C146.038 111.356 146.966 111.706 146.966 110.35C146.966 109.303 147.257 109.299 149.256 110.319C151.733 111.583 152.975 113.037 152.255 113.832C151.631 114.521 151.814 114.907 152.765 114.907C153.108 114.907 153.653 115.039 153.975 115.2C155.01 115.718 157.905 116.679 158.949 116.851L159.962 117.019L159.184 116.175C158.032 114.925 158.933 114.77 161.759 115.731C164.435 116.641 165.62 116.405 164.228 115.238C163.79 114.87 163.562 114.562 163.722 114.553C163.882 114.544 166.139 114.374 168.738 114.175C171.338 113.977 174.11 113.825 174.899 113.839C176.51 113.866 176.711 113.314 175.986 110.854C174.63 106.257 172.931 96.594 173.396 96.129C173.526 95.998 173.633 96.089 173.633 96.331C173.633 98.451 178.427 108.935 181.009 112.46C183.08 115.288 183.966 115.658 183.63 113.557C183.388 112.042 183.776 111.803 184.591 112.966C185.087 113.673 185.341 113.72 188.239 113.639L191.354 113.551L190.381 114.421C188.776 115.854 189.748 116.166 192.047 114.955C193.921 113.969 194.118 113.936 197.232 114.102C199.012 114.197 201.152 114.147 201.987 113.989L203.506 113.703L203.475 112.027C203.457 111.105 203.27 109.446 203.059 108.34C202.738 106.659 202.758 106.204 203.183 105.555C203.897 104.466 204.908 104.546 205.112 105.709C205.355 107.094 207.76 115.32 208.129 116.026C208.753 117.224 209.414 116.031 209.414 113.704C209.414 110.879 209.813 110.766 210.72 113.336C211.13 114.497 211.764 115.938 212.129 116.539L212.794 117.632L215.829 117.402C217.557 117.272 218.867 117.303 218.869 117.475C218.88 118.186 217.709 123.03 217.002 125.203C216.579 126.502 216.05 128.249 215.826 129.084C215.602 129.92 214.897 132.177 214.258 134.101C212.989 137.924 212.09 142.086 211.294 147.819C209.694 159.357 205.459 166.268 195.34 173.856C192.151 176.248 186.796 179.717 186.295 179.717C186.214 179.717 184.748 180.558 183.036 181.585C174.737 186.564 169.839 188.433 167.488 187.516C167.062 187.35 166.03 187.028 165.194 186.802C164.359 186.575 163.295 186.272 162.831 186.127C162.367 185.982 160.848 185.523 159.456 185.108C153.938 183.46 152.473 182.948 147.135 180.795C140.906 178.284 136.101 175.635 132.789 172.887C130.152 170.698 127.787 168.163 127.579 167.3C127.457 166.796 127.224 165.852 127.061 165.203C126.054 161.195 125.677 159.531 124.92 155.751C123.647 149.395 121.984 138.222 121.991 136.075C121.995 135.037 122.034 135.069 122.919 136.83C123.428 137.84 124.034 138.727 124.266 138.799C124.785 138.96 124.827 137.798 124.321 137.291C123.278 136.248 123.538 131.679 124.73 130.121C126.426 127.902 126.541 128.01 126.577 131.869C126.628 137.212 128.598 141.436 131.905 143.293C132.67 143.722 133.81 144.422 134.44 144.849C135.069 145.275 135.944 145.624 136.385 145.624C136.826 145.624 137.497 145.814 137.876 146.046C138.457 146.402 138.617 146.376 138.9 145.878C139.321 145.138 140.076 145.113 140.351 145.83C140.519 146.266 140.81 146.321 141.822 146.109C142.516 145.963 143.486 145.863 143.977 145.886C144.694 145.921 144.837 145.804 144.703 145.293C144.601 144.904 144.935 144.155 145.561 143.368C149.093 138.931 150.363 130.623 148.224 125.949C147.675 124.75 147.494 124.014 147.729 123.935C148.609 123.642 154.634 124.797 158.033 125.91C160.725 126.792 161.442 125.755 159.456 123.852C158.252 122.699 158.157 121.594 159.203 120.896C161.957 119.055 153.309 116.708 144.948 117.027C137.29 117.319 135.176 117.906 128.55 121.58C127.439 122.195 123.344 126.696 122.732 127.973C121.564 130.412 121.135 129.747 120.835 125.034C120.734 123.456 120.555 121.61 120.437 120.932L120.222 119.7L122.688 118.485C124.044 117.817 125.618 117.268 126.186 117.265C128.157 117.255 128.103 117.537 128.198 106.748C128.247 101.277 128.393 96.628 128.523 96.417C128.768 96.02 129.751 96.22 129.751 96.667ZM144.913 102.08C145.058 102.08 145.457 102.726 145.802 103.515C146.146 104.304 146.863 105.6 147.396 106.396C147.929 107.191 148.313 107.997 148.25 108.186C148.033 108.839 145.684 106.653 145.317 105.456C144.673 103.355 144.269 101.586 144.314 101.068C144.338 100.789 144.424 100.903 144.504 101.321C144.585 101.738 144.769 102.08 144.913 102.08ZM132.49 126.067C132.858 126.264 133.302 126.802 133.478 127.264C133.679 127.793 134.015 128.066 134.39 128.003C134.787 127.936 135.019 128.154 135.091 128.664C135.217 129.551 134.361 130.026 133.67 129.452C133.309 129.153 132.95 129.329 132.02 130.259C129.846 132.432 128.091 130.618 129.58 127.738C130.412 126.129 131.471 125.521 132.49 126.067ZM195.782 127.019C194.008 127.461 193.271 127.833 192.662 128.594C191.595 129.927 191.581 130.815 192.642 129.818C193.072 129.415 193.649 129.084 193.925 129.084C194.201 129.084 194.57 128.952 194.747 128.791C194.923 128.63 195.827 128.223 196.755 127.886C200.732 126.443 200.157 125.931 195.782 127.019ZM206.207 130.113C205.278 130.257 203.472 130.389 202.193 130.405C196.91 130.472 192.815 132.793 189.723 137.473C187.692 140.547 187.786 140.631 191.341 138.919C195.438 136.944 200.956 135.955 207.008 136.109C210.159 136.189 210.171 136.186 209.934 135.422C209.35 133.535 209.342 133.141 209.881 132.934C210.205 132.81 210.426 132.338 210.426 131.769C210.426 131.242 210.594 130.708 210.8 130.581C211.953 129.869 209.427 129.611 206.207 130.113ZM55.504 140.837C55.047 140.99 55.033 147.199 55.489 147.481C56.416 148.054 55.577 151.025 54.489 151.025C54.01 151.025 52.433 152.025 51.774 152.746C51.352 153.207 51.194 153.225 50.846 152.853C50.341 152.313 50.268 147.987 50.764 147.987C50.949 147.987 51.101 147.32 51.101 146.504C51.101 145.498 51.264 144.959 51.608 144.827C51.886 144.72 52.114 144.257 52.114 143.798C52.114 143.339 52.266 142.87 52.451 142.755C52.637 142.641 52.789 142.1 52.789 141.554C52.789 141.008 52.941 140.561 53.127 140.561C53.312 140.561 53.464 140.105 53.464 139.549C53.464 138.992 53.616 138.536 53.802 138.536C53.987 138.536 54.139 138.156 54.139 137.692C54.139 137.228 54.267 136.848 54.423 136.848C54.578 136.848 54.92 136.43 55.182 135.92C55.632 135.042 55.664 135.149 55.758 137.856C55.819 139.633 55.723 140.765 55.504 140.837ZM144.67 136.05C147.48 137.998 144.39 144.437 140.553 144.627C136.475 144.829 136.262 144.763 134.112 142.614C131.697 140.198 131.516 139.175 133.181 137.345C134.48 135.918 134.635 135.908 135.71 137.186C137.271 139.04 140.614 138.469 141.56 136.186C142.094 134.898 142.952 134.86 144.67 136.05ZM181.966 147.868C181.632 148.202 181.68 149.602 182.033 149.82C182.466 150.088 183.16 149.134 183.028 148.453C182.905 147.818 182.332 147.502 181.966 147.868ZM255.321 153.369C255.321 154.074 255.398 154.279 256.445 156.369C256.755 156.988 257.008 157.709 257.008 157.973C257.008 158.236 257.16 158.451 257.346 158.451C257.532 158.451 257.684 159.287 257.684 160.308C257.684 161.329 257.835 162.165 258.021 162.165C258.207 162.165 258.359 162.611 258.359 163.157C258.359 163.703 258.511 164.244 258.696 164.359C258.882 164.473 259.034 165.698 259.034 167.079C259.034 168.46 259.158 169.591 259.309 169.591C259.741 169.591 259.735 174.702 259.301 175.903C259 176.734 259.006 177.194 259.326 177.895C259.615 178.531 259.634 178.914 259.387 179.161C259.193 179.356 259.034 180.007 259.034 180.609C259.034 181.21 258.882 181.797 258.696 181.911C258.511 182.026 258.359 182.871 258.359 183.788C258.359 184.705 258.207 185.456 258.021 185.456C257.835 185.456 257.684 185.902 257.684 186.448C257.684 186.994 257.532 187.535 257.346 187.65C257.16 187.765 257.008 188.153 257.008 188.514C257.008 188.874 256.868 189.169 256.696 189.169C256.356 189.169 255.321 191.059 255.321 191.678C255.321 191.887 255.017 192.277 254.646 192.544C254.274 192.812 253.97 193.301 253.97 193.631C253.97 193.962 253.819 194.232 253.633 194.232C253.447 194.232 253.295 194.46 253.295 194.738C253.295 195.017 253.154 195.245 252.981 195.245C252.807 195.245 252.569 195.549 252.451 195.92C251.851 197.813 251.608 196.069 251.608 189.864C251.608 185.74 251.477 183.052 251.27 182.924C251.084 182.809 250.932 181.366 250.932 179.717C250.932 178.068 250.781 176.625 250.595 176.511C249.693 175.953 250.415 164.527 251.352 164.527C251.493 164.527 251.608 163.996 251.608 163.346C251.608 162.696 251.759 162.165 251.945 162.165C252.131 162.165 252.283 161.646 252.283 161.011C252.283 160.377 252.454 159.801 252.663 159.731C252.872 159.661 253.12 158.81 253.213 157.839C253.306 156.869 253.515 155.993 253.677 155.893C253.838 155.793 253.97 154.91 253.97 153.931C253.97 152.952 254.064 152.056 254.179 151.942C254.519 151.602 255.321 152.605 255.321 153.369ZM170.257 160.469C166.164 160.68 166.004 160.717 163.338 162.08C156.602 165.525 157.779 175.922 165.196 178.504C169.486 179.998 173.321 178.606 177.62 173.996C179.437 172.048 182.255 165.466 182.007 163.751C181.679 161.487 176.822 160.13 170.257 160.469ZM177.55 162.518C178.458 162.86 179.112 166.024 178.734 168.241C178.178 171.492 175 175.565 171.99 176.886C171.315 177.181 170.445 177.573 170.055 177.756C164.185 180.514 157.767 170.793 161.617 164.975C162.544 163.574 162.749 163.426 164.688 162.758C166.805 162.028 175.804 161.86 177.55 162.518ZM134.253 175.625C139.376 179.114 143.44 181.166 149.329 183.238C151.278 183.924 153.633 184.774 154.561 185.126C155.489 185.478 157.312 186.085 158.612 186.476C163.27 187.878 163.153 187.604 160.461 190.81C157.862 193.906 155.735 197.382 155.493 198.929C155.234 200.583 156.069 199.851 157.937 196.786C159.414 194.363 159.965 194.086 160.497 195.498C160.689 196.008 161.438 197.623 162.163 199.085C163.777 202.344 163.25 204.194 159.49 208.461C158.728 209.325 158.105 210.18 158.105 210.361C158.105 212.239 156.152 211.356 150.854 207.081C147.632 204.482 138.865 194.739 138.865 193.758C138.865 193.622 138.498 193.028 138.05 192.437C136.858 190.864 134.065 185.91 133.163 183.768C131.9 180.768 131.393 179.597 131 178.772C130.405 177.519 130.868 173.979 131.628 173.979C131.742 173.979 132.923 174.72 134.253 175.625ZM118.639 187.157C120.702 188.21 120.954 189.954 120.444 199.691C119.92 209.694 120.907 216.678 123.632 222.249L125.53 226.131L125.451 230.606C125.386 234.212 125.214 235.59 124.565 237.695C124.121 239.132 123.578 241.371 123.359 242.671C122.135 249.91 121.549 251.471 120.722 249.69C120.152 248.463 120.183 248.138 121.011 246.735C121.545 245.831 121.667 245.233 121.501 244.344C121.312 243.341 121.436 242.967 122.308 241.91C123.995 239.862 123.411 237.205 120.805 235.076C120.464 234.797 119.057 233.155 117.679 231.427C114.458 227.386 111.473 225.202 110.5 226.175C110.079 226.596 110.472 227.032 112.03 227.872C112.938 228.362 114.044 229.533 115.412 231.454C116.53 233.024 118.315 235.263 119.379 236.43C121.342 238.585 121.674 239.508 120.963 240.837C120.461 241.775 119.968 241.649 118.443 240.192C116.706 238.532 115.896 238.114 114.415 238.114C112.809 238.114 112.771 239.013 114.365 239.312C115.708 239.564 119.962 244.001 119.962 245.15C119.962 245.522 119.354 246.421 118.612 247.149C117.143 248.589 116.861 249.591 117.925 249.591C119.44 249.591 120.138 253.902 119.029 256.408C118.232 258.21 116.321 260.421 114.69 261.43C113.779 261.993 113.553 262.336 113.625 263.041C113.712 263.885 113.643 263.931 112.424 263.834C111.713 263.778 110.422 263.96 109.555 264.238C104.472 265.872 101.059 264.218 101.059 260.121C101.059 259.292 99.206 257.38 97.637 256.589C93.646 254.577 93.076 253.355 94.167 249.146C95.039 245.782 94.68 244.577 92.293 242.847C88.645 240.204 88.897 236.61 93.088 231.538C95.917 228.113 96.071 228.049 103.68 227.098C110.809 226.207 109.636 225.273 102.143 225.876C98.113 226.2 98.191 226.227 97.902 224.372C97.712 223.158 97.78 222.896 98.366 222.582C99.938 221.741 95.282 219.563 87.523 217.508C83.305 216.391 80.479 212.968 82.981 212.008C83.235 211.91 83.55 211.344 83.68 210.749C84.659 206.291 92.682 203.567 97.769 205.965C104.805 209.283 108.822 214.26 108.345 219.067C108.109 221.445 108.323 221.844 109.329 220.899L110.055 220.217L111.464 222.119C112.239 223.166 112.873 224.163 112.873 224.337C112.873 224.51 113.025 224.558 113.211 224.443C113.772 224.097 113.6 223.277 112.52 221.153C111.55 219.244 111.513 219.029 111.861 217.352C112.254 215.459 111.983 211.918 111.022 206.384C109.393 197.002 111.312 189.165 115.743 187.11C117.389 186.346 117.037 186.34 118.639 187.157ZM166.3 207.082C169.788 214.413 170.096 219.814 167.34 225.354C164.508 231.048 160.527 236.095 157.534 237.784C155.255 239.07 155.355 239.176 155.261 235.352C155.152 230.898 153.014 224.974 149.819 220.272C148.916 218.944 149.004 218.536 150.193 218.536C151.473 218.536 151.166 217.732 149.582 216.941C147.959 216.13 144.122 213.166 144.372 212.916C144.462 212.826 146.108 213.511 148.03 214.439C152.923 216.801 156.123 217.642 160.3 217.663C167.577 217.701 170.195 216.394 165.194 215.221C163.009 214.708 158.443 212.52 158.443 211.986C158.443 211.737 159.284 210.59 160.311 209.439C161.339 208.287 162.645 206.521 163.213 205.514C164.534 203.173 164.41 203.111 166.3 207.082ZM155.236 218.536C155.102 218.754 155.143 219.084 155.329 219.27C155.554 219.495 155.748 219.475 155.911 219.211C156.046 218.993 156.004 218.663 155.819 218.477C155.594 218.252 155.4 218.272 155.236 218.536ZM192.264 228.894C193.487 230.066 193.477 230.152 191.741 233.458C190.932 234.998 190.073 236.865 189.831 237.608C189.589 238.35 188.931 239.945 188.368 241.152C187.546 242.914 187.295 244.011 187.093 246.722C186.955 248.578 186.737 251.178 186.609 252.498C186.449 254.144 186.495 254.974 186.755 255.134C187.254 255.443 187.242 256.775 186.736 257.281C186.516 257.501 186.455 257.797 186.599 257.94C186.744 258.082 187.646 257.35 188.602 256.313C190.756 253.978 191.546 253.641 194.87 253.641C198.778 253.641 203.515 255.803 206.55 258.97C211.046 263.663 211.328 274.811 206.873 271.749C206.506 271.497 205.295 271.208 204.181 271.107C201.818 270.891 199.561 270.187 196.811 268.807C193.581 267.187 193.215 267.404 195.396 269.648C196.647 270.935 196.874 271.361 196.719 272.135C196.561 272.923 196.799 273.336 198.247 274.784C200.518 277.054 200.437 279.927 198.019 282.971C196.441 284.955 196.425 285.019 196.249 289.649C196.056 294.74 195.961 294.931 192.536 297.107C189.694 298.912 188.536 300.174 187.325 302.788C183.381 311.294 176.992 310.632 169.685 300.96C168.607 299.534 167.642 298.291 167.539 298.198C166.904 297.623 166.214 295.413 166.41 294.583C166.935 292.364 170.526 289.724 171.737 290.666C176.482 294.355 178.247 295.498 179.201 295.498C180.085 295.498 179.755 294.946 178.274 293.946C171.406 289.306 169.245 287.319 169.245 285.644C169.245 284.077 170.781 281.571 172.387 280.52C173.852 279.561 174.207 279.544 176.84 280.306C180.831 281.461 183.892 281.44 181.701 280.273C181.069 279.936 180.142 279.655 179.64 279.647C179.139 279.639 178.379 279.5 177.953 279.339C175.364 278.356 174.621 278.238 173.445 278.627C170.412 279.628 169.573 276.118 172.228 273.536C175.996 269.871 178.64 266.09 176.714 267.121C175.815 267.602 170.936 273.105 170.934 273.641C170.933 273.781 170.795 273.895 170.627 273.895C170.148 273.895 170.577 265.831 171.157 263.941C171.441 263.016 172.475 261.117 173.454 259.722C176.279 255.697 177.684 251.265 177.684 246.375C177.684 239.041 179.008 235.107 182.743 231.342C186.048 228.012 190.223 226.939 192.264 228.894ZM265.785 229.318C265.785 229.678 265.633 230.067 265.447 230.181C265.249 230.304 265.105 232.363 265.099 235.18C265.092 238.421 264.955 240.139 264.677 240.491C264.191 241.106 262.031 242.165 261.261 242.165C260.964 242.165 260.722 242.316 260.722 242.502C260.722 242.688 260.19 242.84 259.54 242.84C258.89 242.84 258.359 242.992 258.359 243.177C258.359 243.363 257.637 243.515 256.755 243.515C254.795 243.516 253.295 244.604 253.295 246.025C253.295 247.032 253.979 247.903 254.77 247.903C255.051 247.903 255.375 248.055 255.489 248.241C255.604 248.426 256.107 248.583 256.606 248.589C257.106 248.595 257.81 248.823 258.17 249.095C258.53 249.368 259.1 249.591 259.436 249.591C259.772 249.591 260.046 249.743 260.046 249.928C260.046 250.114 260.502 250.266 261.059 250.266C261.616 250.266 262.072 250.418 262.072 250.603C262.072 250.789 262.338 250.941 262.662 250.941C262.987 250.942 263.671 251.301 264.181 251.74L265.11 252.538V257.984C265.11 261.39 265.236 263.43 265.447 263.43C265.633 263.43 265.785 263.745 265.785 264.13C265.785 265.949 268.743 266.522 269.58 264.865C270.323 263.395 270.982 262.313 271.439 261.816C271.671 261.563 271.861 261.173 271.861 260.949C271.861 260.725 272.165 260.322 272.536 260.055C272.907 259.787 273.211 259.298 273.211 258.968C273.211 258.637 273.327 258.367 273.468 258.367C273.61 258.367 273.876 258.025 274.06 257.608C274.411 256.808 276.996 256.65 277.751 257.381C277.927 257.552 278.497 257.692 279.017 257.692C279.537 257.692 279.962 257.844 279.962 258.03C279.962 258.215 280.494 258.367 281.143 258.367C281.793 258.367 282.325 258.519 282.325 258.705C282.325 258.89 282.629 259.042 283 259.042C283.371 259.042 283.675 259.194 283.675 259.38C283.675 259.565 284.055 259.717 284.519 259.717C284.983 259.717 285.363 259.859 285.363 260.032C285.363 260.488 286.6 260.811 287.388 260.561C288.064 260.347 288.459 257.017 287.808 257.017C287.668 257.017 287.335 256.523 287.069 255.92C286.521 254.676 285.917 253.979 285.387 253.979C285.188 253.979 285.025 253.704 285.025 253.367C285.025 253.031 284.722 252.43 284.35 252.031C283.979 251.633 283.675 251.073 283.675 250.786C283.675 250.5 283.523 250.266 283.338 250.266C283.152 250.266 283 250.031 283 249.743C283 249.456 282.588 248.839 282.085 248.373C281.506 247.837 281.304 247.439 281.535 247.292C281.737 247.164 282.33 246.262 282.854 245.287C283.379 244.312 283.93 243.515 284.079 243.515C284.228 243.515 284.35 243.287 284.35 243.008C284.35 242.73 284.502 242.502 284.688 242.502C284.873 242.502 285.025 242.198 285.025 241.827C285.025 241.456 285.166 241.152 285.338 241.152C286.202 241.152 287.024 237.968 286.508 236.623C286.276 236.017 283 235.834 283 236.426C283 236.612 282.165 236.764 281.143 236.764C280.122 236.764 279.287 236.916 279.287 237.101C279.287 237.287 278.536 237.439 277.619 237.439C276.702 237.439 275.866 237.576 275.762 237.745C275.481 238.199 273.892 237.358 273.889 236.754C273.887 236.47 273.582 236.019 273.211 235.751C272.84 235.483 272.536 235.005 272.536 234.688C272.536 234.372 272.156 233.814 271.692 233.448C271.228 233.083 270.848 232.541 270.848 232.243C270.848 231.944 270.696 231.7 270.511 231.7C270.325 231.7 270.173 231.473 270.173 231.194C270.173 230.916 270.058 230.688 269.918 230.688C269.778 230.688 269.461 230.232 269.214 229.675C268.648 228.396 265.785 228.098 265.785 229.318ZM269.038 234.148C269.532 234.937 270.028 235.658 270.139 235.751C270.251 235.844 270.833 236.625 271.433 237.486C272.692 239.292 272.632 239.399 269.879 240.277C267.547 241.02 267.158 240.861 267.326 239.233C267.398 238.525 267.55 236.768 267.663 235.329C267.902 232.271 267.876 232.293 269.038 234.148ZM284.013 238.967C284.013 239.066 283.206 240.323 282.221 241.762C281.235 243.201 280.329 244.64 280.206 244.959C279.817 245.974 279.161 245.585 277.515 243.358C275.166 240.182 275.086 240.302 280.046 239.598C280.835 239.486 281.625 239.259 281.802 239.092C282.142 238.771 284.013 238.665 284.013 238.967ZM101.059 240.651C100.224 240.899 99.084 241.238 98.527 241.404C97.97 241.571 97.515 241.924 97.515 242.189C97.515 243.066 99.856 242.621 103.506 241.049C105.619 240.139 103.786 239.841 101.059 240.651ZM274.347 241.661C274.443 241.913 275.372 243.268 276.411 244.672C278.576 247.6 278.612 247.238 275.782 251.019C273.783 253.691 273.882 253.676 270.173 251.848L267.304 250.435L267.207 246.92C267.093 242.788 266.978 242.961 270.601 241.807C273.461 240.896 274.045 240.874 274.347 241.661ZM265.447 246.496C265.447 249.642 265.365 249.763 263.794 248.943C262.039 248.026 260.049 247.17 259.054 246.904C257.495 246.487 258.137 245.834 261.059 244.867C265.536 243.386 265.447 243.353 265.447 246.496ZM279.766 249.458C280.059 249.571 280.3 249.816 280.3 250.002C280.3 250.189 281.297 251.782 282.517 253.543C285.04 257.188 285.045 257.362 282.59 256.421C281.609 256.045 279.694 255.404 278.335 254.996C275.532 254.155 275.556 254.283 277.658 251.337C279.342 248.976 279.091 249.199 279.766 249.458ZM112.198 250.468C111.363 250.946 109.54 251.951 108.148 252.702C104.46 254.689 103.363 255.383 103.573 255.593C103.676 255.696 104.178 255.582 104.688 255.341C105.199 255.099 105.92 254.778 106.291 254.627C108.73 253.638 113.806 251.15 114.303 250.701C115.78 249.364 114.396 249.211 112.198 250.468ZM269.756 253.641C270.524 254.013 271.294 254.316 271.466 254.316C272.785 254.316 272.557 255.391 270.64 258.213C267.517 262.81 267.597 262.841 267.374 256.932C267.204 252.434 267.218 252.415 269.756 253.641ZM183.543 256.344C182.112 256.661 180.046 257.972 180.046 258.563C180.046 259.251 180.697 259.14 182.241 258.19C182.983 257.732 183.848 257.357 184.162 257.356C184.842 257.354 185.306 256.726 184.895 256.365C184.734 256.224 184.126 256.214 183.543 256.344ZM184.302 261.264C184.177 261.59 184.212 261.992 184.379 262.159C184.779 262.559 185.129 261.646 184.788 261.093C184.597 260.783 184.469 260.828 184.302 261.264ZM179.888 266.451C179.779 266.628 180.264 266.876 180.965 267.003C182.589 267.297 185.27 268.276 188.468 269.743C190.138 270.509 191.253 270.828 191.788 270.694L192.592 270.492L191.805 269.881C189.53 268.117 180.47 265.51 179.888 266.451ZM169.781 280.612C169.486 280.938 169.245 281.392 169.245 281.62C169.245 281.849 169.081 281.934 168.88 281.81C168.473 281.558 168.748 280.062 169.331 279.36C169.632 278.997 169.757 279.017 170.009 279.467C170.222 279.847 170.151 280.203 169.781 280.612ZM186.194 282.418C186.368 282.993 189.129 284.341 190.634 284.585C192.588 284.903 192.406 283.513 190.426 283C189.637 282.795 188.46 282.486 187.81 282.314C186.257 281.901 186.042 281.915 186.194 282.418ZM181.383 296.822C181.834 297.665 182.711 298.536 183.108 298.536C183.739 298.536 183.398 297.554 182.533 296.873C181.419 295.997 180.929 295.975 181.383 296.822Z" fill="#EAE21B" fill-opacity="0.52"/>
<path fill-rule="evenodd" clip-rule="evenodd" d="M17.333 47.987C17.141 51.762 17.406 67.163 17.664 67.249C17.853 67.312 18.808 67.145 19.787 66.877C20.765 66.609 22.477 66.205 23.591 65.98C27.027 65.284 28.485 64.873 28.485 64.599C28.485 64.454 26.966 62.06 25.11 59.277C23.253 56.495 21.734 54.141 21.734 54.046C21.734 53.871 19.043 49.406 18.286 48.325C17.86 47.717 17.356 47.539 17.333 47.987ZM41.987 64.642C37.464 65.144 31.861 66.038 31.867 66.256C31.872 66.447 33.485 69.001 34.133 69.844C34.276 70.03 35.362 71.662 36.547 73.473C39.064 77.318 38.989 77.295 41.04 74.805C41.911 73.747 44.304 71.088 46.356 68.895C48.409 66.703 50.089 64.766 50.089 64.592C50.089 64.216 45.575 64.244 41.987 64.642ZM27.135 66.985C26.671 67.137 24.468 67.67 22.241 68.169C16.724 69.407 17.206 68.913 17.008 73.538C16.821 77.948 16.733 77.749 19.31 78.765C22.373 79.972 27.802 82.559 30.432 84.065L31.535 84.696L34.595 81.594C36.786 79.373 37.575 78.358 37.374 78.021C37.219 77.761 35.446 75.094 33.433 72.093C29.508 66.243 29.478 66.219 27.135 66.985ZM12.451 70.073C11.709 70.251 10.635 70.538 10.065 70.711C9.494 70.884 8.612 71.025 8.104 71.025C6.944 71.025 4.179 71.709 4.187 71.994C4.194 72.215 5.509 72.865 10.089 74.909C11.574 75.572 13.053 76.261 13.375 76.439C15.121 77.406 15.351 77.02 15.248 73.304C15.14 69.417 15.147 69.425 12.451 70.073ZM131.869 71.777C131.475 72.272 131.32 73.317 130.118 83.515C129.91 85.278 129.533 88.314 129.279 90.261C128.649 95.103 128.805 95.317 137.474 101.474C138.703 102.347 139.892 103.22 140.117 103.415C141.446 104.567 141.464 103.856 140.187 100.553C139.191 97.977 138.204 94.953 137.051 90.941C133.547 78.753 133.441 78.316 132.845 73.659C132.571 71.522 132.374 71.141 131.869 71.777ZM16.866 85.083C16.572 91.118 16.938 100.06 17.478 100.043C17.684 100.036 18.232 99.529 18.696 98.917C20.512 96.522 23.063 93.65 26.592 90.026C30.219 86.303 30.781 85.203 29.059 85.203C28.862 85.203 27.02 84.386 24.965 83.387C16.325 79.19 17.161 79.015 16.866 85.083ZM35.82 82.647C33.656 85.036 33.15 85.878 33.876 85.878C34.225 85.878 35.477 86.422 42.587 89.666C47.864 92.074 47.953 92.056 45.642 89.041C44.664 87.765 43.135 85.734 42.245 84.527C38.315 79.201 38.809 79.346 35.82 82.647ZM199.305 87.599C199.295 88.268 199.421 89.255 199.585 89.794C199.75 90.332 200.048 91.759 200.248 92.966C200.888 96.818 202.055 103.245 202.206 103.747C202.316 104.113 202.571 104.013 203.247 103.337L204.142 102.442L202.347 96.101C201.359 92.613 200.274 89 199.937 88.072L199.322 86.384L199.305 87.599ZM128.523 96.417C128.393 96.628 128.247 101.277 128.198 106.748C128.103 117.537 128.157 117.255 126.186 117.265C125.618 117.268 124.044 117.817 122.688 118.485L120.222 119.7L120.437 120.932C120.555 121.61 120.734 123.456 120.835 125.034C121.135 129.747 121.564 130.412 122.732 127.973C123.344 126.696 127.439 122.195 128.55 121.58C135.176 117.906 137.29 117.319 144.948 117.027C153.309 116.708 161.957 119.055 159.203 120.896C158.157 121.594 158.252 122.699 159.456 123.852C161.442 125.755 160.725 126.792 158.033 125.91C154.634 124.797 148.609 123.642 147.729 123.935C147.494 124.014 147.675 124.75 148.224 125.949C150.363 130.623 149.093 138.931 145.561 143.368C144.935 144.155 144.601 144.904 144.703 145.293C144.837 145.804 144.694 145.921 143.977 145.886C143.486 145.863 142.516 145.963 141.822 146.109C140.81 146.321 140.519 146.266 140.351 145.83C140.076 145.113 139.321 145.138 138.9 145.878C138.617 146.376 138.457 146.402 137.876 146.046C137.497 145.814 136.826 145.624 136.385 145.624C135.944 145.624 135.069 145.275 134.44 144.849C133.81 144.422 132.67 143.722 131.905 143.293C128.598 141.436 126.628 137.212 126.577 131.869C126.541 128.01 126.426 127.902 124.73 130.121C123.538 131.679 123.278 136.248 124.321 137.291C124.827 137.798 124.785 138.96 124.266 138.799C124.034 138.727 123.428 137.84 122.919 136.83C122.034 135.069 121.995 135.037 121.991 136.075C121.984 138.222 123.647 149.395 124.92 155.751C125.677 159.531 126.054 161.195 127.061 165.203C127.224 165.852 127.457 166.796 127.579 167.3C127.787 168.163 130.152 170.698 132.789 172.887C136.101 175.635 140.906 178.284 147.135 180.795C152.473 182.948 153.938 183.46 159.456 185.108C160.848 185.523 162.367 185.982 162.831 186.127C163.295 186.272 164.359 186.575 165.194 186.802C166.03 187.028 167.062 187.35 167.488 187.516C169.839 188.433 174.737 186.564 183.036 181.585C184.748 180.558 186.214 179.717 186.295 179.717C186.796 179.717 192.151 176.248 195.34 173.856C205.459 166.268 209.694 159.357 211.294 147.819C212.09 142.086 212.989 137.924 214.258 134.101C214.897 132.177 215.602 129.92 215.826 129.084C216.05 128.249 216.579 126.502 217.002 125.203C217.709 123.03 218.88 118.186 218.869 117.475C218.867 117.303 217.557 117.272 215.829 117.402L212.794 117.632L212.129 116.539C211.764 115.938 211.13 114.497 210.72 113.336C209.813 110.766 209.414 110.879 209.414 113.704C209.414 116.031 208.753 117.224 208.129 116.026C207.76 115.32 205.355 107.094 205.112 105.709C204.908 104.546 203.897 104.466 203.183 105.555C202.758 106.204 202.738 106.659 203.059 108.34C203.27 109.446 203.457 111.105 203.475 112.027L203.506 113.703L201.987 113.989C201.152 114.147 199.012 114.197 197.232 114.102C194.118 113.936 193.921 113.969 192.047 114.955C189.748 116.166 188.776 115.854 190.381 114.421L191.354 113.551L188.239 113.639C185.341 113.72 185.087 113.673 184.591 112.966C183.776 111.803 183.388 112.042 183.63 113.557C183.966 115.658 183.08 115.288 181.009 112.46C178.427 108.935 173.633 98.451 173.633 96.331C173.633 96.089 173.526 95.998 173.396 96.129C172.931 96.594 174.63 106.257 175.986 110.854C176.711 113.314 176.51 113.866 174.899 113.839C174.11 113.825 171.338 113.977 168.738 114.175C166.139 114.374 163.882 114.544 163.722 114.553C163.562 114.562 163.79 114.87 164.228 115.238C165.62 116.405 164.435 116.641 161.759 115.731C158.933 114.77 158.032 114.925 159.184 116.175L159.962 117.019L158.949 116.851C157.905 116.679 155.01 115.718 153.975 115.2C153.653 115.039 153.108 114.907 152.765 114.907C151.814 114.907 151.631 114.521 152.255 113.832C152.975 113.037 151.733 111.583 149.256 110.319C147.257 109.299 146.966 109.303 146.966 110.35C146.966 111.706 146.038 111.356 144.951 109.591C143.247 106.823 142.946 106.509 140.283 104.723C138.853 103.763 137.608 102.882 137.515 102.765C137.422 102.647 136.738 102.103 135.996 101.556C135.253 101.009 134.452 100.378 134.215 100.155C133.978 99.931 132.877 99.112 131.768 98.334C130.659 97.556 129.751 96.805 129.751 96.667C129.751 96.22 128.768 96.02 128.523 96.417ZM144.314 101.068C144.269 101.586 144.673 103.355 145.317 105.456C145.684 106.653 148.033 108.839 148.25 108.186C148.313 107.997 147.929 107.191 147.396 106.396C146.863 105.6 146.146 104.304 145.802 103.515C145.457 102.726 145.058 102.08 144.913 102.08C144.769 102.08 144.585 101.738 144.504 101.321C144.424 100.903 144.338 100.789 144.314 101.068ZM130.837 126.236C129.25 127.347 128.581 129.892 129.606 130.917C130.368 131.678 130.688 131.591 132.02 130.259C132.95 129.329 133.309 129.153 133.67 129.452C134.361 130.026 135.217 129.551 135.091 128.664C135.019 128.154 134.787 127.936 134.39 128.003C134.015 128.066 133.679 127.793 133.478 127.264C133.302 126.802 132.858 126.264 132.49 126.067C131.651 125.618 131.731 125.61 130.837 126.236ZM199.109 126.829C198.743 127.073 197.684 127.549 196.755 127.886C195.827 128.223 194.923 128.63 194.747 128.791C194.57 128.952 194.201 129.084 193.925 129.084C193.649 129.084 193.072 129.415 192.642 129.818C191.581 130.815 191.595 129.927 192.662 128.594C193.447 127.613 196.676 126.491 198.94 126.413C199.741 126.385 199.748 126.402 199.109 126.829ZM210.715 130.06C211.035 130.262 211.06 130.42 210.8 130.581C210.594 130.708 210.426 131.242 210.426 131.769C210.426 132.338 210.205 132.81 209.881 132.934C209.342 133.141 209.35 133.535 209.934 135.422C210.171 136.186 210.159 136.189 207.008 136.109C200.956 135.955 195.438 136.944 191.341 138.919C187.786 140.631 187.692 140.547 189.723 137.473C192.815 132.793 196.91 130.472 202.193 130.405C203.472 130.389 205.278 130.257 206.207 130.113C208.592 129.741 210.183 129.723 210.715 130.06ZM141.56 136.186C140.614 138.469 137.271 139.04 135.71 137.186C134.635 135.908 134.48 135.918 133.181 137.345C131.516 139.175 131.697 140.198 134.112 142.614C136.262 144.763 136.475 144.829 140.553 144.627C144.39 144.437 147.48 137.998 144.67 136.05C142.952 134.86 142.094 134.898 141.56 136.186ZM183.028 148.453C183.16 149.134 182.466 150.088 182.033 149.82C181.68 149.602 181.632 148.202 181.966 147.868C182.332 147.502 182.905 147.818 183.028 148.453ZM178.121 161.065C182.137 162.336 182.553 163.217 181.094 167.351C179.39 172.18 178.352 173.719 174.983 176.408C166.312 183.33 155.366 175.18 160.027 165.272C160.916 163.382 162.303 162.323 165.7 160.943C167.678 160.14 175.439 160.215 178.121 161.065ZM169.076 162.202C166.038 162.388 164.916 162.601 163.112 163.336C160.843 164.261 159.641 170.146 161.132 173.035C163.166 176.974 167.189 179.103 170.055 177.756C170.445 177.573 171.315 177.181 171.99 176.886C176.48 174.916 179.493 169.408 178.627 164.754C178.131 162.089 176.788 161.731 169.076 162.202ZM131.063 174.907C130.578 176.16 130.551 177.827 131 178.772C131.393 179.597 131.9 180.768 133.163 183.768C134.065 185.91 136.858 190.864 138.05 192.437C138.498 193.028 138.865 193.622 138.865 193.758C138.865 194.739 147.632 204.482 150.854 207.081C156.152 211.356 158.105 212.239 158.105 210.361C158.105 210.18 158.728 209.325 159.49 208.461C163.25 204.194 163.777 202.344 162.163 199.085C161.438 197.623 160.689 196.008 160.497 195.498C159.965 194.086 159.414 194.363 157.937 196.786C156.069 199.851 155.234 200.583 155.493 198.929C155.735 197.382 157.862 193.906 160.461 190.81C163.153 187.604 163.27 187.878 158.612 186.476C157.312 186.085 155.489 185.478 154.561 185.126C153.633 184.774 151.278 183.924 149.329 183.238C143.44 181.166 139.376 179.114 134.253 175.625C131.417 173.694 131.523 173.718 131.063 174.907ZM115.743 187.11C111.312 189.165 109.393 197.002 111.022 206.384C111.983 211.918 112.254 215.459 111.861 217.352C111.513 219.029 111.55 219.244 112.52 221.153C113.6 223.277 113.772 224.097 113.211 224.443C113.025 224.558 112.873 224.51 112.873 224.337C112.873 224.163 112.239 223.166 111.464 222.119L110.055 220.217L109.329 220.899C108.323 221.844 108.109 221.445 108.345 219.067C108.822 214.26 104.805 209.283 97.769 205.965C92.682 203.567 84.659 206.291 83.68 210.749C83.55 211.344 83.235 211.91 82.981 212.008C80.479 212.968 83.305 216.391 87.523 217.508C95.282 219.563 99.938 221.741 98.366 222.582C97.78 222.896 97.712 223.158 97.902 224.372C98.191 226.227 98.113 226.2 102.143 225.876C109.636 225.273 110.809 226.207 103.68 227.098C96.071 228.049 95.917 228.113 93.088 231.538C88.897 236.61 88.645 240.204 92.293 242.847C94.68 244.577 95.039 245.782 94.167 249.146C93.076 253.355 93.646 254.577 97.637 256.589C99.206 257.38 101.059 259.292 101.059 260.121C101.059 264.218 104.472 265.872 109.555 264.238C110.422 263.96 111.713 263.778 112.424 263.834C113.643 263.931 113.712 263.885 113.625 263.041C113.553 262.336 113.779 261.993 114.69 261.43C116.321 260.421 118.232 258.21 119.029 256.408C120.138 253.902 119.44 249.591 117.925 249.591C116.861 249.591 117.143 248.589 118.612 247.149C119.354 246.421 119.962 245.522 119.962 245.15C119.962 244.001 115.708 239.564 114.365 239.312C112.771 239.013 112.809 238.114 114.415 238.114C115.896 238.114 116.706 238.532 118.443 240.192C119.968 241.649 120.461 241.775 120.963 240.837C121.674 239.508 121.342 238.585 119.379 236.43C118.315 235.263 116.53 233.024 115.412 231.454C114.044 229.533 112.938 228.362 112.03 227.872C110.472 227.032 110.079 226.596 110.5 226.175C111.473 225.202 114.458 227.386 117.679 231.427C119.057 233.155 120.464 234.797 120.805 235.076C123.411 237.205 123.995 239.862 122.308 241.91C121.436 242.967 121.312 243.341 121.501 244.344C121.667 245.233 121.545 245.831 121.011 246.735C120.183 248.138 120.152 248.463 120.722 249.69C121.549 251.471 122.135 249.91 123.359 242.671C123.578 241.371 124.121 239.132 124.565 237.695C125.214 235.59 125.386 234.212 125.451 230.606L125.53 226.131L123.632 222.249C120.907 216.678 119.92 209.694 120.444 199.691C120.954 189.954 120.702 188.21 118.639 187.157C117.037 186.34 117.389 186.346 115.743 187.11ZM163.213 205.514C162.645 206.521 161.339 208.287 160.311 209.439C159.284 210.59 158.443 211.737 158.443 211.986C158.443 212.52 163.009 214.708 165.194 215.221C170.195 216.394 167.577 217.701 160.3 217.663C156.123 217.642 152.923 216.801 148.03 214.439C146.108 213.511 144.462 212.826 144.372 212.916C144.122 213.166 147.959 216.13 149.582 216.941C151.166 217.732 151.473 218.536 150.193 218.536C149.004 218.536 148.916 218.944 149.819 220.272C153.014 224.974 155.152 230.898 155.261 235.352C155.355 239.176 155.255 239.07 157.534 237.784C160.527 236.095 164.508 231.048 167.34 225.354C170.096 219.814 169.788 214.413 166.3 207.082C164.41 203.111 164.534 203.173 163.213 205.514ZM155.911 219.211C155.748 219.475 155.554 219.495 155.329 219.27C155.143 219.084 155.102 218.754 155.236 218.536C155.4 218.272 155.594 218.252 155.819 218.477C156.004 218.663 156.046 218.993 155.911 219.211ZM186.629 228.578C181.175 230.353 177.684 237.3 177.684 246.375C177.684 251.265 176.279 255.697 173.454 259.722C172.475 261.117 171.441 263.016 171.157 263.941C170.577 265.831 170.148 273.895 170.627 273.895C170.795 273.895 170.933 273.781 170.934 273.641C170.936 273.105 175.815 267.602 176.714 267.121C178.64 266.09 175.996 269.871 172.228 273.536C169.573 276.118 170.412 279.628 173.445 278.627C174.621 278.238 175.364 278.356 177.953 279.339C178.379 279.5 179.139 279.639 179.64 279.647C180.142 279.655 181.069 279.936 181.701 280.273C183.892 281.44 180.831 281.461 176.84 280.306C174.207 279.544 173.852 279.561 172.387 280.52C170.781 281.571 169.245 284.077 169.245 285.644C169.245 287.319 171.406 289.306 178.274 293.946C179.755 294.946 180.085 295.498 179.201 295.498C178.247 295.498 176.482 294.355 171.737 290.666C170.526 289.724 166.935 292.364 166.41 294.583C166.214 295.413 166.904 297.623 167.539 298.198C167.642 298.291 168.607 299.534 169.685 300.96C176.992 310.632 183.381 311.294 187.325 302.788C188.536 300.174 189.694 298.912 192.536 297.107C195.961 294.931 196.056 294.74 196.249 289.649C196.425 285.019 196.441 284.955 198.019 282.971C200.437 279.927 200.518 277.054 198.247 274.784C196.799 273.336 196.561 272.923 196.719 272.135C196.874 271.361 196.647 270.935 195.396 269.648C193.215 267.404 193.581 267.187 196.811 268.807C199.561 270.187 201.818 270.891 204.181 271.107C205.295 271.208 206.506 271.497 206.873 271.749C211.328 274.811 211.046 263.663 206.55 258.97C203.515 255.803 198.778 253.641 194.87 253.641C191.546 253.641 190.756 253.978 188.602 256.313C187.646 257.35 186.744 258.082 186.599 257.94C186.455 257.797 186.516 257.501 186.736 257.281C187.242 256.775 187.254 255.443 186.755 255.134C186.495 254.974 186.449 254.144 186.609 252.498C186.737 251.178 186.955 248.578 187.093 246.722C187.295 244.011 187.546 242.914 188.368 241.152C188.931 239.945 189.589 238.35 189.831 237.608C190.073 236.865 190.932 234.998 191.741 233.458C193.477 230.152 193.487 230.066 192.264 228.894C191.137 227.814 189.294 227.711 186.629 228.578ZM267.663 235.329C267.55 236.768 267.398 238.525 267.326 239.233C267.158 240.861 267.547 241.02 269.879 240.277C272.632 239.399 272.692 239.292 271.433 237.486C270.833 236.625 270.251 235.844 270.139 235.751C270.028 235.658 269.532 234.937 269.038 234.148C267.876 232.293 267.902 232.271 267.663 235.329ZM281.802 239.092C281.625 239.259 280.835 239.486 280.046 239.598C275.086 240.302 275.166 240.182 277.515 243.358C279.161 245.585 279.817 245.974 280.206 244.959C280.329 244.64 281.235 243.201 282.221 241.762C283.206 240.323 284.013 239.066 284.013 238.967C284.013 238.665 282.142 238.771 281.802 239.092ZM104.435 240.394C104.435 240.881 100.29 242.46 98.696 242.581C97.191 242.695 97.069 241.84 98.527 241.404C99.084 241.238 100.224 240.899 101.059 240.651C102.78 240.14 104.435 240.014 104.435 240.394ZM270.601 241.807C266.978 242.961 267.093 242.788 267.207 246.92L267.304 250.435L270.173 251.848C273.882 253.676 273.783 253.691 275.782 251.019C278.612 247.238 278.576 247.6 276.411 244.672C275.372 243.268 274.443 241.913 274.347 241.661C274.045 240.874 273.461 240.896 270.601 241.807ZM261.059 244.867C258.137 245.834 257.495 246.487 259.054 246.904C260.049 247.17 262.039 248.026 263.794 248.943C265.365 249.763 265.447 249.642 265.447 246.496C265.447 243.353 265.536 243.386 261.059 244.867ZM277.658 251.337C275.556 254.283 275.532 254.155 278.335 254.996C279.694 255.404 281.609 256.045 282.59 256.421C285.045 257.362 285.04 257.188 282.517 253.543C281.297 251.782 280.3 250.189 280.3 250.002C280.3 249.736 279.449 249.184 279.175 249.271C279.144 249.281 278.461 250.211 277.658 251.337ZM114.899 249.876C114.899 250.567 111.018 252.71 106.291 254.627C105.92 254.778 105.199 255.099 104.688 255.341C104.178 255.582 103.676 255.696 103.573 255.593C103.363 255.383 104.46 254.689 108.148 252.702C109.54 251.951 111.363 250.946 112.198 250.468C113.718 249.598 114.899 249.34 114.899 249.876ZM267.374 256.932C267.597 262.841 267.517 262.81 270.64 258.213C272.557 255.391 272.785 254.316 271.466 254.316C271.294 254.316 270.524 254.013 269.756 253.641C267.218 252.415 267.204 252.434 267.374 256.932ZM184.959 256.987C184.834 257.189 184.475 257.355 184.162 257.356C183.848 257.357 182.983 257.732 182.241 258.19C180.697 259.14 180.046 259.251 180.046 258.563C180.046 257.972 182.112 256.661 183.543 256.344C184.677 256.092 185.329 256.388 184.959 256.987ZM184.865 261.988C184.757 262.269 184.559 262.339 184.379 262.159C184.212 261.992 184.177 261.59 184.302 261.264C184.469 260.828 184.597 260.783 184.788 261.093C184.931 261.324 184.965 261.726 184.865 261.988ZM183.542 266.667C186.377 267.4 190.847 269.139 191.805 269.881L192.592 270.492L191.788 270.694C191.253 270.828 190.138 270.509 188.468 269.743C185.27 268.276 182.589 267.297 180.965 267.003C180.264 266.876 179.779 266.628 179.888 266.451C180.171 265.994 181.167 266.053 183.542 266.667ZM169.331 279.36C168.748 280.062 168.473 281.558 168.88 281.81C169.081 281.934 169.245 281.849 169.245 281.62C169.245 281.392 169.486 280.938 169.781 280.612C170.151 280.203 170.222 279.847 170.009 279.467C169.757 279.017 169.632 278.997 169.331 279.36ZM187.81 282.314C188.46 282.486 189.637 282.795 190.426 283C191.538 283.288 191.861 283.531 191.861 284.078C191.861 284.976 190.197 284.783 187.864 283.613C185.516 282.436 185.485 281.696 187.81 282.314ZM182.533 296.873C183.398 297.554 183.739 298.536 183.108 298.536C182.711 298.536 181.834 297.665 181.383 296.822C180.929 295.975 181.419 295.997 182.533 296.873Z" fill="#FAE7EF"/>
</svg>
